<?xml version="1.0" encoding="utf-8" ?><svg xmlns="http://www.w3.org/2000/svg" xmlns:xlink="http://www.w3.org/1999/xlink" width="200" height="200" viewBox="0 0 200 200"><path fill="#1B89B7" d="M112.655 118.136C102.543 121.876 83.723 118.95 74.734 113.043C52.5938 98.4946 49.5959 68.3094 50.3461 44.1399C50.5459 37.705 53.2523 37.8424 58.4875 35.0591C65.6115 31.7079 73.6624 29.6179 81.3565 28.1664C81.751 32.5266 81.5185 37.6424 81.6291 42.0863C82.1503 63.0295 84.1298 85.6875 95.7682 103.732C96.9854 105.62 98.316 107.987 100.139 109.312C103.445 112.603 106.295 114.839 110.632 116.801C111.128 117.025 112.61 117.609 112.655 118.136Z"/><path fill="#28556C" d="M100.139 109.312C102.305 106.644 104.717 103.764 106.439 100.725C118.362 79.6967 119.258 53.6341 119.446 30.0024C119.45 29.4246 119.462 28.9465 119.892 28.5906C122.496 29.4792 125.06 29.587 127.658 30.3547C134.387 32.3435 143.695 35.4365 149.349 39.6211C153.481 67.406 145.781 110.508 113.248 118.085C113.084 118.123 112.825 118.132 112.655 118.136C112.61 117.609 111.128 117.025 110.632 116.801C106.295 114.839 103.445 112.603 100.139 109.312Z"/><path fill="#FDE503" d="M38.576 47.2103C40.0151 47.8036 40.0352 51.8137 40.0635 53.276C40.4078 71.0834 44.6473 90.263 55.3816 104.795C56.5501 106.377 59.4638 109.315 60.0898 110.969L59.8135 111.469C57.5303 112.341 49.0255 107.062 47.1117 105.476C37.2334 99.7522 21.7427 83.5075 17.8915 72.8838C19.5917 66.7112 32.8493 51.4125 38.576 47.2103Z"/><path fill="#28556C" d="M161.264 48.1415C161.343 48.1629 161.422 48.1843 161.501 48.2057C168.322 53.2304 178.789 66.86 182.245 73.4788C177.02 85.6596 164.872 97.3631 154.103 104.731C150.77 106.954 143.207 110.864 139.399 112.425C139.994 111.765 140.82 111.063 141.446 110.393C156.158 94.6461 161.366 68.8144 161.264 48.1415Z"/><path fill="#28556C" d="M115.277 133.098C121.107 132.71 129.547 134.668 130.61 141.224C132.089 150.344 131.664 161.683 131.475 170.906C129.425 170.687 125.79 170.704 123.585 170.625C123.146 167.205 123.252 160.824 123.519 157.328C122.012 157.369 120.135 157.287 118.6 157.263L110.042 157.276C110.476 160.378 110.147 167.474 109.858 170.724C107.358 170.795 104.843 170.721 102.341 170.672C102.142 169.097 101.955 167.175 101.985 165.584C102.213 158.107 101.48 150.32 102.718 142.928C104.033 135.069 108.25 133.791 115.277 133.098ZM109.703 151.694L118.56 151.689C120.075 151.675 122.274 151.589 123.734 151.681C123.667 147.485 123.913 144.664 122.061 140.874C119.963 139.652 118.23 139.137 115.74 139.323C113.946 139.604 112.831 139.664 111.627 141.243C109.899 143.506 109.772 148.807 109.703 151.694Z"/><path fill="#28556C" d="M40.3528 133.283C43.0255 133.442 45.5543 133.326 48.2298 133.255C48.562 135.545 48.2914 137.796 48.3096 140.019C48.3571 145.822 47.4746 156.956 49.2175 162.188C53.2064 166.28 60.9439 165.165 61.4014 158.439C61.9675 150.116 61.5968 141.68 61.5897 133.311C64.3746 133.364 66.8346 133.403 69.6125 133.268C69.6977 134.843 69.6453 136.774 69.6426 138.378C69.3636 152.25 74.2244 172.229 53.4961 170.755C42.5901 170.564 40.0761 163.785 40.3638 153.913C40.554 147.388 40.094 140.052 40.3528 133.283Z"/><path fill="#28556C" d="M146.243 133.625C149.893 133.302 156.539 133.688 160.634 133.603C160.852 135.462 160.735 137.916 160.96 140.072C155.963 139.933 149.331 139.948 144.478 140.513C144.743 144.269 144.631 148.009 144.48 151.767C146.484 151.689 154.855 151.471 156.915 152.063C157.626 152.267 157.479 156.341 157.479 157.538C155.318 157.465 153.046 157.464 150.875 157.433C148.622 157.434 146.648 157.463 144.4 157.214C144.759 161.645 144.59 166.368 144.5 170.832C142.184 170.677 138.925 170.744 136.538 170.724L136.516 170.159C136.181 160.654 136.485 149.897 136.798 140.304C136.977 134.803 141.57 133.778 146.243 133.625Z"/><path fill="#28556C" d="M75.2007 133.241C77.0137 133.719 81.2582 133.535 83.1573 133.28C83.0508 136.451 83.2368 140.75 83.2251 144.087C83.2046 149.922 82.6758 157.911 83.5091 163.497C88.4675 163.836 93.7029 163.963 98.6493 163.505C98.785 165.284 98.7669 168.729 98.5802 170.437C98.0575 170.867 96.6214 170.862 95.9887 170.795C88.5903 170.008 75.6401 173.717 75.2204 162.446C74.9714 155.76 74.9795 149.042 75.1371 142.341C75.2022 139.576 74.8943 135.873 75.2007 133.241Z"/></svg>