<?xml version="1.0" encoding="UTF-8"?>
<svg xmlns="http://www.w3.org/2000/svg" xmlns:xlink="http://www.w3.org/1999/xlink" width="2444" height="2793" viewBox="0 0 2444 2793">
  <path fill="#FEFEFE" d="M272.243 1.21784L449.171 157.132C450.33 148.675 449.86 116.605 449.857 106.326L449.755 1.36376C464.69 1.37234 595.582 -0.378627 602.35 2.30005L603.501 9.83531C631.115 47.6196 660.416 85.6661 688.539 123.11L688.539 92.5933C718.903 62.1689 749.483 31.0057 780.227 1.16177C840.545 2.01992 908.804 2.56097 969.074 1.2731C997.844 29.8907 1033.15 63.2977 1060.53 92.8215C1061.69 105.137 1070.11 137.825 1073.43 152.069L1096.61 251.63C1100.72 269.313 1107.27 294.47 1109.29 311.862C1110.62 323.336 1110.01 349.204 1109.92 362.071C1104.19 368.757 1096.22 379.111 1090.5 384.837C1094.3 396.517 1106.68 433.25 1108.17 443.942C1111.31 466.422 1109.99 504.269 1109.92 528.273C1122.17 522.112 1133.87 516.242 1146.36 510.671C1143.94 497.149 1133.76 445.664 1133.32 434.6C1131.97 400.627 1132.94 358.074 1132.95 323.198L1132.88 92.6278C1162.99 62.5349 1193.91 30.6779 1224.33 1.2447C1289.93 1.53261 1360.67 2.62296 1426.11 1.27694L1517.65 92.6117L1517.66 192.404L1573.35 74.0149C1582.71 54.0912 1592.91 33.2672 1601.37 12.8281C1602.72 9.56211 1602.59 4.93661 1602.56 1.33423L1732.43 1.32609C1747.51 28.0755 1762.92 56.373 1778.34 82.7117L1832.39 9.96304L1833.67 1.89858C1840.04 0.630445 1873.53 1.29246 1882.03 1.29467L1986.89 1.32489L1986.99 158.225L2163.46 1.25207L2287.04 1.36735C2307.52 1.35935 2332.07 2.09992 2352.28 1.20316C2381.06 28.8908 2415.11 62.581 2442.82 91.6223C2442.87 114.136 2444.24 165.253 2442.49 185.76C2440.02 186.361 2437.84 186.933 2435.4 187.66C2416.43 197.666 2397.51 208.791 2378.81 219.512C2398.09 238.847 2425.04 264.252 2442.96 284.09C2442.55 330.912 2441.31 393.536 2442.95 439.543C2416.59 468.565 2380.05 502.998 2352.07 530.968C2332.1 533.684 2301.38 545.298 2280.89 551.576L2114.83 602.008C2093.32 608.54 2051.43 622.942 2030.97 626.339C2012.28 629.442 1968.34 625.564 1947.17 626.819C1931.72 627.735 1901.53 629.147 1890.04 618.379C1879.78 608.772 1867.39 595.435 1856.95 585.173C1827.01 598.839 1793.3 616.72 1761.99 626.002C1748.29 630.065 1702.31 625.723 1686.35 625.918C1687.81 625.901 1675.91 620.034 1672.4 619.279L1656.43 590.636C1645.02 598.196 1609.25 623.214 1599.37 625.427C1585.35 628.563 1547.88 626.882 1531.79 626.926C1573.94 659.59 1600.9 690.792 1630.71 737.723L1635.43 698.515C1700.53 746.37 1731.23 771.893 1765.45 857.44L1770.76 839.425C1792.11 851.955 1811.94 862.53 1830.62 880.138C1871.19 918.384 1884.64 967.076 1886.43 1025.37C1973.69 1013.86 2039.92 972.298 2094.54 893.15C2127.39 845.546 2151.54 790.874 2170.89 734.648C2178.19 713.414 2183.19 690.476 2192.2 670.133C2195.27 663.213 2200.28 652.586 2207.77 651.545C2210.23 651.203 2212.76 652.704 2214.61 654.501C2237.08 676.372 2244.21 817.329 2245.42 854.795C2249.21 972.25 2232.39 1101.42 2159.41 1190.52C2133.46 1222.21 2103.07 1244.85 2069.08 1263.64C2128.59 1275.48 2196.12 1291.2 2244.57 1335.3C2255 1344.79 2263.66 1356.51 2272.18 1368.14C2251.16 1403.76 2231.98 1432.15 2204.08 1461.24C2194.03 1471.72 2182.55 1481.74 2172.85 1492.06C2168.18 1497.03 2160.81 1516.64 2157.2 1524.22C2139.7 1560.99 2113.25 1582.23 2079.56 1597.42L2103.69 1624.03C2089.49 1636.06 2075.93 1648.37 2059.78 1656.81C2006.87 1684.44 1967.62 1659.24 1913.16 1689.24C1932.56 1824.68 1920.81 1940.26 1860.53 2061.68C1844.93 2093.12 1826.53 2121.19 1808.11 2150.54L1785.32 2101.09C1766.87 2147.69 1749.65 2195.26 1731.2 2241.68L1704.12 2165.72C1690.76 2204.18 1676.97 2246.25 1662.86 2284.12C1682.39 2416.66 1647.39 2489.36 1584.71 2593.66L1571.94 2564.75C1537.71 2650.04 1486.64 2697.53 1424.52 2753.83L1405.23 2715.36C1361.05 2751.8 1268.5 2799.54 1213.27 2789.31C1158.09 2779.09 1099.77 2752.02 1054.18 2715.57L1034.85 2753.8C973.389 2697.96 920.857 2649.27 887.429 2564.5L874.753 2593.71C864.37 2576.37 853.908 2559.05 843.814 2541.49C800.562 2466.23 780.17 2373.83 796.613 2284.76C782.967 2245.39 769.404 2204.91 755.336 2165.82C746.475 2190.68 737.405 2217.33 728.205 2241.9C710.377 2195.36 692.517 2146.92 674.117 2100.84L651.356 2150.56C632.137 2119.86 613.801 2091.26 597.32 2058.52C540.577 1945.79 525.49 1816.6 546.387 1689.38C488.945 1658.73 454.809 1684.86 399.659 1656.8C382.609 1648.12 370.626 1635.88 355.658 1624.07L379.781 1597.43C346.929 1581.73 319.574 1561.76 302.624 1524.87C300.008 1519.18 290.508 1496.13 287.584 1493.36C246.871 1454.85 216.458 1419.55 187.309 1368.12C196.22 1355.98 204.424 1344.75 215.381 1334.84C263.582 1291.21 331.4 1275.29 390.532 1263.56C208.784 1166.28 199.124 939.133 223.086 740.763C225.457 721.14 231.598 652.243 248.927 644.876C262.158 645.086 271.735 680.895 275.42 693.057C326.101 860.318 403.613 1003.26 572.895 1025.36C574.722 984.482 579.244 952.101 599.631 916.884C622.604 877.199 652.906 860.288 688.664 839.399L694.043 857.42C727.96 772.055 759.152 746.278 823.995 698.452L828.82 737.688C855.813 695.075 888.556 655.254 927.699 626.926C920.491 627.038 908.194 627.837 902.066 624.184C888.282 615.968 872.975 602.981 860.123 592.884L780.733 530.352L780.732 612.178L779.063 613.067C771.657 617.09 770.525 618.526 765.26 625.637C760.709 627.265 680.471 627.901 674.237 625.822C645.652 616.289 609.535 598.407 581.088 585.41C530.106 636.967 543.159 626.72 476.034 626.756L396.707 627.002C385.01 627.043 364.155 627.709 353.072 626.283C339.726 624.565 318.575 617.785 304.76 613.859L226.752 591.667C157.874 572.139 79.934 552.401 12.2738 530.857C9.56159 529.985 4.27906 530.156 1.19335 530.091L1.21528 1.57617C90.4381 0.115574 183.864 3.89737 272.243 1.21784ZM1319.12 376.38L1319.12 356.025L1287.75 356.025L1287.75 376.38L1319.12 376.38ZM1420.8 576.249C1433.07 586.389 1446.32 597.513 1457.57 609.111C1469.23 621.013 1481.14 634.052 1491.52 647.418L1491.85 529.417C1491.85 519.812 1492.38 485.034 1491.37 477.003C1471.75 506.878 1444.09 553.053 1420.8 576.249ZM967.89 647.302L977.259 635.736L984.908 626.926L967.89 626.926L967.89 647.302Z"></path>
  <path fill="#434241" d="M1229.58 502.308C1338.09 520.972 1446.58 599.119 1508.19 702.414L1508.21 629.638C1570.25 676.773 1603.49 716.035 1640.25 791.177C1643.37 771.166 1645.78 749.443 1648.61 729.112C1714.89 775.23 1741.85 832.301 1766.39 913.444L1780.74 864.664C1847.11 903.54 1873.55 957.607 1869.15 1043.3C1909.99 1040.59 1944.63 1033.82 1981.94 1015.89C2095.72 961.224 2159.61 831.708 2198.02 704.55C2199.52 699.6 2203.24 690.037 2207.57 687.968C2216.78 694.814 2222.38 764.401 2223.84 778.9C2240.27 941.85 2226.93 1141.12 2088.37 1232.71C2060.16 1251.35 2035.74 1261.09 2004.94 1271.59L2006.44 1271.72C2082.47 1278.39 2200.54 1300.51 2252.18 1369.17C2216.67 1430.95 2173.64 1471.63 2120.8 1512.17C2128.95 1510.28 2137.98 1508.92 2146.27 1507.49C2124.47 1556.67 2096.52 1575.63 2050.52 1590L2079.65 1622.28C2034.16 1664.21 1999.96 1650.52 1946.95 1659.29C1927.72 1662.47 1911.53 1670.4 1894.78 1681.16C1925.65 1841.83 1892.92 1983.77 1810.35 2115.4C1801.4 2096.84 1792.58 2076.96 1783.89 2058.14C1767.06 2096.89 1747.45 2152.86 1731.8 2193.7L1703.86 2115.08C1685.17 2170.92 1664.97 2227.53 1645.68 2283.21L1646.95 2290.71C1663.71 2393.15 1636.91 2473.99 1587.11 2557.04C1581.12 2544.65 1574.04 2526.9 1568.44 2513.85C1551.3 2605.78 1491.44 2670.77 1429.58 2726.64L1409.81 2687.77C1364.9 2735.61 1291.05 2765.79 1230.7 2775.67C1170.62 2769.07 1094.49 2733.55 1049.53 2687.8L1029.92 2726.64C966.974 2672.14 909.134 2604.36 891.001 2513.93L872.291 2557.18C818.263 2466.92 796.868 2392.64 813.614 2282.88L755.535 2115.68C746.354 2138.87 736.162 2169.9 727.626 2193.99C710.972 2148.76 692.777 2102.73 675.544 2057.66C667.174 2076.77 657.871 2096.38 649.169 2115.38C562.929 1982.45 537.083 1843.32 564.693 1681.15C491.787 1631.83 449.118 1682.33 379.775 1622.29L409.101 1589.92C363.504 1578.14 334.652 1554.32 313.087 1507.52C321.453 1508.65 330.002 1510.44 338.331 1512.05C282.651 1469.73 245.249 1432.2 207.221 1369.31L209.152 1366.65C258.691 1299.57 381.3 1278.9 454.745 1271.59C388.409 1250.21 331.479 1215.49 290.663 1148.52C215.874 1025.82 224.184 853.94 243.376 713.287C244.509 704.978 247.3 689.111 253.142 684.432C257.379 687.216 272.997 740.803 276.505 750.55C336.264 916.612 423.322 1030.24 590.068 1043.33C586.45 955.932 611.82 904.783 678.751 864.619L693.214 913.57C716.162 830.275 746.47 775.859 811.032 728.952L819.064 791.408C854.808 716.885 889.999 676.254 951.223 629.776L951.257 702.587C1012.31 596.334 1121.04 524.18 1229.58 502.308Z"></path>
  <path fill="#A2212B" d="M1791.24 1473.95C1796.12 1476.79 1798.54 1483.25 1800.91 1489.08C1820.86 1538.18 1807.32 1593.45 1792.26 1641.49C1876.32 1755.71 1856.57 1906.52 1819.3 2037.35L1767.17 1979.03L1739.96 2093.79C1726.53 2067.2 1712.24 2040.53 1698.42 2014.15C1676.88 2099.4 1646.47 2197.42 1602.53 2270.94C1614.39 2331.58 1616.43 2395.32 1596.54 2453.94C1582.08 2440.18 1566.95 2424.46 1552.68 2410.22C1540.63 2467.45 1522.78 2538.03 1489.6 2583.9C1473.13 2606.67 1455.33 2618.15 1429.57 2620.76C1456.76 2552.07 1476.86 2482.57 1471.36 2406.06C1540.77 2359.27 1610.93 2282.51 1581.99 2181.79C1572.62 2149.16 1563.53 2136.2 1560.98 2100.13C1555.52 2022.67 1559.43 1946.44 1563.82 1869.11C1593.89 1901.58 1635.09 1903.96 1674.36 1903.18C1661.29 1897.88 1651.95 1894.53 1639.45 1887.4C1620.88 1875.69 1612.03 1864.4 1605.34 1841.52C1634.11 1871.82 1670.68 1864.36 1702.96 1846.51C1686.83 1842.33 1658.28 1836.01 1643.75 1830.39C1676.68 1826.05 1694.01 1821.61 1721.44 1799.03C1703.31 1796.07 1683.16 1793.9 1664.82 1791.48C1699.6 1764.68 1709.05 1733.22 1719 1688.61C1710.84 1706.31 1703.57 1720.31 1688.8 1732.01C1655.56 1758.34 1607.45 1752.04 1570.14 1744.28C1577.49 1728.44 1584.42 1718.07 1593.97 1704.1C1640.29 1751.68 1712.18 1697.93 1682.66 1628.15C1698.3 1618.97 1714.54 1610.97 1729.94 1601.51C1655.72 1612.86 1600.5 1637.74 1561.67 1714.11C1507.06 1821.51 1470.93 1999.76 1499.14 2120.42C1487.21 2121.28 1472.31 2124.06 1460.68 2126.85C1457.5 2091.01 1459.63 2034.58 1462.73 1998.77C1473.06 1879.57 1494.6 1751.2 1541.93 1643.46C1584.86 1630.58 1613.7 1618.91 1654.45 1597.88C1630.73 1589.27 1606.71 1581.31 1582.84 1573.23C1672.84 1557.46 1717.06 1541.42 1791.24 1473.95Z"></path>
  <path fill="#434241" d="M1799.19 1722.15C1802.14 1730.53 1801.67 1759.68 1801.3 1768.85C1799.11 1823.88 1788.76 1883.19 1758.97 1927.87L1740.96 1898.91C1741.18 1917.44 1743.04 2015.09 1728.53 2023.24C1725.34 2018.82 1710.52 1977.77 1707.37 1969.33C1665.8 2009.38 1646.83 2062.63 1630.52 2120.18L1624.2 2144.34C1597.62 2026.48 1655.17 1978.67 1700.81 1884.09C1712.54 1859.79 1718.36 1839.62 1724.25 1813.26C1729.87 1825.58 1737.33 1846.85 1742.42 1860.17C1781.93 1840.22 1791.21 1766.2 1799.19 1722.15Z"></path>
  <path fill="#434241" d="M1683.76 1708.95L1684.52 1710.05C1655.95 1742.92 1620.3 1750.11 1582.75 1735.89L1594.95 1716.06C1626.21 1737.79 1654.24 1727.66 1683.76 1708.95Z"></path>
  <path fill="#A2212B" d="M1364 777.099L1364.82 777.34C1366.05 780.047 1354.1 802.47 1351.9 807.26C1308.37 902.27 1283.01 1006.22 1292.41 1114.27C1363.44 1050.19 1437.19 986.128 1509.03 923.032C1463.89 1031.71 1405.35 1144.87 1304.89 1195.65C1388.14 1205.68 1505.99 1138.12 1579.28 1098.76C1505.29 1181.86 1428.83 1239.82 1324.58 1258.45C1328.38 1261.22 1332.29 1263.91 1336.45 1265.93C1407.81 1300.59 1587.58 1235.58 1657.37 1204.05C1578.78 1269.13 1495.78 1307.91 1400.59 1329.76C1368.3 1337.17 1337.08 1341.7 1304.68 1347.73C1368.78 1389.36 1445.5 1407.39 1518.85 1400.94C1615.14 1393.04 1683.83 1356.11 1765.98 1303.27C1756.07 1313.46 1743.5 1324.73 1732.78 1333.83C1629.52 1421.53 1521.71 1468.92 1392.41 1447.89C1455.67 1520.72 1637.61 1491.63 1718.3 1480.52C1623.94 1534.12 1464.56 1567.26 1365.44 1519.78C1385.52 1567.82 1505.85 1599.92 1549.93 1612.85C1498.07 1615.56 1443.83 1608.84 1388.49 1594.4C1340.26 1581.82 1245.85 1544.76 1230.38 1479.23C1229.24 1474.42 1231.22 1442.6 1231.55 1434.45C1236.47 1315.34 1232.62 1195.86 1240.47 1076.9C1246.9 983.415 1262.95 874.68 1326.23 808.184C1338.17 795.635 1350.15 786.492 1364 777.099Z"></path>
  <path fill="#A2212B" d="M1220.78 1527.3C1265.79 1586.17 1309.43 1626.99 1377.87 1646.61C1397.02 1651.88 1412.05 1651.31 1429.66 1662.66C1465.99 1686.07 1461.5 1753.42 1441.22 1788.42C1421.61 1822.25 1381.56 1834.88 1347.25 1842.03C1387.15 1869.36 1446.42 1819.39 1463.09 1841.6C1463.03 1844.98 1463.1 1846.53 1460.65 1849.47C1434.73 1880.52 1369.22 1889.5 1334.5 1893.45C1362.9 1918.39 1387.96 1916.39 1421.86 1909.23C1429.4 1907.64 1438.75 1905.22 1446.15 1907.73L1446.58 1910.2C1432.77 1933.78 1350.57 1953.63 1325.01 1959.99C1377.69 1991.52 1416.92 1944.4 1432.73 1956.95C1433.52 1959.85 1433.61 1961.72 1432.65 1964.62C1424.96 1987.92 1348.37 2017.93 1327.11 2028.16C1364.29 2039.2 1382.13 2026.89 1417.24 2014.85C1421.02 2013.55 1422.33 2013.47 1424.98 2015.47C1429.99 2047.57 1325.34 2089.43 1302.08 2099.15C1339.82 2111.06 1361.82 2102.77 1398.31 2088.05C1407.44 2084.01 1423.32 2074.85 1432.19 2080.04C1434.23 2083.42 1435.01 2085.2 1434.35 2089.54C1431.12 2110.55 1408.86 2133.02 1393.9 2143.88C1373.73 2158.51 1284.81 2185.1 1258.36 2187.75C1246.42 2188.95 1235.95 2188.16 1224.28 2185.12C1175.11 2135.38 1152.19 2105.79 1129.82 2033.67C1154.59 2062.4 1183.58 2094.45 1221.33 2090.61C1224.91 2090.24 1225.92 2089.92 1228.01 2086.97C1227.72 2086.55 1197.73 2063.13 1193.16 2058.78C1147.83 2015.5 1126.11 1962.12 1108.48 1899.44C1135.78 1940.46 1166.35 1982.86 1215.67 1975.36C1165.91 1915.93 1145.2 1844.2 1137.92 1764.24C1160.96 1810.04 1188.31 1852.31 1236.01 1862.76C1214.62 1816.74 1220.75 1786.72 1231.82 1738.32C1244.15 1684.42 1244.94 1631.03 1232.84 1577.07C1229.13 1560.51 1224.38 1543.98 1220.78 1527.3Z"></path>
  <path fill="#A2212B" d="M977.545 2146.98C1012.24 2145.42 1056.61 2176.53 1087.86 2193.01C1135.13 2217.93 1175.41 2231.25 1227.93 2227.26C1243.54 2227.52 1259.31 2228.3 1274.86 2226.66C1328.67 2221.01 1375.23 2190.26 1423.17 2164.65C1446.9 2151.98 1470.59 2141.21 1496.89 2151.41C1524.68 2248.55 1503.94 2334.39 1419.61 2378.28C1438.18 2338.1 1458.53 2290.71 1444.06 2244.98C1411.95 2295.27 1339.63 2287.22 1318.01 2336.19C1342.48 2346.96 1355.59 2355.53 1374.51 2376.16C1400.41 2409.3 1407.07 2443.06 1394.08 2484.87C1342.63 2439.86 1292.66 2447.81 1232.16 2447.96C1167.97 2448.12 1120.49 2438.58 1065.32 2484.89C1041.77 2411.44 1084.96 2362.21 1141.2 2336.13C1123.43 2289.38 1052.6 2297.56 1015.22 2244.89C1001.01 2290.12 1021.22 2339.01 1040.03 2378.45C953.43 2331.65 936.415 2251.65 962.51 2151.16C968.032 2149.09 971.923 2148.25 977.545 2146.98Z"></path>
  <path fill="#FEFEFE" d="M1420.92 2216.48L1421.66 2216.94C1398.9 2242.07 1331.83 2276.45 1302.42 2285.12C1217.97 2310.01 1147.82 2291.66 1073.93 2243.24C1064.75 2237 1056.37 2230.56 1047.51 2223.79C1179.11 2267.82 1291.17 2263.56 1420.92 2216.48Z"></path>
  <path fill="#FEFEFE" d="M1246.65 2411.7C1289.07 2407.44 1343.45 2427.02 1377.69 2455.36L1361.38 2448.06C1317.14 2428.73 1276.34 2420.33 1229.74 2432.36L1229.75 2413.5L1246.65 2411.7Z"></path>
  <path fill="#A2212B" d="M638.687 1060.59C641.051 1069.19 642.869 1079.81 644.525 1088.81C662.783 1188.13 728.749 1340.26 814.834 1379.36C815.422 1353.1 817.216 1325.06 818.506 1298.71C846.615 1337.75 878.579 1378.86 907.511 1417.24L890.69 1345C969.836 1432.47 1074.61 1507.54 1186.68 1517.15L1186.91 1518.57C1164.14 1533.39 1103.11 1541.83 1076.19 1537.96C1012.88 1528.85 975.831 1495.83 937.118 1441.67L937.118 1504.32L846.643 1413.84L846.643 1487.97C777.136 1471.82 714.899 1416.27 678.349 1347.81C642.072 1279.86 629.461 1199.67 632.942 1120.99C633.771 1102.26 634.893 1078.79 638.687 1060.59Z"></path>
  <path fill="#A2212B" d="M2198.14 854.105C2198.2 1123.14 2072.48 1222.55 1854.86 1253.12C1852.29 1253.48 1851.81 1253.01 1850.2 1251.27L1851.06 1246.67C1854.91 1227.65 1855.61 1215.1 1856.44 1195.9C1855.88 1163.05 1854.05 1142.24 1845.1 1110.46C2019.06 1096.49 2139.1 1063.51 2198.14 854.105Z"></path>
  <path fill="#FEFEFE" d="M1856.44 1195.9C1958.22 1196.23 2054.64 1139.07 2137.45 1075.98C2078.66 1182.19 1955.07 1228.96 1851.06 1246.67C1854.91 1227.65 1855.61 1215.1 1856.44 1195.9Z"></path>
  <path fill="#A2212B" d="M271.399 854.845C288.193 908.363 303.418 949.713 336.415 994.674C402.593 1084.85 526.586 1102.42 624.693 1110.48C615.833 1139.65 613.638 1164.63 613.266 1195.12C613.814 1214.62 614.599 1227.75 618.802 1246.76C619.118 1248.26 619.114 1250.08 619.199 1251.69C617.38 1252.71 616.821 1253.39 614.693 1253.07C524.511 1239.24 424.819 1213.03 357.277 1139.17C286.749 1062.05 273.499 959.541 271.399 854.845Z"></path>
  <path fill="#FEFEFE" d="M330.055 1075.44C414.277 1139.16 509.959 1195.62 613.266 1195.12C613.814 1214.62 614.599 1227.75 618.802 1246.76C511.899 1228.22 391.813 1183.71 330.055 1075.44Z"></path>
  <path fill="#A2212B" d="M713.713 1665.83C718.081 1668.44 722.196 1675.33 725.437 1679.69C752.494 1716.11 785.64 1753.54 826.829 1766.97C854.37 1775.95 881.836 1766 908.966 1759.19C974.27 1887.42 950.178 2023.82 884.137 2143.51C890.183 2101.08 894.272 2064.76 889.908 2021.59C884.451 1986.67 878.77 1977.54 850.71 1965C786.037 1936.09 746.919 1861.34 717.58 1793.43C728.091 1805.41 761.771 1845.66 777.518 1830.88C774.859 1826.13 767.504 1822.79 763.229 1819.02C740.194 1798.69 720.035 1777.8 714.804 1744.24C725.722 1755.62 760.746 1788.36 775.82 1778.06C775.314 1775.3 719.736 1743.94 713.713 1665.83Z"></path>
  <path fill="#FEFEFE" d="M774.073 1753.96C810.069 1772.92 869.556 1814.67 907.322 1783.48C914.547 1806.35 921.449 1831.25 928.295 1854.42C928.723 1855.95 929.201 1858.69 929.541 1860.36L928.028 1862.34C881.895 1868.22 835.753 1837.26 805.615 1800.2C795.77 1788.09 780.718 1768.85 774.073 1753.96Z"></path>
  <path fill="#A2212B" d="M1131.23 618.105C1131.56 619.726 1122.13 627.432 1120.26 629.113C1031.35 709.035 991.374 810.688 966.396 933.466C961.912 885.318 955.822 834.301 950.345 786.187C905.748 821.828 891.419 941.444 883.669 1000.82C874.979 970.375 863.619 936.606 854.062 906.177C838.528 923.142 829.533 945.788 820.289 967.592C796.218 1027.93 782.401 1081.81 762.884 1142.31C764.141 1095.82 767.845 1060.84 778.615 1015.78C822.803 830.888 991.683 705.93 1131.23 618.105Z"></path>
  <path fill="#A2212B" d="M895.088 1633.26C899.918 1637.58 911.487 1653.97 915.616 1660.02C1014.5 1804.97 1060.67 1946.35 1041.39 2129.69L1022.57 2126.4L951.557 2112.95C1013.93 1937.36 970.667 1789.77 895.088 1633.26Z"></path>
  <path fill="#A2212B" d="M1202.6 2474.45C1211.01 2473.24 1256.59 2473.98 1264.57 2474.82C1319.74 2480.56 1364.16 2510.31 1399.33 2558.33L1397.22 2559.28C1354.69 2578.74 1299.94 2555.13 1254.08 2547.62C1185.19 2535.62 1118.74 2591.35 1060.08 2565.42C1096.1 2512.46 1144.06 2480.23 1202.6 2474.45Z"></path>
  <path fill="#FEFEFE" d="M1274.18 2491.62C1308.83 2495.75 1349.71 2518.9 1369.17 2552.98L1308.21 2543.73C1294.52 2541.75 1281.21 2539.84 1267.58 2537.33C1292.6 2524.96 1310.7 2528.9 1336.46 2535.61C1313.92 2517.32 1298.38 2506.72 1274.18 2491.62Z"></path>
  <path fill="#A2212B" d="M623.356 1720.74C625.176 1724.02 627.683 1735.84 628.594 1740.02C637.334 1780.09 650.842 1815.31 669.151 1850.94C675.614 1838.83 682.157 1825.38 688.416 1813.04C694.077 1854.77 701.347 1894.6 721.938 1930.37L736.037 1889.1C759.169 1985.8 789.154 2051.62 829.935 2138.2C825.03 2133.42 819.966 2127.81 815.213 2122.75C774.423 2075.53 747.517 2033.61 732.759 1968.46C724.794 1985.06 716.948 2001.51 708.562 2017.84C677.272 1989.49 676.002 1942.55 675.479 1900.48L645.794 1952.39C619.152 1887.85 610.514 1791.45 623.356 1720.74Z"></path>
  <path fill="#A2212B" d="M489.263 1312.52C516.37 1309.46 558.628 1312.63 585.42 1315.17L586.486 1316.89C594.105 1329.28 602.929 1335 614.411 1341.95C652.38 1364.94 671.017 1375.89 685.239 1422.9C629.391 1403.14 571.111 1387.34 513.432 1376.54C456.237 1365.66 397.071 1360.89 339.196 1366.12C320.625 1367.8 303.694 1371.44 285.541 1373.49C354.062 1336.21 413.967 1318.7 489.263 1312.52Z"></path>
  <path fill="#FEFEFE" d="M2044.84 1392.3L2045.91 1393.38C2045.59 1399.52 2038.92 1412.65 2036.01 1418.1C2006.9 1472.64 1957.9 1495.24 1906.42 1510.07C1927.68 1514.76 1958.59 1518.14 1980.72 1521.34L1891.82 1559.36C1906.37 1564.2 1950.52 1577.47 1962.23 1583.09L1961.63 1584.91L1854.39 1621.4C1872.22 1563.66 1872.28 1523.53 1863.21 1463.74C1931.61 1460.65 1988.22 1432.85 2044.84 1392.3Z"></path>
  <path fill="#A2212B" d="M1269.08 2586.26C1296.64 2583.56 1342.53 2594.59 1370.06 2602.76C1355.73 2652.74 1328.91 2698.99 1287.93 2724.81C1297.91 2707.04 1314.44 2675.32 1302.67 2654.3C1298.97 2654.66 1298.64 2656.55 1295.19 2660.45C1274.94 2691.71 1273.62 2704.95 1260.23 2735.63L1259.15 2738.09C1257.58 2722.63 1256.82 2703.66 1255.89 2687.89C1243.95 2709.87 1239.56 2726.21 1233.07 2750.77C1231.36 2701.19 1230.77 2650.57 1229.79 2600.89C1243.87 2589.22 1252.48 2588 1269.08 2586.26Z"></path>
  <path fill="#FEFEFE" d="M521.832 1486.38C531.84 1485.56 549.104 1486.87 559.573 1487.36L621.776 1490.39C593.384 1537.32 581.674 1583.34 578.548 1639.99C548.228 1627.63 515.714 1615.04 485.879 1601.74C501.662 1600.76 517.915 1599.21 533.721 1597.93L558.334 1595.55C536.117 1583.54 509.416 1568.74 487.951 1555.5L557.182 1555.46C539.655 1542.26 519.974 1525.37 502.658 1511.28L579.02 1526.01C560.955 1514.49 539.304 1498.98 521.832 1486.38Z"></path>
  <path fill="#A2212B" d="M857.365 1546.18C864.56 1547.91 878.892 1558.8 885.282 1563.56C978.015 1632.63 1044.23 1744.81 1068.39 1867.94C1072.15 1887.07 1076.05 1911.84 1076.29 1931.37C1073.02 1926.56 1063.13 1893.51 1060.16 1885.3C1014.19 1758.32 946.194 1639.38 857.365 1546.18Z"></path>
  <path fill="#A2212B" d="M727.081 1600.39L783.067 1618.26C733.304 1687.84 829.562 1771.74 877.039 1686.33C880.207 1693.13 882.775 1699.9 885.511 1706.92C889.608 1719.85 891.477 1729.22 893.677 1742.66C861.452 1750 818.684 1753.13 788.412 1735.91C743.952 1710.62 741.289 1649.3 727.081 1600.39Z"></path>
  <path fill="#434241" d="M736.457 1610.43L768.982 1621.37C760.358 1631.27 758.604 1637.02 756.109 1650.07L754.984 1665.6C743.083 1649.11 739.511 1630.93 736.457 1610.43Z"></path>
  <path fill="#434241" d="M876.4 1701.54C878.678 1711.72 880.128 1726.4 881.46 1737.1C868.079 1739.01 862.987 1738.4 849.684 1735.55L842.429 1732.92L842.091 1731.88C861.461 1722.33 864.468 1721.55 876.4 1701.54Z"></path>
  <path fill="#FEFEFE" d="M835.029 1654.7C842.393 1661.19 852.166 1671.56 859.401 1678.76C845.702 1690.97 838.26 1694.25 821.163 1694.17C809.991 1691.21 805.778 1688.19 796.357 1681.51C817.51 1682.24 830.717 1680.96 835.029 1654.7Z"></path>
  <path fill="#FEFEFE" d="M1651.84 1644.77C1671.65 1647.49 1675.55 1666.29 1655.81 1675.33C1635.75 1672.25 1631.97 1653.11 1651.84 1644.77Z"></path>
  <path fill="#FEFEFE" d="M1626.9 1668.95C1627.13 1669.06 1627.36 1669.17 1627.59 1669.27C1640.63 1682.57 1646.56 1681.81 1663.06 1681.53C1655.4 1686.98 1652.93 1688.69 1644.55 1692.44C1629.37 1696.33 1622.43 1693.67 1609.1 1686.49C1614.67 1680.57 1621.05 1674.61 1626.9 1668.95Z"></path>
  <path fill="#FEFEFE" d="M802.141 1633.32C809.296 1631.29 816.536 1636.29 818.287 1644.47C820.038 1652.66 815.633 1660.91 808.464 1662.88C801.335 1664.84 794.165 1659.84 792.424 1651.7C790.683 1643.56 795.027 1635.35 802.141 1633.32Z"></path>
  <path fill="#434241" d="M1231.2 15.0741L1419.18 15.0662L1502.78 98.8269L1502.78 432.858L1419.09 516.54L1361.37 516.638C1332.18 516.727 1323.19 517.601 1295.38 505.792C1273.47 496.483 1244.67 488.105 1221.58 487.174C1218.44 487.048 1208.99 489.633 1205.39 490.538C1186.18 471.804 1166.85 452.035 1147.8 433L1147.8 98.6839L1231.2 15.0741ZM1287.75 376.38L1319.12 376.38L1319.12 356.025L1287.75 356.025L1287.75 376.38Z"></path>
  <path fill="#FEFEFE" d="M1273.11 140.475L1377.42 140.47L1377.42 391.199L1273.11 391.204L1273.11 140.475ZM1287.75 376.38L1319.12 376.38L1319.12 356.025L1287.75 356.025L1287.75 376.38Z"></path>
  <path fill="#A2212B" d="M1287.76 155.282L1362.74 155.282C1362.88 182.406 1364.14 203.246 1358.24 229.542C1351.9 257.792 1345.92 286.312 1339.7 314.615L1334.1 341.212L1287.75 341.212L1287.76 155.282Z"></path>
  <path fill="#A2212B" d="M1361.49 284.437C1363.94 290.515 1362.78 363.532 1362.74 376.379L1334.56 376.379C1333.8 371.779 1334.07 361.166 1334.06 356.001L1348.35 344.373L1361.49 284.437Z"></path>
  <path fill="#434241" d="M15.1061 15.07L265.559 15.0662C293.532 42.4027 321.544 71.0084 349.29 98.7497L349.29 223.851C335.457 238.025 321.401 251.873 307.359 265.774C321.344 279.379 335.432 293.832 349.29 307.688L349.29 432.806L334.027 448.238L265.575 516.54L15.1061 516.54L15.1061 15.07Z"></path>
  <path fill="#FEFEFE" d="M140.4 132.175L224.054 132.167L224.056 215.535C197.161 216.295 167.511 215.613 140.4 215.628L140.4 132.175Z"></path>
  <path fill="#A2212B" d="M155.139 146.859C168.108 147.269 196.798 169.786 209.079 178.205L209.079 200.828L155.139 200.828L155.139 146.859Z"></path>
  <path fill="#A2212B" d="M189.982 147.523C195.571 146.97 202.438 145.378 207.12 148.009C210.097 152.877 209.018 152.769 209.028 160.109C203.589 157.004 195.452 151.175 189.982 147.523Z"></path>
  <path fill="#FEFEFE" d="M140.4 316.074L224.056 316.052L224.056 399.448C196.779 400.045 167.815 399.497 140.4 399.515L140.4 316.074Z"></path>
  <path fill="#A2212B" d="M155.139 330.728C175.95 330.091 189.789 340.374 209.079 350.442L209.079 384.698L155.142 384.698L155.139 330.728Z"></path>
  <path fill="#434241" d="M1617.08 15.0662L1723.21 15.0662L1846.94 234.794C1848.69 164.994 1847.04 85.6426 1847.04 15.0662L1972.28 15.0662L1972.28 516.54L1865.37 516.54L1742.47 296.034L1742.46 516.54L1617.08 516.54L1617.08 15.0662Z"></path>
  <path fill="#434241" d="M786.926 15.0662L962.218 15.0662L1045.88 98.8624L1045.88 173.947L920.502 173.947L920.502 140.472L828.63 140.47L828.63 207.309L962.203 207.309C990.07 234.602 1018.46 263.248 1045.88 291.084L1045.88 432.787C1019.05 460.695 989.648 489.101 962.217 516.54L786.902 516.54L703.198 432.789L703.198 357.67L828.627 357.678L828.627 391.204L920.502 391.202L920.502 324.35L786.902 324.347L703.198 240.672L703.198 98.7605L786.926 15.0662Z"></path>
  <path fill="#434241" d="M2170.2 15.0662L2345.5 15.0662C2373.45 42.2991 2401.5 71.0502 2429.17 98.7703L2429.18 173.947L2303.96 173.947L2303.95 140.472L2212.02 140.47L2212.02 207.309L2345.45 207.309C2372.16 232.11 2402.85 264.543 2429.17 290.869L2429.18 432.808L2345.69 516.442C2328.17 517.346 2304.05 516.546 2286.03 516.547L2170.17 516.54L2086.63 432.836L2086.63 357.67L2212.02 357.67L2212.02 391.204L2303.96 391.202L2303.95 324.347L2170.17 324.347L2086.63 240.724L2086.63 98.7769L2170.2 15.0662Z"></path>
  <path fill="#434241" d="M463.643 15.0662L589.003 15.0679L589.007 516.453C548.597 517.574 504.366 516.535 463.643 516.54L463.643 15.0662Z"></path>
  <path fill="#A2212B" d="M603.828 36.0924C607.984 39.5937 626.664 65.1443 631.056 71.0058L688.538 147.813L688.538 246.583C713.047 273.16 746.186 314.495 769.693 342.935L688.538 342.955L688.538 438.9L761.022 511.6C769.888 519.441 766.295 578.987 766.207 595.162L603.75 507.739L603.828 36.0924Z"></path>
  <path fill="#A2212B" d="M1601.92 48.7095C1602.87 54.9254 1602.53 83.4899 1602.52 90.8461L1602.37 183.654L1602.41 529.203L1541.89 581.689C1533.19 589.219 1517 604.012 1508.13 609.852C1505.05 603.06 1506.48 468.057 1506.5 450.083L1517.65 439.002L1517.53 293.276C1517.51 275.651 1515.07 243.74 1518.74 227.424C1521.72 214.207 1591.72 67.001 1601.92 48.7095Z"></path>
  <path fill="#A2212B" d="M2071.18 440.362C2075.73 441.334 2145.34 512.553 2154.78 522.024L1947.27 596.755L1904.69 612.121L1871.34 578.545C1894.35 568.467 1917.04 557.33 1939.99 547.139C1955.05 540.452 1970.75 530.796 1986.99 531.19L1986.99 481.902L2071.18 440.362Z"></path>
  <path fill="#A2212B" d="M281.187 522.019L533.665 612.014C474.294 613.538 413.233 611.861 353.819 611.382C348.07 611.335 336.175 607.396 330.284 605.658L163.791 558.557C134.448 550.264 98.1789 541.179 69.6174 531.305L271.81 531.226L281.187 522.019Z"></path>
  <path fill="#A2212B" d="M363.009 439.962C368.514 441.738 386.073 450.715 391.769 453.496L448.812 481.407L448.813 531.184C465.262 530.785 484.165 541.725 499.524 548.658L566.41 579.097C557.259 588.405 548.152 597.937 538.498 606.54L537.361 605.946L538.097 601.297C534.274 594.608 521.023 591.765 513.441 589.26C490.371 580.22 463.261 571.321 439.656 562.898L292.717 510.345L363.009 439.962Z"></path>
  <path fill="#A2212B" d="M971.224 530.256C974.645 530.798 1014.17 584.637 1019.68 591.912C1012.8 597.853 1005.1 605.682 998.413 612.146L968.06 612.146L967.796 596.001L946.908 612.144L908.906 612.146L887.236 595.214L805.557 531.226L916.226 531.313C927.913 531.32 961.679 532.15 971.224 530.256Z"></path>
  <path fill="#A2212B" d="M2070.32 113.095L2071.63 115.189C2072.68 143.742 2070.89 220.461 2072.12 248.739C2072.28 252.537 2001.01 301.918 1990.06 309.71C1988.39 310.56 1989.34 310.403 1987.19 309.709C1985.52 274.354 1986.98 222.712 1986.99 186.094L2070.32 113.095Z"></path>
  <path fill="#A2212B" d="M1757.83 354.442C1766.85 368.16 1779.1 391.917 1787.58 407.145L1845.08 510.447C1808.68 530.526 1770.34 550.114 1733.57 569.621L1678 599.081L1668.85 582.549C1693.93 565.42 1719.85 549.592 1744.85 532.286C1746.81 530.931 1753.08 530.953 1755.45 530.953C1760.07 522.843 1754.86 378.375 1757.83 354.442Z"></path>
  <path fill="#A2212B" d="M2084.58 260.189C2088.81 263.206 2104.58 279.394 2108.91 283.744L2156.83 331.965C2150.78 335.451 2146.64 337.979 2140.16 340.62C2123.45 347.431 2085.55 338.419 2072.54 344.443C2072.34 345.33 2072.09 346.568 2071.78 347.384C2069.88 352.417 2041.34 366.855 2035.24 370.344L1986.99 398.317L1986.99 329.964L2084.58 260.189Z"></path>
  <path fill="#A2212B" d="M605.379 525.914C610.399 526.419 750.186 603.457 766.243 612.144C743.816 612 684.531 616.712 666.767 607.816C612.064 584.13 550.995 556.807 497.122 531.256C528.756 531.175 569.851 532.458 601.998 530.438C603.738 530.328 604.133 528.304 605.379 525.914Z"></path>
  <path fill="#A2212B" d="M2170.63 532.001C2176.48 530.602 2203.5 531.094 2211.22 531.108L2296 531.393C2271.14 539.792 2243.06 547.639 2217.83 555.31L2066.07 601.357C2058.84 603.697 2039.38 610.174 2032.89 610.833C2006.31 613.534 1975.31 612.184 1948.45 612.019L2170.63 532.001Z"></path>
  <path fill="#A2212B" d="M364.036 112.306C369.912 115.854 386.255 130.681 392.354 136.006L448.813 185.377L448.75 277.644C440.904 272.992 427.322 262.534 419.322 256.74L364.006 216.51L364.036 112.306Z"></path>
  <path fill="#A2212B" d="M364.11 320.226C392.02 337.338 421.14 356.982 448.813 374.942L448.813 464.912L364.006 423.689L364.11 320.226Z"></path>
  <path fill="#A2212B" d="M1051.27 448.4C1054.83 451.854 1085.99 529.491 1090.16 539.592C1082.59 544.159 1033.23 580.526 1030.02 580.757L1027.15 577.362L981.805 517.869L1051.27 448.4Z"></path>
  <path fill="#A2212B" d="M1851.76 523.661C1852.47 524.715 1856.52 530.755 1857.54 530.804C1884.4 532.111 1912.01 531.237 1938.93 531.276C1921.15 540.641 1898.18 550.201 1879.56 558.674L1771.84 607.706C1771.2 607.992 1770.56 608.267 1769.93 608.563C1753.39 616.247 1705.19 612.238 1685.22 612.112L1851.76 523.661Z"></path>
  <path fill="#A2212B" d="M361.411 232.855L448.813 296.349L448.813 357.362L429.972 345.139C409.954 332.251 384.007 316.499 365.315 302.082C357.247 295.858 336.532 274.012 328.441 265.815L361.411 232.855Z"></path>
  <path fill="#A2212B" d="M1622.25 531.509C1628.3 530.659 1646.97 531.114 1654.09 531.104L1720.15 531.228L1617.61 598.382L1596.66 612.146L1528.86 612.146C1559.8 586.472 1591.62 557.99 1622.25 531.509Z"></path>
  <path fill="#A2212B" d="M927.765 188.803C965.53 187.181 1011.28 188.606 1049.68 188.611L1095.23 365.585C1093.41 365.559 1085.95 365.433 1085.45 364.447C1079.02 351.695 1062.04 295.628 1060.35 284.591C1030.53 253.778 998.66 222.834 968.3 192.498C960.088 192.588 934.904 193.398 928.951 191.538L927.765 188.803Z"></path>
  <path fill="#A2212B" d="M2070.47 367.037C2072.84 370.989 2071.83 415.368 2071.8 423.679L1988.29 464.871C1986.01 461.679 1986.95 422.753 1986.99 415.373L2070.47 367.037Z"></path>
  <path fill="#A2212B" d="M1831.3 36.4211C1834.52 49.9525 1832.09 156.584 1832.06 178.157L1814.93 147.955L1786.16 96.981L1831.3 36.4211Z"></path>
  <path fill="#A2212B" d="M1061.01 341.969C1066.72 352.608 1091.71 437.1 1095 454.272C1095.79 458.371 1095.27 502.477 1095.19 510.472C1092.75 508.139 1062.51 437.229 1061.99 431.508C1059.59 405.057 1060.39 369.068 1061.01 341.969Z"></path>
  <path fill="#A2212B" d="M817.851 340.1C827.319 338.01 892.49 339.089 905.775 339.138L905.775 376.375L862.103 376.379C856.521 369.574 848.143 360.05 843.979 352.535C843.357 331.621 830.395 350.264 817.851 340.1Z"></path>
  <path fill="#A2212B" d="M853.64 155.313L905.774 155.282C905.995 167.597 903.656 175.938 907.265 187.217C909.386 188.727 910.991 190.08 913.007 191.774C902.473 193.195 885.033 192.543 873.954 192.498L853.64 155.313Z"></path>
  <path fill="#A2212B" d="M1456.24 500.539L1456.46 502.357C1448.07 517.917 1422.96 555.714 1409.92 565.751C1406.37 566.132 1403.57 563.243 1400.33 560.884C1397.56 558.803 1398.51 560.237 1397.02 556.981C1398.65 549.859 1406.78 537.701 1410.73 531.226L1425.5 531.208C1435.67 520.856 1445.95 510.72 1456.24 500.539Z"></path>
  <path fill="#A2212B" d="M2226.74 155.296L2281.48 155.323L2259.48 169.902L2226.74 191.59L2226.74 155.296Z"></path>
  <path fill="#A2212B" d="M2286.86 349.085L2288.34 349.635C2289.58 354.919 2289.06 370.177 2289 376.379L2237.27 376.379L2235.52 375.944L2235.5 374.569L2286.86 349.085Z"></path>
  <path fill="#A2212B" d="M2170.69 340.1C2176.87 338.555 2198.12 339.007 2205.43 339.019C2227.93 339.055 2250.76 338.977 2273.26 339.439L2257.24 347.348L2226.75 362.291L2226.73 342.955C2217.51 342.972 2175.42 343.867 2170.35 342.024L2170.69 340.1Z"></path>
  <path fill="#A2212B" d="M2306.72 188.696C2338.64 188.607 2370.62 188.378 2402.54 188.779L2387.32 197.578L2367.95 208.61L2351.53 192.498C2343.31 192.604 2311.35 193.642 2305.42 191.464L2306.72 188.696Z"></path>
  <path fill="#A2212B" d="M1152.51 459.417C1158.08 463.455 1185.05 489.183 1186.59 495.394L1183.47 496.785L1160.47 504.951C1157.52 489.723 1155.04 474.73 1152.51 459.417Z"></path>
  <path fill="#A2212B" d="M2287.42 168.993L2288.9 171.166C2290.03 194.164 2271.15 192.88 2255.85 192.496L2255.04 191.761C2257.06 188.285 2282.54 172.215 2287.42 168.993Z"></path>
  <path fill="#A2212B" d="M1353.79 531.845C1363.94 530.57 1382.76 531.209 1393.56 531.226L1386.97 542.888L1384.39 546.843C1377.65 547.969 1361.13 536.162 1353.79 531.845Z"></path>
  <path fill="#A2212B" d="M843.751 168.939C846.425 172.408 854.573 187.756 857.195 192.498C851.018 192.685 848.686 193.649 844.252 189.736C842.085 184.29 843.372 175.378 843.751 168.939Z"></path>
  <path fill="#FEFEFE" fill-opacity="0.76078433" d="M0 1.9554L1.21528 1.57617L1.19335 530.091C4.27906 530.156 9.56159 529.985 12.2738 530.857C8.70544 531.625 3.74956 531.474 0 531.559L0 1.9554Z"></path>
  <path fill="#FEFEFE" fill-opacity="0.73725492" d="M448.587 0L604.069 0L603.501 9.83531L602.35 2.30005C595.582 -0.378627 464.69 1.37234 449.755 1.36376L449.857 106.326C449.86 116.605 450.33 148.675 449.171 157.132C447.918 146.32 448.535 115.176 448.537 103.023L448.587 0Z"></path>
  <path fill="#FEFEFE" fill-opacity="0.73725492" d="M0 0L272.489 0L272.243 1.21784C183.864 3.89737 90.4381 0.115574 1.21528 1.57617L0 1.9554L0 0Z"></path>
  <path fill="#FEFEFE" fill-opacity="0.73725492" d="M1224.6 0L1425.96 0L1426.11 1.27694C1360.67 2.62296 1289.93 1.53261 1224.33 1.2447L1224.6 0Z"></path>
  <path fill="#FEFEFE" fill-opacity="0.73725492" d="M2163.39 0L2352.47 0L2352.28 1.20316C2332.07 2.09992 2307.52 1.35935 2287.04 1.36735L2163.46 1.25207L2163.39 0Z"></path>
  <path fill="#FEFEFE" fill-opacity="0.73725492" d="M780.044 0L968.98 0L969.074 1.2731C908.804 2.56097 840.545 2.01992 780.227 1.16177L780.044 0Z"></path>
  <path fill="#FEFEFE" fill-opacity="0.73725492" d="M1831.77 0L1987.2 0L1986.89 1.32489L1882.03 1.29467C1873.53 1.29246 1840.04 0.630445 1833.67 1.89858L1832.39 9.96304L1831.77 0Z"></path>
  <path fill="#FEFEFE" fill-opacity="0.96470588" d="M2444 283.813L2444 439.284L2442.95 439.543C2441.31 393.536 2442.55 330.912 2442.96 284.09L2444 283.813Z"></path>
  <path fill="#FEFEFE" fill-opacity="0.73725492" d="M1602.28 0L1732.22 0L1732.43 1.32609L1602.56 1.33423L1602.28 0Z"></path>
  <path fill="#FEFEFE" fill-opacity="0.96470588" d="M2444 91.9419L2444 189.019C2440.79 188.871 2438.52 188.314 2435.4 187.66C2437.84 186.933 2440.02 186.361 2442.49 185.76C2444.24 165.253 2442.87 114.136 2442.82 91.6223L2444 91.9419Z"></path>
</svg>
