<?xml version="1.0" encoding="UTF-8"?>
<svg xmlns="http://www.w3.org/2000/svg" xmlns:xlink="http://www.w3.org/1999/xlink" width="2492" height="1208" viewBox="0 0 2492 1208">
  <path d="M1899.98 1.00781C2060.42 0.506537 2287.44 73.3312 2405.76 186.621C2436.71 216.249 2455.99 251.694 2457.08 295.289C2458.76 362.73 2387.39 458.538 2340.92 504.514C2235.76 608.553 2084.83 687.471 1939.42 715L2492 715L2492 716.189C2487.52 732.083 2483.43 754.127 2479.91 770.568L2459.07 867.869L2428.83 883.574C2485.24 933.372 2463 1006.23 2442.74 1069.44C2433.1 1099.53 2403.06 1131.71 2374.22 1144.7C2347.35 1155.32 2311.16 1167.17 2283 1174.61C2252.06 1182.77 2190.18 1208.47 2161.67 1207.07C2157.76 1206.39 2144.68 1207.12 2140.07 1207.32C2109.48 1208.68 2074.8 1204.64 2044.64 1207.21C2034.24 1208.14 2014.75 1207.1 2003.54 1207.19C1972.72 1207.45 1941.17 1206.2 1910.36 1207.02L1881.39 1207.1C1830.81 1206.42 1779.15 1206.78 1728.49 1206.68C1731.21 1195.54 1733.71 1182.64 1736.16 1171.33L1682.83 1206.68L1281 1206.68L1250.09 1112.87L1230.17 1206.68L499.798 1206.67L284.26 1206.68L221.161 1206.73C203.069 1206.77 186.226 1208.11 168.716 1202.87C154.781 1198.7 140.403 1194.85 126.366 1191.01L0.561654 1156.57C7.58189 1129.51 14.1548 1093.77 20.1285 1065.94L56.6756 895.104L116.146 895.104C98.926 885.454 80.3919 875.901 62.9204 866.523L95.5156 715L147.096 715C137.524 708.602 127.142 700.768 117.713 693.981C119.632 686.185 121.296 677.946 122.913 670.049C134.145 615.211 147.257 560.483 157.99 505.568C134.533 494.338 112.637 483.463 89.9495 470.755C198.166 480.958 316.444 472.319 417.486 430.869C477.366 406.304 533.253 372.837 589.545 340.905C682.203 288.345 774.272 254.288 880.316 240.37C775.618 184.549 704.053 213.061 622.345 292.076C636.66 256.58 670.971 207.991 698.371 181.141C773.988 107.042 894.456 130.87 986.011 155.918C1039.7 170.606 1093.61 191.34 1148.76 197.463C1277.9 211.796 1384.66 164.462 1495.18 105.252C1528.73 87.279 1573.76 64.5544 1608.72 49.8641C1677.71 20.8754 1782.18 0.68751 1857.04 1.01282C1870.31 1.0408 1886.98 1.54426 1899.98 1.00781Z"></path>
  <path fill="white" d="M1895.95 194.085C1911.29 193.909 1926.84 194.085 1942.2 194.146C1939.24 210.645 1938.16 236.185 1937.65 253.058L1972.07 252.581C1972.99 232.327 1974.43 215.221 1976.67 195.127C1990.61 196.198 2005.3 196.775 2019.38 197.703C2016.77 216.413 2015.42 233.892 2013.96 252.727L2048.87 253.221C2049.33 236.894 2051.56 216.712 2054.02 200.663C2109.32 203.5 2172.02 215.359 2227.1 224.551C2258.3 229.758 2379.9 249.647 2396.68 275.074C2398.38 277.647 2399.34 280.387 2398.61 283.472C2392.77 307.834 2278.67 375.82 2254.89 390.113C2229.09 351.591 2221.17 309.749 2221.24 264.167C2184.23 262.99 2139.65 257.94 2101.66 255.593C2090.96 372.267 2158.38 476.674 2275.84 499.738C2219.14 543.391 2155.34 580.111 2088.38 606.197C1996.48 641.996 1888.43 660.7 1790.11 647.286C1774.18 645.112 1747.48 639.816 1732.89 633.45C1831.83 647.826 1937.53 633.545 2032.24 603.412C2103.79 579.217 2157.78 553.092 2220.94 511.385C2190.54 498.304 2161.27 477.343 2138.04 453.851C2027.24 507.05 1882.81 554.735 1758.23 553.756C1704.54 553.334 1640.92 539.291 1603.16 498.579C1561.31 453.45 1556.6 399.859 1558.14 341.719C1528.54 374.837 1490.48 399.993 1449.06 415.713C1451.89 393.669 1454.9 381.997 1462.6 360.799C1472.09 334.646 1501.67 282.849 1528.1 271.215C1523.45 291.72 1521.32 307.057 1518.74 327.756C1530.54 322.664 1543.42 318.037 1555.5 313.471C1557.91 297.353 1564.26 267.278 1569.48 252.221C1582.66 246.886 1594.92 242.528 1608.33 237.847C1603.93 258.039 1600.96 279.638 1599.62 300.249C1610.78 297.026 1623.42 294.206 1634.79 291.417C1637.73 267.938 1640.14 249.958 1645.51 226.702C1660.36 222.819 1674.25 219.412 1689.24 216.128C1685.03 237.534 1683.2 258.193 1682.94 279.956C1694.49 277.566 1706.14 275.569 1717.75 273.509C1719.05 253.214 1723.08 228.912 1726.48 208.981C1740.03 206.364 1758.17 203.996 1771.84 202.515C1768.47 224.184 1767.31 244.268 1766.38 266.091C1778.22 264.211 1790.93 263.05 1802.9 261.754C1803.05 241.943 1805.37 218.074 1807.87 198.504C1825.46 197.074 1843.25 196.102 1860.88 195.02C1857.9 212.827 1856.51 239.118 1855.95 257.117C1867.64 256.167 1879.06 255.53 1890.75 254.909C1891 235.223 1893.14 213.53 1895.95 194.085Z"></path>
  <path fill="red" d="M1527.02 138.059C1527.28 138.323 1527.46 139.267 1527.59 139.724C1510.15 181.479 1477.46 241.474 1445.92 273.142C1426.09 291.755 1400.96 308.766 1376.56 320.51C1179.82 415.22 953.496 347.137 748.879 407.511C724.348 414.749 687.74 427.28 666.603 441.311C815.358 406.532 933.391 398.147 1083.9 433.379C1145.09 447.701 1214.11 466.088 1275.68 474.659C1375.81 488.599 1437.33 481.649 1518.89 420.312C1489.36 480.047 1434.33 533.098 1369.35 550.407C1306.36 567.182 1265.04 563.313 1222.87 620.586C1227.69 598.077 1233.98 573.341 1235.24 550.517C1237.56 508.354 1196.07 506.027 1164.77 504.847C1144.64 504.088 1124.11 504.155 1103.66 504.146L975.5 504.178L624.431 504.19L512.167 504.202C493.983 504.21 467.26 505.017 449.616 503.655C514.575 485.848 563.765 458.2 622.601 426.773C715.94 376.918 803.068 333.895 910.103 326.466C1007.46 319.708 1130.82 335.086 1217.26 283.503C1102.68 290.049 1018.9 238.066 916.787 196.583C861.024 173.929 815.306 160.759 758.432 185.325C826.384 123.095 1050.08 230.083 1139.48 237.531C1280.46 249.278 1408.98 214.075 1527.02 138.059Z"></path>
  <path fill="red" d="M572.708 744.426C577.159 743.934 582.684 743.977 587.192 744.016C608.592 744.199 631.045 743.641 652.283 743.967C723.077 745.052 815.756 728.809 796.702 835.61C787.423 886.58 774.119 937.953 764.298 988.708C750.561 1059.7 729.561 1109.07 649.18 1114.12C619.296 1116.85 583.529 1114.47 553.65 1114.87C487.156 1115.66 404.618 1122.38 422.259 1025.89C433.31 965.441 447.865 904.862 460.595 844.83C474.291 780.24 506.686 749.47 572.708 744.426Z"></path>
  <path d="M585.292 816.263C615.306 814.006 651.2 816.853 681.81 816.446C698.346 816.227 705.554 829.178 702.303 844.753C690.676 900.438 678.727 956.375 666.437 1011.94C662.28 1030.77 653.78 1039.34 634.679 1042.46C604.626 1044.75 568.989 1041.87 538.407 1042.42C523.361 1042.69 513.597 1031.56 516.725 1016.15C528.183 959.72 540.595 903.145 552.933 846.875C557.195 827.492 565.776 819.379 585.292 816.263Z"></path>
  <path fill="red" d="M2249.58 749.412C2271.89 748.643 2296.65 749.114 2319.15 749.115L2439.83 749.141L2424.47 821.212L2269.56 821.046C2234.55 821.13 2225.81 839.725 2223.45 872.729C2221.82 895.59 2249.58 893.514 2265.7 893.453L2316.06 893.261C2344.93 893.168 2384.57 890.883 2406.88 912.487C2429.61 935.424 2422.39 971.806 2416.57 999.801C2410.49 1029.32 2402.67 1059.84 2380.6 1081.79C2350.78 1111.45 2311.43 1111.21 2272.5 1111.07C2211.86 1111.11 2143.49 1114.24 2084.47 1104.45C2089.53 1083.82 2094.4 1059.42 2098.6 1038.56L2229.07 1038.55C2250.47 1038.55 2272.12 1038.78 2293.47 1038.16C2323.33 1037.29 2325.26 993.713 2330.03 970.633L2246.73 970.689C2164.06 970.748 2109.49 969.247 2131.39 864.186C2146.57 791.401 2171.19 754.745 2249.58 749.412Z"></path>
  <path fill="red" d="M129.432 749.141L281.587 749.095C383.629 749.085 456.179 737.973 422.14 873.008C407.335 931.741 403.661 976.767 336.376 996.444L376.438 1109.63L275.965 1109.63C265.675 1075.16 251.573 1036.2 240.08 1001.44L170.188 1001.44C169.45 1001.55 168.714 1002.1 167.974 1002.52C165.597 1009.73 161.968 1029.25 160.106 1037.95L144.647 1109.63L52.1473 1109.63C63.6884 1050.18 78.4173 988.993 90.6347 929.323L224.261 929.357C308.419 929.368 319.145 942.489 332.995 856.005C335.392 841.032 337.722 823.723 316.999 821.936C294.767 820.018 272.016 821.241 250.16 821.255L113.961 821.212L129.432 749.141Z"></path>
  <path fill="red" d="M1396.97 749.141L1494.88 749.141C1479.63 767.174 1462.54 790.294 1447.6 809.377L1355.67 926.904C1369.36 965.418 1382.41 1006.8 1395.44 1045.75C1402.39 1063.54 1410.63 1091.01 1416.98 1109.63L1318.98 1109.63C1304.17 1061.56 1286.57 1010.94 1270.79 962.923L1224.47 962.923C1213.22 1009.27 1203.01 1062.54 1192.91 1109.63L1100.18 1109.63L1177.48 749.141L1270.35 749.141C1259.64 791.412 1249.16 847.407 1239.84 890.862L1286.02 890.862C1297.79 876.975 1311.85 857.937 1323.38 843.202L1396.97 749.141Z"></path>
  <path fill="red" d="M1864.89 31.4375C1875.71 30.4446 1897.47 30.7724 1908.53 30.945C2000.42 32.3791 2087.34 49.7852 2173.92 79.5268C2144.83 108.685 2126.9 145.432 2114.79 184.335C2097.07 181.241 2076.52 179.197 2058.41 176.799C2062.97 158.587 2067.73 143.983 2073.86 126.425C2062.07 124.625 2050.75 122.95 2038.88 121.555C2032.63 139.773 2028.25 154.563 2023.88 173.271L1980.73 169.834C1984.51 150.82 1988.69 134.783 1993.98 116.24C1982.15 115.304 1970.55 114.416 1958.68 113.786C1953.32 132.783 1949.65 148.546 1946.04 167.907C1932.33 166.722 1914.43 166.662 1900.36 166.265C1904.09 147.889 1908.08 130.028 1912.29 111.75C1900.27 111.389 1888.69 111.416 1876.68 111.475C1872.73 129.291 1868.34 148.288 1865.46 166.218L1812.7 168.176C1816.94 148.45 1820.9 132.2 1826.89 112.933C1815.47 113.973 1803.93 114.757 1792.49 115.613C1786.1 134.414 1781.9 151.712 1777.31 170.944C1773.35 171.491 1769.12 171.888 1765.12 172.333C1754.66 173.584 1744.15 175.049 1733.7 176.443C1739.22 155.718 1744.5 140.367 1751.86 120.466C1739.51 121.925 1727.85 123.932 1715.64 126.172C1707.81 144.344 1702.04 163.583 1696.62 182.589C1682.55 185.625 1668.87 188.762 1654.88 192.136C1660.29 173.464 1668.39 152.62 1675.15 134.395C1663.23 137.306 1652.53 139.978 1640.75 143.577C1630.46 164.021 1623.8 181.213 1617.18 203.117C1604.32 207.272 1593.31 211.227 1580.7 216.082C1588.23 194.686 1595.42 177.954 1604.81 157.26L1572.8 168.108C1558.85 189.559 1549 210.527 1539.65 234.128L1486.71 257.975C1501.05 217.391 1526.22 171.595 1554.68 139.423C1576.32 114.965 1599.48 101.809 1628.39 87.659C1703.59 50.8529 1781.92 35.7631 1864.89 31.4375Z"></path>
  <path fill="red" d="M941.501 749.41C964.129 748.616 989.45 749.117 1012.28 749.117L1136.58 749.141C1131.26 768.773 1125.39 800.565 1120.97 821.212L1005.59 821.178C923.228 821.15 927.032 812.775 909.489 894.52L892.104 976.868C889.411 990.208 884.808 1006.03 883.042 1020.05C878.83 1053.47 934.33 1038.53 953.816 1041.74C956.783 1042.23 982.203 1041.9 985.603 1041.31C1005.83 1037.83 1022.02 1037.09 1042.5 1037.17L1074.72 1037.17C1069.66 1059.22 1064.73 1082.44 1060.28 1104.6C1011.22 1112.72 970.89 1111.22 921.554 1111.12C855.796 1110.98 771.929 1122.47 789.477 1024.16C799.492 973.423 810.962 922.923 821.653 872.319C827.789 843.276 833.033 815.985 850.663 791.32C872.986 760.09 905.166 751.826 941.501 749.41Z"></path>
  <path fill="red" d="M1831.28 749.141L2139.95 749.141L2124.48 821.212L2016.52 821.212C2011.7 840.689 2007.35 863.525 2003.1 883.36L1973.67 1019.87C1968.47 1048.28 1960.72 1081.16 1954.41 1109.63L1861.86 1109.63L1923.85 821.212L1815.5 821.212C1821.4 798.932 1825.73 772.282 1831.28 749.141Z"></path>
  <path fill="red" d="M1455.23 1037.49L1740.79 1037.49L1725.19 1109.63L1439.36 1109.63C1445.14 1086.33 1449.05 1060.39 1455.23 1037.49Z"></path>
  <path fill="red" d="M1516.78 749.141L1802.69 749.141C1797.13 772.696 1792.22 797.47 1787.17 821.212L1501.28 821.212C1506.79 797.61 1511.71 772.909 1516.78 749.141Z"></path>
  <path fill="red" d="M1486.46 890.863L1770.34 890.863C1764.66 914.276 1760.2 939.153 1754.65 962.923L1470.98 962.923L1486.46 890.863Z"></path>
  <path fill="red" d="M1105.53 529.28C1119.8 527.791 1160.78 527.731 1174.39 529.439C1179.93 530.134 1186.05 531.468 1190.76 534.608C1195.56 537.813 1198.65 543.329 1199.66 548.938C1202.37 563.899 1183.67 648.346 1174.22 661.212C1166.3 671.998 1155.01 675.692 1142.35 677.677C1121.8 679.791 1095.04 677.487 1074.13 677.562C1053.14 678.469 1043.14 657.086 1049.17 639.296C1063.09 598.266 1052.45 537.408 1105.53 529.28Z"></path>
  <path d="M1110.86 558.159C1116.04 557.913 1156.19 555.756 1159.77 561.377C1162.08 566.888 1159.61 581.578 1157.72 586.911C1151.61 604.124 1152.53 639.359 1137.21 648.777C1131.53 649.162 1091.8 651.097 1088.27 645.592C1085.8 639.199 1089.06 622.046 1091.17 615.947C1097 599.048 1095.76 567.551 1110.86 558.159Z"></path>
  <path fill="red" d="M173.265 530.989L230.354 530.861C241.372 530.841 252.373 530.344 263.252 531.647C308.274 536.843 289.791 583.896 284.208 612.748C279.617 636.475 275.792 654.021 254.52 668.391C236.281 677.972 217.09 676.12 197.179 676.074L142.107 675.977L173.265 530.989Z"></path>
  <path d="M204.363 559.986C216.089 560.042 243.013 557.399 251.46 563.775C258.299 568.938 249.373 602.688 247.649 609.717C244.562 622.31 243.939 636.004 233.243 644.251C221.37 648.663 199.069 647.121 185.443 646.98C192.245 621.095 198.387 586.976 204.363 559.986Z"></path>
  <path fill="red" d="M881.744 530.986C902.47 531.005 974.799 528.022 989.196 534.58C994.869 537.164 999.317 541.417 1001.47 547.331C1006.66 561.641 997.727 595.516 991.331 608.992C985.7 620.854 977.176 626.311 965.237 630.619L981.128 675.977L942.872 675.977L941.738 675.764C939.032 673.195 928.195 638.389 926.233 632.417L897.511 632.417C894.132 644.751 890.806 663.07 888.065 675.977L850.603 675.977C854.464 660.805 858.021 641.904 861.359 626.364L881.744 530.986Z"></path>
  <path d="M912.816 559.986C920.132 559.963 957.427 558.24 962.038 562.686C967.649 568.095 960.508 594.784 953.922 601.54C945.823 604.771 913.956 603.534 903.364 603.444C906.745 591.082 910.061 572.907 912.816 559.986Z"></path>
  <path fill="red" d="M690.83 530.986L751.667 530.87C801.491 530.831 821.232 529.009 807.698 586.371C797.084 631.355 782.88 634.697 740.5 634.556L705.927 634.556L697.194 675.977L659.734 675.977C670.821 629.935 680.916 577.545 690.83 530.986Z"></path>
  <path d="M721.904 559.986C731.49 560.13 762.875 557.007 770.131 562.858C777.485 568.789 769.245 596.453 762.718 603.486C753.826 606.996 723.42 605.647 712.203 605.556L721.904 559.986Z"></path>
  <path fill="red" d="M361.561 530.986L401.138 530.986C410.344 558.503 421.98 590.601 432.17 617.696L450.643 530.986L488.035 530.986L456.872 675.977L417.653 675.977L386.686 589.279C380.155 612.997 373.172 651.041 367.815 675.977L330.452 675.977C334.618 659.956 338.44 639.35 341.974 622.913L361.561 530.986Z"></path>
  <path fill="red" d="M2269.11 120.542L2269.96 120.917C2314.44 140.883 2379.6 192.47 2409.07 231.46C2416.95 241.893 2422 252.716 2426.56 264.867L2426.2 264.533C2416.72 255.755 2412.74 253.733 2401.35 248.255C2363.59 228.353 2273.15 209.997 2230.53 201.493C2239.78 169.458 2249.39 147.585 2269.11 120.542Z"></path>
  <path fill="white" d="M929.795 235.8C947.055 239.885 1014.54 277.733 1031.75 287.485C929.379 277.026 804.968 297 712.523 342.393C577.449 408.718 468.25 486.756 313.27 503.601C302.57 505.726 268.571 506.328 257.464 504.942C260.652 503.643 268.821 503.49 272.608 503.062C334.3 496.093 393.012 479.515 451.381 458.193C524.444 431.504 592.603 392.118 661.081 355.218C756.201 303.96 862.371 272.539 971.121 272.972C960.321 257.356 945.134 246.437 929.795 235.8Z"></path>
  <path fill="red" d="M553.066 530.986L627.682 530.986L621.42 559.986L602.645 559.986C597.718 587.402 590.012 619.367 584.101 646.98L602.683 646.98L596.549 675.977L521.944 675.977L528.227 646.98L546.748 646.98C553.514 618.838 559.176 588.56 565.612 559.986L546.774 559.986L553.066 530.986Z"></path>
  <path fill="white" d="M2428.35 276.693C2441.95 319.667 2361.62 418.897 2333.15 449.195C2328.39 447.76 2323.49 445.792 2318.82 444.017C2316.19 442.871 2315.88 442.87 2314.11 440.731C2315.24 438.254 2335.08 419.037 2338.35 415.495C2374.58 376.213 2416.39 329.85 2428.35 276.693Z"></path>
  <path d="M1910.36 1207.02C1941.17 1206.2 1972.72 1207.45 2003.54 1207.19C2014.75 1207.1 2034.24 1208.14 2044.64 1207.21L2044.84 1208L1910.16 1208L1910.36 1207.02Z"></path>
  <path d="M2044.64 1207.21C2074.8 1204.64 2109.48 1208.68 2140.07 1207.32C2144.68 1207.12 2157.76 1206.39 2161.67 1207.07L2161.88 1208L2044.84 1208L2044.64 1207.21Z"></path>
  <path d="M1857.37 0L1899.66 0L1899.98 1.00781C1886.98 1.54426 1870.31 1.0408 1857.04 1.01282L1857.37 0Z"></path>
  <path d="M1881.39 1207.1L1910.36 1207.02L1910.16 1208L1881.16 1208L1881.39 1207.1Z"></path>
</svg>
