<?xml version="1.0" encoding="UTF-8" standalone="no"?>
<svg xmlns="http://www.w3.org/2000/svg" version="1.2" viewBox="0 0 1080 1074">
  <g stroke-width="2.00" fill="none" stroke-linecap="butt">
    <path stroke="#808080" vector-effect="non-scaling-stroke" d="   M 758.70 282.51   C 791.07 256.77 795.18 202.71 791.30 164.60   Q 791.25 164.09 790.88 164.44   C 767.86 186.05 735.93 203.08 708.53 216.26   Q 708.09 216.48 708.28 216.02   C 720.72 186.52 721.96 153.15 718.34 121.74   Q 713.43 79.14 699.62 38.50   Q 699.46 38.03 699.22 38.47   C 686.48 61.76 669.97 81.79 651.33 100.83   C 585.66 167.92 504.03 214.06 413.78 239.07   C 366.65 252.13 320.95 267.06 276.63 287.94   C 252.24 299.43 228.08 313.02 207.79 331.02   A 0.27 0.27 0.0 0 0 208.04 331.48   Q 229.71 325.19 252.29 324.92   A 0.30 0.30 0.0 0 1 252.47 325.46   C 183.44 374.20 130.83 445.18 126.82 532.46   C 125.05 570.99 131.80 613.97 148.94 649.26   Q 149.16 649.71 149.14 649.21   C 148.09 611.67 160.19 572.64 176.09 538.98   A 0.22 0.22 0.0 0 1 176.51 539.06   Q 179.54 593.47 192.87 646.30   Q 193.05 646.99 192.41 646.67   L 172.86 637.08   A 0.37 0.36 16.3 0 0 172.34 637.36   Q 172.14 638.91 172.22 640.53   Q 175.12 696.79 177.65 753.28   A 0.33 0.33 0.0 0 1 177.17 753.59   L 15.50 674.53   A 0.40 0.40 0.0 0 0 14.93 674.92   L 33.61 969.91   A 0.36 0.36 0.0 0 0 33.97 970.25   L 516.23 970.25   A 1.45 1.39 62.2 0 1 517.07 970.53   Q 517.70 970.99 518.29 971.48   Q 566.58 1011.95 623.25 1039.52   Q 629.55 1042.58 638.31 1046.01   Q 638.77 1046.19 638.53 1045.75   C 625.48 1021.33 614.29 997.32 606.14 970.88   A 0.48 0.48 0.0 0 1 606.60 970.25   Q 770.35 970.26 933.95 970.24   Q 945.87 970.24 951.81 968.82   C 970.75 964.31 986.33 948.75 990.92 930.18   Q 993.79 918.55 999.42 889.97   C 1002.27 875.52 1002.70 865.86 996.21 853.77   A 0.35 0.35 0.0 0 1 996.52 853.25   L 1007.00 853.25   A 0.57 0.56 -83.6 0 0 1007.55 852.81   L 1026.16 762.24   A 0.41 0.41 0.0 0 0 1025.76 761.75   L 849.21 761.75   A 0.46 0.45 5.7 0 1 848.76 761.21   L 868.48 667.48   A 0.93 0.93 0.0 0 1 869.14 666.78   C 915.57 653.70 958.71 628.71 985.10 587.02   A 1.79 1.75 -86.3 0 1 985.82 586.37   C 1033.10 563.22 1057.37 512.83 1063.23 462.76   A 0.40 0.40 0.0 0 0 1062.96 462.34   Q 979.34 433.23 896.34 402.47   C 873.36 393.95 855.53 384.75 842.40 363.08   Q 830.64 343.66 827.04 337.95   Q 802.39 298.74 758.78 282.98   Q 758.31 282.81 758.70 282.51"></path>
    <path stroke="#494949" vector-effect="non-scaling-stroke" d="   M 441.50 297.54   Q 441.21 297.69 440.92 297.65   Q 440.39 297.57 440.84 297.28   C 469.26 279.05 499.80 255.19 520.71 226.19   A 0.31 0.31 0.0 0 0 520.31 225.73   C 495.60 239.23 474.61 248.49 443.52 260.28   Q 415.96 270.72 384.37 290.40   C 330.87 323.74 286.02 375.01 277.99 439.76   Q 273.75 473.95 286.70 505.03   Q 286.89 505.49 286.50 505.19   C 258.36 483.33 234.64 453.60 223.94 419.20"></path>
    <path stroke="#808080" vector-effect="non-scaling-stroke" d="   M 223.94 419.20   L 223.66 417.30   A 0.08 0.08 0.0 0 0 223.56 417.23   L 223.25 417.32   A 0.57 0.55 -87.4 0 0 222.90 417.65   C 192.94 495.05 210.23 587.39 242.68 660.91   A 0.80 0.79 78.1 0 0 243.41 661.39   L 355.39 661.27   A 0.67 0.67 0.0 0 0 356.04 660.77   C 366.73 617.89 380.72 575.67 402.04 536.80   Q 420.46 503.23 449.97 471.61   Q 450.36 471.19 449.79 471.09   Q 449.24 470.99 448.87 471.43"></path>
    <path stroke="#494949" vector-effect="non-scaling-stroke" d="   M 448.87 471.43   Q 432.18 471.13 413.51 475.28   Q 389.02 480.72 371.85 486.13   Q 371.37 486.28 371.68 485.89   C 399.51 451.35 433.23 417.41 474.50 400.04"></path>
    <path stroke="#808080" vector-effect="non-scaling-stroke" d="   M 474.50 400.04   C 513.88 384.82 557.39 387.36 598.48 392.04   Q 598.97 392.09 598.49 392.22   C 548.51 405.16 500.53 437.17 484.16 488.55   A 0.37 0.36 -11.0 0 0 484.74 488.94   C 580.42 410.45 703.72 434.45 799.92 495.60   C 826.44 512.47 850.59 529.33 880.59 542.11   C 912.18 555.56 950.74 561.43 977.78 534.80   C 987.96 524.78 1003.00 501.40 999.63 485.85   C 994.56 462.48 948.42 444.15 927.97 440.64   C 902.10 436.20 875.25 440.54 851.28 451.08   Q 845.42 453.66 839.45 456.21   Q 839.00 456.40 839.29 456.01   Q 849.46 441.95 862.96 431.02   Q 863.57 430.53 862.79 430.63   C 820.19 436.38 776.39 437.34 733.73 431.51   A 0.19 0.18 -50.0 0 1 733.70 431.15   Q 768.49 419.44 801.01 402.44   Q 801.69 402.09 800.93 402.15   L 796.81 402.47"></path>
    <path stroke="#494949" vector-effect="non-scaling-stroke" d="   M 796.81 402.47   Q 780.77 401.67 764.87 400.53   C 740.16 398.76 716.47 389.61 698.59 372.16   C 685.87 359.74 675.21 349.61 658.58 343.76   Q 655.75 342.76 652.27 342.76   C 624.26 342.79 593.82 338.46 568.98 324.67   A 0.18 0.17 62.4 0 1 569.08 324.34   C 602.73 328.14 636.81 327.99 670.34 323.31   C 713.59 317.27 758.22 306.26 791.66 344.16   A 0.30 0.30 0.0 0 0 792.15 343.83   C 782.31 322.98 768.07 312.00 747.86 302.75   C 729.42 294.32 711.19 292.08 690.06 293.22   Q 651.23 295.32 613.59 305.46   A 0.29 0.29 0.0 0 1 613.32 304.97   Q 627.86 291.85 639.46 276.00"></path>
    <path stroke="#808080" vector-effect="non-scaling-stroke" d="   M 639.46 276.00   C 674.89 231.99 690.61 172.98 690.08 117.21   A 0.25 0.25 0.0 0 0 689.64 117.06   C 622.91 196.49 535.98 255.90 441.50 297.54"></path>
    <path stroke="#c8c8c8" vector-effect="non-scaling-stroke" d="   M 639.46 276.00   C 619.97 282.06 601.35 287.45 580.97 290.60   A 0.29 0.28 -66.6 0 1 580.77 290.08   C 594.95 280.08 610.92 266.49 620.52 251.75   Q 620.80 251.34 620.33 251.51   Q 592.71 261.77 562.56 269.58   C 550.60 272.68 442.20 299.47 441.50 297.54"></path>
    <path stroke="#c8c8c8" vector-effect="non-scaling-stroke" d="   M 796.81 402.47   Q 785.45 405.98 770.50 407.72   C 736.85 411.63 703.81 408.21 673.37 394.04   C 664.89 390.10 654.32 383.63 644.72 378.57   C 594.16 351.92 541.08 353.04 493.19 385.19   Q 482.12 392.62 474.50 400.04"></path>
    <path stroke="#c8c8c8" vector-effect="non-scaling-stroke" d="   M 448.87 471.43   C 377.78 511.59 330.97 580.29 298.61 653.27   A 0.39 0.39 0.0 0 1 297.95 653.36   C 245.77 590.37 222.23 501.39 223.42 420.88   C 223.43 420.20 223.69 419.84 223.94 419.20"></path>
    <path stroke="#494949" vector-effect="non-scaling-stroke" d="   M 715.75 266.11   Q 730.80 266.54 744.96 271.55   A 0.91 0.91 0.0 0 0 745.89 271.34   C 760.44 257.27 770.29 237.86 772.51 217.74   A 0.25 0.25 0.0 0 0 772.08 217.54   Q 745.87 243.96 715.59 265.58   A 0.29 0.29 0.0 0 0 715.75 266.11"></path>
    <path stroke="#6b0000" vector-effect="non-scaling-stroke" d="   M 679.14 340.72   Q 694.97 345.44 706.80 356.96   C 711.76 361.79 719.55 369.59 725.66 373.33   C 740.02 382.12 756.23 380.19 771.52 374.01   A 0.76 0.75 71.2 0 0 771.96 373.10   C 763.09 342.07 739.65 338.32 711.24 337.77   C 701.24 337.58 689.44 338.80 678.59 339.67   A 0.35 0.35 0.0 0 0 678.36 340.25   Q 678.66 340.58 679.14 340.72"></path>
    <path stroke="#808080" vector-effect="non-scaling-stroke" d="   M 544.60 502.48   L 544.73 501.87   Q 544.85 501.26 544.28 501.52   C 480.02 531.36 430.87 588.70 423.29 660.74   A 0.48 0.47 -87.2 0 0 423.76 661.27   L 487.27 661.53"></path>
    <path stroke="#494949" vector-effect="non-scaling-stroke" d="   M 487.27 661.53   Q 488.37 661.24 490.75 661.26   Q 529.31 661.61 567.67 661.41"></path>
    <path stroke="#808080" vector-effect="non-scaling-stroke" d="   M 567.67 661.41   L 589.25 661.29"></path>
    <path stroke="#494949" vector-effect="non-scaling-stroke" d="   M 589.25 661.29   L 637.50 661.46"></path>
    <path stroke="#808080" vector-effect="non-scaling-stroke" d="   M 637.50 661.46   L 656.00 661.27   A 0.61 0.61 0.0 0 0 656.60 660.78   C 660.74 640.94 667.26 621.91 677.86 604.69   Q 678.15 604.22 677.60 604.25   L 676.50 604.29"></path>
    <path stroke="#494949" vector-effect="non-scaling-stroke" d="   M 676.50 604.29   C 664.59 603.62 650.23 609.14 639.72 614.66   A 0.31 0.31 0.0 0 1 639.31 614.21   C 667.79 571.65 728.70 556.27 776.52 558.34   C 823.58 560.38 860.37 582.88 881.27 625.40   C 882.71 628.34 884.30 632.54 886.06 636.01   A 0.56 0.56 0.0 0 0 886.76 636.28   C 912.75 626.38 942.95 612.42 955.20 585.65   A 0.40 0.39 -74.4 0 0 954.89 585.09   C 917.01 580.99 882.45 566.38 849.10 549.60   Q 837.03 543.53 830.99 541.16   C 782.58 522.12 727.36 527.26 680.73 549.19   A 0.39 0.39 0.0 0 1 680.18 548.91   C 675.68 523.39 675.37 491.04 691.36 468.74   A 0.34 0.34 0.0 0 0 691.17 468.21   C 669.91 462.62 645.42 461.59 624.33 468.23   C 582.23 481.48 563.90 519.88 549.13 557.26   Q 548.95 557.72 548.81 557.24   C 543.89 539.36 542.13 520.84 544.60 502.48"></path>
    <path stroke="#c8c8c8" vector-effect="non-scaling-stroke" d="   M 676.50 604.29   L 676.61 604.93   A 1.04 1.00 63.2 0 1 676.34 605.80   Q 652.46 630.50 637.50 661.46"></path>
    <path stroke="#c8c8c8" vector-effect="non-scaling-stroke" d="   M 589.25 661.29   L 586.37 638.52   A 0.36 0.36 0.0 0 0 585.75 638.32   Q 575.68 649.14 567.67 661.41"></path>
    <path stroke="#c8c8c8" vector-effect="non-scaling-stroke" d="   M 487.27 661.53   Q 487.84 609.03 507.11 560.76   C 514.97 541.08 525.75 523.35 539.53 507.05   Q 541.94 504.20 544.60 502.48"></path>
    <path stroke="#808080" vector-effect="non-scaling-stroke" d="   M 721.43 479.32   C 704.95 489.57 696.40 511.40 695.84 529.97   A 0.28 0.28 0.0 0 0 696.25 530.23   Q 708.30 524.30 721.13 520.36   A 0.61 0.60 77.9 0 0 721.55 519.71   Q 719.34 499.69 722.05 479.72   A 0.41 0.41 0.0 0 0 721.43 479.32"></path>
    <path stroke="#808080" vector-effect="non-scaling-stroke" d="   M 766.18 494.18   Q 752.54 487.32 738.31 481.75   A 0.58 0.57 24.8 0 0 737.59 482.01   Q 728.85 498.63 730.49 517.45   A 0.36 0.36 0.0 0 0 730.95 517.76   Q 751.96 511.27 766.27 494.62   A 0.28 0.28 0.0 0 0 766.18 494.18"></path>
    <path stroke="#808080" vector-effect="non-scaling-stroke" d="   M 760.19 514.20   C 773.42 514.37 786.70 515.02 799.56 515.36   Q 801.46 515.41 799.93 514.26   Q 791.04 507.63 781.32 502.24   A 0.83 0.81 44.4 0 0 780.51 502.24   L 760.11 513.92   Q 759.63 514.20 760.19 514.20"></path>
    <path stroke="#808080" vector-effect="non-scaling-stroke" d="   M 713.99 661.27   C 763.14 661.02 812.27 661.68 861.44 661.12   A 0.59 0.59 0.0 0 0 862.01 660.61   C 866.18 628.92 847.11 608.65 817.76 601.76   C 770.46 590.65 723.54 609.23 713.59 660.79   A 0.40 0.40 0.0 0 0 713.99 661.27"></path>
    <path stroke="#6b0000" vector-effect="non-scaling-stroke" d="   M 220.75 731.42   A 0.30 0.30 0.0 0 1 220.18 731.30   L 217.48 683.38   A 0.30 0.30 0.0 0 0 217.31 683.12   L 196.19 672.80   A 0.30 0.30 0.0 0 0 195.75 673.09   L 199.43 748.85   A 0.30 0.30 0.0 0 0 199.59 749.10   L 216.45 758.38   A 0.30 0.30 0.0 0 0 216.87 758.25   L 252.83 683.71   A 0.30 0.30 0.0 0 0 252.57 683.28   L 244.25 683.20   A 0.30 0.30 0.0 0 0 243.98 683.37   L 220.75 731.42"></path>
    <path stroke="#6b0000" vector-effect="non-scaling-stroke" d="   M 344.95 708.97   L 351.05 748.56   A 0.52 0.52 0.0 0 0 351.56 749.00   L 372.51 749.00   A 0.73 0.72 5.9 0 0 373.22 748.43   L 386.88 683.68   A 0.37 0.36 6.3 0 0 386.52 683.24   L 365.50 683.24   A 0.55 0.54 5.8 0 0 364.96 683.67   L 356.59 723.31   A 0.25 0.24 -43.5 0 1 356.11 723.30   L 350.06 683.74   A 0.57 0.56 -4.1 0 0 349.50 683.26   L 328.41 683.23   A 0.44 0.44 0.0 0 0 327.98 683.57   L 314.25 748.45   A 0.46 0.45 6.1 0 0 314.70 749.00   L 335.52 749.00   A 0.74 0.74 0.0 0 0 336.24 748.42   L 344.58 708.96   Q 344.79 707.94 344.95 708.97"></path>
    <path stroke="#6b0000" vector-effect="non-scaling-stroke" d="   M 431.14 708.82   L 437.21 748.64   A 0.43 0.42 -4.8 0 0 437.63 748.99   L 458.71 749.00   A 0.69 0.69 0.0 0 0 459.38 748.46   L 473.01 684.04   A 0.68 0.68 0.0 0 0 472.35 683.22   L 451.74 683.26   A 0.66 0.65 -84.0 0 0 451.10 683.78   L 442.70 723.45   A 0.21 0.20 47.2 0 1 442.30 723.43   L 436.25 683.79   A 0.66 0.65 -4.0 0 0 435.60 683.23   L 414.70 683.26   A 0.58 0.57 -83.7 0 0 414.14 683.72   L 400.46 748.35   A 0.53 0.52 -83.8 0 0 400.97 748.99   L 421.72 749.01   A 0.70 0.70 0.0 0 0 422.40 748.46   L 430.81 708.81   A 0.17 0.17 0.0 0 1 431.14 708.82"></path>
    <path stroke="#6b0000" vector-effect="non-scaling-stroke" d="   M 527.10 716.35   L 521.14 683.73   A 0.59 0.59 0.0 0 0 520.56 683.25   L 499.98 683.25   A 0.76 0.76 0.0 0 0 499.23 684.14   Q 503.07 705.29 506.80 725.24   C 507.96 731.49 504.50 742.23 503.03 748.59   A 0.55 0.55 0.0 0 0 503.33 749.20   L 522.04 758.24   A 0.64 0.64 0.0 0 0 522.95 757.80   Q 525.81 744.69 528.52 731.60   Q 529.13 728.65 530.69 726.08   Q 543.43 704.98 556.27 683.76   A 0.34 0.34 0.0 0 0 555.98 683.25   L 548.17 683.25   A 0.89 0.89 0.0 0 0 547.41 683.68   L 527.62 716.45   A 0.28 0.28 0.0 0 1 527.10 716.35"></path>
    <path stroke="#6b0000" vector-effect="non-scaling-stroke" d="   M 757.96 683.59   A 0.30 0.30 0.0 0 0 757.67 683.23   L 736.31 683.24   A 0.30 0.30 0.0 0 0 736.02 683.48   L 722.24 748.64   A 0.30 0.30 0.0 0 0 722.53 749.00   L 743.91 749.00   A 0.30 0.30 0.0 0 0 744.20 748.76   L 757.96 683.59"></path>
    <path stroke="#6b0000" vector-effect="non-scaling-stroke" d="   M 279.17 683.25   A 0.39 0.39 0.0 0 0 278.78 683.56   L 265.05 748.53   A 0.39 0.39 0.0 0 0 265.43 749.00   L 286.59 749.00   A 0.39 0.39 0.0 0 0 286.98 748.69   L 300.71 683.72   A 0.39 0.39 0.0 0 0 300.33 683.25   L 279.17 683.25"></path>
    <path stroke="#6b0000" vector-effect="non-scaling-stroke" d="   M 589.15 691.50   A 0.39 0.39 0.0 0 1 589.53 691.97   L 577.57 748.53   A 0.39 0.39 0.0 0 0 577.95 749.00   L 598.91 749.00   A 0.39 0.39 0.0 0 0 599.30 748.69   L 611.53 691.81   A 0.39 0.39 0.0 0 1 611.92 691.50   L 627.69 691.50   A 0.39 0.39 0.0 0 0 628.07 691.19   L 629.63 683.72   A 0.39 0.39 0.0 0 0 629.25 683.25   L 575.20 683.25   A 0.39 0.39 0.0 0 0 574.83 683.50   L 571.92 690.97   A 0.39 0.39 0.0 0 0 572.28 691.50   L 589.15 691.50"></path>
    <path stroke="#6b0000" vector-effect="non-scaling-stroke" d="   M 678.99 720.86   L 674.92 740.11   A 0.81 0.80 5.7 0 1 674.13 740.75   L 661.68 740.75   A 0.48 0.48 0.0 0 1 661.21 740.17   L 663.20 730.69   A 0.78 0.78 0.0 0 0 662.44 729.75   L 642.11 729.75   A 0.82 0.82 0.0 0 0 641.31 730.38   L 637.08 748.53   A 0.38 0.37 6.6 0 0 637.45 748.99   Q 659.47 749.02 681.47 748.99   C 689.58 748.97 694.93 747.14 697.09 739.08   Q 698.08 735.38 700.28 724.05   C 701.55 717.55 700.47 712.04 692.74 712.02   Q 680.17 711.99 667.65 712.00   A 0.38 0.37 -83.7 0 1 667.29 711.54   L 671.47 691.96   A 0.58 0.57 -83.7 0 1 672.03 691.50   L 684.45 691.50   A 0.60 0.59 5.5 0 1 685.04 692.21   L 683.16 701.64   A 0.51 0.51 0.0 0 0 683.66 702.25   L 704.48 702.25   A 0.59 0.58 -83.9 0 0 705.05 701.78   L 708.74 683.82   A 0.45 0.45 0.0 0 0 708.30 683.28   Q 686.56 683.23 664.81 683.25   C 655.93 683.25 651.04 685.53 649.00 694.51   Q 646.15 707.06 645.59 710.56   C 644.21 719.21 650.37 720.27 657.40 720.25   Q 667.96 720.21 678.54 720.31   A 0.46 0.46 0.0 0 1 678.99 720.86"></path>
    <path stroke="#6b0000" vector-effect="non-scaling-stroke" d="   M 811.25 729.05   L 807.20 748.28   A 0.60 0.60 0.0 0 0 807.79 749.00   L 828.34 749.00   A 0.78 0.78 0.0 0 0 829.10 748.38   L 842.69 683.79   A 0.41 0.40 -84.1 0 0 842.30 683.30   Q 821.38 683.22 800.45 683.24   C 791.16 683.25 784.94 684.63 782.89 694.25   Q 777.16 721.23 771.54 748.37   A 0.52 0.52 0.0 0 0 772.05 749.00   L 792.74 749.00   A 0.72 0.71 6.0 0 0 793.44 748.44   L 797.56 729.04   A 0.69 0.69 0.0 0 1 798.23 728.50   L 810.80 728.50   A 0.46 0.45 6.1 0 1 811.25 729.05"></path>
    <path stroke="#808080" vector-effect="non-scaling-stroke" d="   M 195.82 906.51   L 188.58 784.13   A 0.96 0.96 0.0 0 0 188.05 783.32   L 134.04 756.72   A 0.40 0.39 11.7 0 0 133.47 757.09   Q 135.25 799.34 137.15 841.57   Q 137.25 843.75 136.30 845.72   Q 121.69 876.01 106.92 906.26   Q 106.70 906.71 106.65 906.21   Q 106.26 902.28 105.76 892.98   Q 101.60 816.21 97.44 739.31   A 0.93 0.92 11.6 0 0 96.92 738.53   L 39.66 710.62   A 0.39 0.39 0.0 0 0 39.10 710.99   L 41.22 743.91   A 0.90 0.89 11.5 0 0 41.72 744.66   L 82.83 764.26   Q 84.05 764.84 82.71 764.69   L 43.44 760.22   A 1.03 1.03 0.0 0 0 42.29 761.31   L 54.12 948.11   A 0.42 0.42 0.0 0 0 54.54 948.50   L 108.59 948.50   A 0.80 0.80 0.0 0 0 109.31 948.05   L 139.31 886.03   A 0.19 0.19 0.0 0 1 139.67 886.11   L 143.22 948.00   A 0.53 0.53 0.0 0 0 143.75 948.50   L 197.71 948.50   A 0.84 0.83 -76.9 0 0 198.46 948.03   L 277.14 784.92   A 0.98 0.98 0.0 0 0 276.25 783.51   L 256.09 783.61   A 0.93 0.92 12.5 0 0 255.25 784.14   L 196.12 906.57   A 0.16 0.16 0.0 0 1 195.82 906.51"></path>
    <path stroke="#808080" vector-effect="non-scaling-stroke" d="   M 622.24 905.95   L 615.37 784.15   A 0.98 0.97 -78.7 0 0 614.82 783.32   L 559.82 756.42   A 0.34 0.34 0.0 0 0 559.33 756.75   L 560.85 784.31   A 0.83 0.83 0.0 0 0 561.32 785.01   L 596.06 801.53   Q 597.31 802.12 595.94 801.97   L 562.14 798.15   A 0.44 0.44 0.0 0 0 561.65 798.61   L 570.12 947.92   A 0.62 0.62 0.0 0 0 570.74 948.50   L 624.38 948.50   A 0.83 0.82 -76.6 0 0 625.12 948.04   L 704.26 783.97   A 0.33 0.32 -76.9 0 0 703.97 783.50   L 682.50 783.50   A 0.82 0.80 12.8 0 0 681.77 783.95   L 622.71 906.04   Q 622.29 906.91 622.24 905.95"></path>
    <path stroke="#808080" vector-effect="non-scaling-stroke" d="   M 319.57 783.75   C 304.92 783.82 291.88 793.75 288.78 808.07   Q 281.45 841.87 259.35 947.96   A 0.41 0.41 0.0 0 0 259.75 948.45   Q 314.95 948.52 370.18 948.51   Q 381.59 948.51 386.70 947.03   C 401.88 942.63 407.00 931.51 410.19 916.53   Q 424.33 850.18 438.39 783.89   A 0.32 0.31 -83.9 0 0 438.09 783.51   Q 378.78 783.46 319.57 783.75"></path>
    <path stroke="#808080" vector-effect="non-scaling-stroke" d="   M 545.04 928.40   A 0.44 0.44 0.0 0 0 544.60 927.99   L 483.73 928.00   A 0.44 0.44 0.0 0 1 483.30 927.47   L 513.68 784.03   A 0.44 0.44 0.0 0 0 513.25 783.50   L 459.92 783.50   A 0.44 0.44 0.0 0 0 459.49 783.85   L 423.99 947.97   A 0.44 0.44 0.0 0 0 424.42 948.50   L 545.90 948.50   A 0.44 0.44 0.0 0 0 546.34 948.03   L 545.04 928.40"></path>
    <path stroke="#808080" vector-effect="non-scaling-stroke" d="   M 761.46 855.17   L 772.18 804.70   A 0.57 0.56 -83.6 0 1 772.73 804.25   L 833.54 804.25   A 0.68 0.68 0.0 0 0 834.21 803.70   L 838.30 784.09   A 0.47 0.46 6.2 0 0 837.85 783.54   C 807.60 783.37 777.32 783.45 747.06 783.55   C 730.48 783.60 719.11 795.45 715.75 811.00   Q 711.38 831.27 707.06 851.56   C 705.33 859.66 700.21 868.08 696.65 875.61   A 0.45 0.44 -77.3 0 0 697.05 876.25   L 701.09 876.25   A 0.56 0.55 -84.1 0 1 701.63 876.92   L 686.49 947.94   A 0.46 0.46 0.0 0 0 686.94 948.50   L 803.01 948.50   A 0.67 0.66 -84.1 0 0 803.66 947.97   L 807.71 928.52   A 0.45 0.45 0.0 0 0 807.27 927.98   L 747.02 928.00   A 0.81 0.81 0.0 0 1 746.23 927.02   L 756.89 876.94   A 0.88 0.87 -83.8 0 1 757.74 876.25   L 799.13 876.25   A 0.82 0.82 0.0 0 0 799.87 875.78   L 809.06 856.29   A 0.38 0.38 0.0 0 0 808.72 855.75   L 761.93 855.75   A 0.48 0.48 0.0 0 1 761.46 855.17"></path>
    <path stroke="#808080" vector-effect="non-scaling-stroke" d="   M 924.92 876.92   L 914.25 927.15   A 0.75 0.75 0.0 0 1 913.53 927.75   L 880.80 928.07   A 0.85 0.85 0.0 0 1 879.96 927.04   L 885.34 901.32   A 0.86 0.86 0.0 0 0 884.50 900.28   L 830.92 900.56   A 0.58 0.58 0.0 0 0 830.37 901.01   L 820.37 948.07   A 0.35 0.35 0.0 0 0 820.71 948.49   Q 876.43 948.52 931.89 948.48   Q 944.00 948.47 948.80 946.92   C 961.42 942.85 968.04 933.17 970.82 920.07   Q 974.53 902.62 978.15 885.14   Q 980.01 876.17 979.43 871.73   C 977.66 858.06 966.66 855.75 954.47 855.76   Q 925.14 855.78 895.65 855.70   A 0.45 0.45 0.0 0 1 895.21 855.16   L 905.94 804.72   A 0.59 0.59 0.0 0 1 906.52 804.25   L 939.80 804.25   A 0.46 0.45 -84.2 0 1 940.24 804.80   L 934.79 830.52   A 0.74 0.74 0.0 0 0 935.52 831.41   Q 962.07 831.01 988.62 831.62   A 1.20 1.20 0.0 0 0 989.83 830.66   L 993.49 812.81   A 0.65 0.65 0.0 0 0 993.04 812.06   L 969.46 805.03   Q 967.79 804.53 969.53 804.53   L 994.34 804.49   A 1.02 1.01 5.7 0 0 995.32 803.69   L 999.19 784.96   A 1.35 1.34 -85.3 0 0 997.82 783.34   Q 984.76 783.87 972.43 783.73   C 945.20 783.42 917.98 783.49 890.75 783.48   Q 877.24 783.48 871.88 785.04   C 856.79 789.45 851.76 800.62 848.57 815.58   Q 845.75 828.78 843.00 841.97   C 840.11 855.82 837.26 869.82 852.77 874.87   Q 857.31 876.35 868.40 876.30   Q 896.41 876.16 924.43 876.31   A 0.50 0.50 0.0 0 1 924.92 876.92"></path>
    <path stroke="#6b0000" vector-effect="non-scaling-stroke" d="   M 805.87 691.50   A 0.46 0.46 0.0 0 0 805.42 691.86   L 799.54 719.69   A 0.46 0.46 0.0 0 0 799.99 720.25   L 812.71 720.25   A 0.46 0.46 0.0 0 0 813.16 719.89   L 819.03 692.06   A 0.46 0.46 0.0 0 0 818.58 691.50   L 805.87 691.50"></path>
    <path stroke="#808080" vector-effect="non-scaling-stroke" d="   M 318.48 927.51   A 0.42 0.42 0.0 0 0 318.89 928.02   L 352.40 927.75   A 0.42 0.42 0.0 0 0 352.81 927.42   L 378.84 804.76   A 0.42 0.42 0.0 0 0 378.43 804.25   L 344.99 804.25   A 0.42 0.42 0.0 0 0 344.58 804.58   L 318.48 927.51"></path>
  </g>
  <g fill="#ffffff">
    <path d="   M 1080.00 452.31   L 1080.00 453.56   C 1075.84 509.70 1050.44 568.52 998.72 596.35   Q 996.84 597.37 995.66 599.10   C 968.72 638.70 927.66 663.75 882.71 678.10   A 0.90 0.89 87.2 0 0 882.12 678.76   L 867.97 746.04   A 0.59 0.59 0.0 0 0 868.55 746.75   L 1044.79 746.75   A 0.48 0.47 5.9 0 1 1045.26 747.32   Q 1027.08 834.47 1009.00 920.90   Q 1006.10 934.75 1004.04 940.26   C 995.89 962.14 976.55 978.93 953.29 983.30   Q 946.93 984.49 933.50 984.49   Q 780.80 984.49 628.04 984.52   A 0.35 0.35 0.0 0 0 627.71 984.99   C 639.43 1017.14 656.15 1044.76 672.96 1073.35   A 0.32 0.31 84.9 0 1 672.58 1073.81   C 647.49 1064.32 623.94 1056.12 598.92 1042.58   Q 553.40 1017.94 513.55 984.80   A 1.36 1.34 -25.2 0 0 512.70 984.50   L 21.53 984.50   A 0.38 0.37 -1.6 0 1 21.15 984.15   L 0.07 652.43   L 0.00 649.94   L 162.68 729.35   A 0.31 0.30 -78.4 0 0 163.11 729.06   Q 162.78 717.30 162.05 705.87   Q 161.89 703.36 160.73 701.11   Q 147.86 676.19 143.30 667.68   Q 122.92 629.62 116.26 584.99   C 102.61 493.48 136.01 411.27 201.73 348.93   Q 202.53 348.16 201.46 348.48   L 162.75 359.76   A 0.29 0.29 0.0 0 1 162.45 359.29   Q 177.83 342.70 193.43 326.06   C 203.99 314.80 215.47 306.03 227.98 298.21   C 247.21 286.19 268.01 275.38 289.22 266.28   Q 346.49 241.73 403.17 226.91   Q 529.35 193.89 624.37 107.77   C 642.24 91.58 659.04 73.05 673.08 54.34   C 684.99 38.46 693.39 19.00 702.11 0.71   A 0.39 0.39 0.0 0 1 702.83 0.74   Q 709.47 18.73 715.57 36.80   C 731.59 84.25 740.54 137.38 733.00 187.03   A 0.18 0.17 -10.1 0 0 733.26 187.21   C 751.82 176.98 770.86 165.61 785.22 149.77   Q 793.91 140.20 802.54 130.63   A 0.30 0.29 -27.5 0 1 803.05 130.79   Q 805.62 149.49 807.26 168.01   C 810.54 205.18 805.93 245.48 784.99 277.13   A 0.46 0.46 0.0 0 0 785.15 277.79   Q 817.72 295.38 837.96 325.75   C 844.37 335.36 852.05 350.76 860.57 361.64   Q 872.48 376.84 891.99 384.29   C 954.26 408.04 1017.24 429.88 1080.00 452.31   Z   M 758.70 282.51   C 791.07 256.77 795.18 202.71 791.30 164.60   Q 791.25 164.09 790.88 164.44   C 767.86 186.05 735.93 203.08 708.53 216.26   Q 708.09 216.48 708.28 216.02   C 720.72 186.52 721.96 153.15 718.34 121.74   Q 713.43 79.14 699.62 38.50   Q 699.46 38.03 699.22 38.47   C 686.48 61.76 669.97 81.79 651.33 100.83   C 585.66 167.92 504.03 214.06 413.78 239.07   C 366.65 252.13 320.95 267.06 276.63 287.94   C 252.24 299.43 228.08 313.02 207.79 331.02   A 0.27 0.27 0.0 0 0 208.04 331.48   Q 229.71 325.19 252.29 324.92   A 0.30 0.30 0.0 0 1 252.47 325.46   C 183.44 374.20 130.83 445.18 126.82 532.46   C 125.05 570.99 131.80 613.97 148.94 649.26   Q 149.16 649.71 149.14 649.21   C 148.09 611.67 160.19 572.64 176.09 538.98   A 0.22 0.22 0.0 0 1 176.51 539.06   Q 179.54 593.47 192.87 646.30   Q 193.05 646.99 192.41 646.67   L 172.86 637.08   A 0.37 0.36 16.3 0 0 172.34 637.36   Q 172.14 638.91 172.22 640.53   Q 175.12 696.79 177.65 753.28   A 0.33 0.33 0.0 0 1 177.17 753.59   L 15.50 674.53   A 0.40 0.40 0.0 0 0 14.93 674.92   L 33.61 969.91   A 0.36 0.36 0.0 0 0 33.97 970.25   L 516.23 970.25   A 1.45 1.39 62.2 0 1 517.07 970.53   Q 517.70 970.99 518.29 971.48   Q 566.58 1011.95 623.25 1039.52   Q 629.55 1042.58 638.31 1046.01   Q 638.77 1046.19 638.53 1045.75   C 625.48 1021.33 614.29 997.32 606.14 970.88   A 0.48 0.48 0.0 0 1 606.60 970.25   Q 770.35 970.26 933.95 970.24   Q 945.87 970.24 951.81 968.82   C 970.75 964.31 986.33 948.75 990.92 930.18   Q 993.79 918.55 999.42 889.97   C 1002.27 875.52 1002.70 865.86 996.21 853.77   A 0.35 0.35 0.0 0 1 996.52 853.25   L 1007.00 853.25   A 0.57 0.56 -83.6 0 0 1007.55 852.81   L 1026.16 762.24   A 0.41 0.41 0.0 0 0 1025.76 761.75   L 849.21 761.75   A 0.46 0.45 5.7 0 1 848.76 761.21   L 868.48 667.48   A 0.93 0.93 0.0 0 1 869.14 666.78   C 915.57 653.70 958.71 628.71 985.10 587.02   A 1.79 1.75 -86.3 0 1 985.82 586.37   C 1033.10 563.22 1057.37 512.83 1063.23 462.76   A 0.40 0.40 0.0 0 0 1062.96 462.34   Q 979.34 433.23 896.34 402.47   C 873.36 393.95 855.53 384.75 842.40 363.08   Q 830.64 343.66 827.04 337.95   Q 802.39 298.74 758.78 282.98   Q 758.31 282.81 758.70 282.51   Z"></path>
    <path d="   M 639.46 276.00   C 619.97 282.06 601.35 287.45 580.97 290.60   A 0.29 0.28 -66.6 0 1 580.77 290.08   C 594.95 280.08 610.92 266.49 620.52 251.75   Q 620.80 251.34 620.33 251.51   Q 592.71 261.77 562.56 269.58   C 550.60 272.68 442.20 299.47 441.50 297.54   C 535.98 255.90 622.91 196.49 689.64 117.06   A 0.25 0.25 0.0 0 1 690.08 117.21   C 690.61 172.98 674.89 231.99 639.46 276.00   Z"></path>
    <path d="   M 796.81 402.47   L 800.93 402.15   Q 801.69 402.09 801.01 402.44   Q 768.49 419.44 733.70 431.15   A 0.19 0.18 -50.0 0 0 733.73 431.51   C 776.39 437.34 820.19 436.38 862.79 430.63   Q 863.57 430.53 862.96 431.02   Q 849.46 441.95 839.29 456.01   Q 839.00 456.40 839.45 456.21   Q 845.42 453.66 851.28 451.08   C 875.25 440.54 902.10 436.20 927.97 440.64   C 948.42 444.15 994.56 462.48 999.63 485.85   C 1003.00 501.40 987.96 524.78 977.78 534.80   C 950.74 561.43 912.18 555.56 880.59 542.11   C 850.59 529.33 826.44 512.47 799.92 495.60   C 703.72 434.45 580.42 410.45 484.74 488.94   A 0.37 0.36 -11.0 0 1 484.16 488.55   C 500.53 437.17 548.51 405.16 598.49 392.22   Q 598.97 392.09 598.48 392.04   C 557.39 387.36 513.88 384.82 474.50 400.04   Q 482.12 392.62 493.19 385.19   C 541.08 353.04 594.16 351.92 644.72 378.57   C 654.32 383.63 664.89 390.10 673.37 394.04   C 703.81 408.21 736.85 411.63 770.50 407.72   Q 785.45 405.98 796.81 402.47   Z"></path>
    <path d="   M 223.94 419.20   C 223.69 419.84 223.43 420.20 223.42 420.88   C 222.23 501.39 245.77 590.37 297.95 653.36   A 0.39 0.39 0.0 0 0 298.61 653.27   C 330.97 580.29 377.78 511.59 448.87 471.43   Q 449.24 470.99 449.79 471.09   Q 450.36 471.19 449.97 471.61   Q 420.46 503.23 402.04 536.80   C 380.72 575.67 366.73 617.89 356.04 660.77   A 0.67 0.67 0.0 0 1 355.39 661.27   L 243.41 661.39   A 0.80 0.79 78.1 0 1 242.68 660.91   C 210.23 587.39 192.94 495.05 222.90 417.65   A 0.57 0.55 -87.4 0 1 223.25 417.32   L 223.56 417.23   A 0.08 0.08 0.0 0 1 223.66 417.30   L 223.94 419.20   Z"></path>
    <path d="   M 695.84 529.97   C 696.40 511.40 704.95 489.57 721.43 479.32   A 0.41 0.41 0.0 0 1 722.05 479.72   Q 719.34 499.69 721.55 519.71   A 0.61 0.60 77.9 0 1 721.13 520.36   Q 708.30 524.30 696.25 530.23   A 0.28 0.28 0.0 0 1 695.84 529.97   Z"></path>
    <path d="   M 766.18 494.18   A 0.28 0.28 0.0 0 1 766.27 494.62   Q 751.96 511.27 730.95 517.76   A 0.36 0.36 0.0 0 1 730.49 517.45   Q 728.85 498.63 737.59 482.01   A 0.58 0.57 24.8 0 1 738.31 481.75   Q 752.54 487.32 766.18 494.18   Z"></path>
    <path d="   M 544.60 502.48   Q 541.94 504.20 539.53 507.05   C 525.75 523.35 514.97 541.08 507.11 560.76   Q 487.84 609.03 487.27 661.53   L 423.76 661.27   A 0.48 0.47 -87.2 0 1 423.29 660.74   C 430.87 588.70 480.02 531.36 544.28 501.52   Q 544.85 501.26 544.73 501.87   L 544.60 502.48   Z"></path>
    <path d="   M 799.56 515.36   C 786.70 515.02 773.42 514.37 760.19 514.20   Q 759.63 514.20 760.11 513.92   L 780.51 502.24   A 0.83 0.81 44.4 0 1 781.32 502.24   Q 791.04 507.63 799.93 514.26   Q 801.46 515.41 799.56 515.36   Z"></path>
    <path d="   M 861.44 661.12   C 812.27 661.68 763.14 661.02 713.99 661.27   A 0.40 0.40 0.0 0 1 713.59 660.79   C 723.54 609.23 770.46 590.65 817.76 601.76   C 847.11 608.65 866.18 628.92 862.01 660.61   A 0.59 0.59 0.0 0 1 861.44 661.12   Z   M 823.43 646.56   Q 835.93 646.69 848.11 646.44   A 0.60 0.60 0.0 0 0 848.69 645.74   C 845.97 630.03 835.44 621.42 821.01 617.01   C 788.30 607.01 751.92 612.79 734.84 645.92   A 0.47 0.46 13.4 0 0 735.26 646.60   Q 779.22 646.08 823.43 646.56   Z"></path>
    <path d="   M 676.50 604.29   L 677.60 604.25   Q 678.15 604.22 677.86 604.69   C 667.26 621.91 660.74 640.94 656.60 660.78   A 0.61 0.61 0.0 0 1 656.00 661.27   L 637.50 661.46   Q 652.46 630.50 676.34 605.80   A 1.04 1.00 63.2 0 0 676.61 604.93   L 676.50 604.29   Z"></path>
    <path d="   M 589.25 661.29   L 567.67 661.41   Q 575.68 649.14 585.75 638.32   A 0.36 0.36 0.0 0 1 586.37 638.52   L 589.25 661.29   Z"></path>
    <path d="   M 195.82 906.51   A 0.16 0.16 0.0 0 0 196.12 906.57   L 255.25 784.14   A 0.93 0.92 12.5 0 1 256.09 783.61   L 276.25 783.51   A 0.98 0.98 0.0 0 1 277.14 784.92   L 198.46 948.03   A 0.84 0.83 -76.9 0 1 197.71 948.50   L 143.75 948.50   A 0.53 0.53 0.0 0 1 143.22 948.00   L 139.67 886.11   A 0.19 0.19 0.0 0 0 139.31 886.03   L 109.31 948.05   A 0.80 0.80 0.0 0 1 108.59 948.50   L 54.54 948.50   A 0.42 0.42 0.0 0 1 54.12 948.11   L 42.29 761.31   A 1.03 1.03 0.0 0 1 43.44 760.22   L 82.71 764.69   Q 84.05 764.84 82.83 764.26   L 41.72 744.66   A 0.90 0.89 11.5 0 1 41.22 743.91   L 39.10 710.99   A 0.39 0.39 0.0 0 1 39.66 710.62   L 96.92 738.53   A 0.93 0.92 11.6 0 1 97.44 739.31   Q 101.60 816.21 105.76 892.98   Q 106.26 902.28 106.65 906.21   Q 106.70 906.71 106.92 906.26   Q 121.69 876.01 136.30 845.72   Q 137.25 843.75 137.15 841.57   Q 135.25 799.34 133.47 757.09   A 0.40 0.39 11.7 0 1 134.04 756.72   L 188.05 783.32   A 0.96 0.96 0.0 0 1 188.58 784.13   L 195.82 906.51   Z"></path>
    <path d="   M 622.71 906.04   L 681.77 783.95   A 0.82 0.80 12.8 0 1 682.50 783.50   L 703.97 783.50   A 0.33 0.32 -76.9 0 1 704.26 783.97   L 625.12 948.04   A 0.83 0.82 -76.6 0 1 624.38 948.50   L 570.74 948.50   A 0.62 0.62 0.0 0 1 570.12 947.92   L 561.65 798.61   A 0.44 0.44 0.0 0 1 562.14 798.15   L 595.94 801.97   Q 597.31 802.12 596.06 801.53   L 561.32 785.01   A 0.83 0.83 0.0 0 1 560.85 784.31   L 559.33 756.75   A 0.34 0.34 0.0 0 1 559.82 756.42   L 614.82 783.32   A 0.98 0.97 -78.7 0 1 615.37 784.15   L 622.24 905.95   Q 622.29 906.91 622.71 906.04   Z"></path>
    <path d="   M 288.78 808.07   C 291.88 793.75 304.92 783.82 319.57 783.75   Q 378.78 783.46 438.09 783.51   A 0.32 0.31 -83.9 0 1 438.39 783.89   Q 424.33 850.18 410.19 916.53   C 407.00 931.51 401.88 942.63 386.70 947.03   Q 381.59 948.51 370.18 948.51   Q 314.95 948.52 259.75 948.45   A 0.41 0.41 0.0 0 1 259.35 947.96   Q 281.45 841.87 288.78 808.07   Z   M 318.48 927.51   A 0.42 0.42 0.0 0 0 318.89 928.02   L 352.40 927.75   A 0.42 0.42 0.0 0 0 352.81 927.42   L 378.84 804.76   A 0.42 0.42 0.0 0 0 378.43 804.25   L 344.99 804.25   A 0.42 0.42 0.0 0 0 344.58 804.58   L 318.48 927.51   Z"></path>
    <path d="   M 545.04 928.40   L 546.34 948.03   A 0.44 0.44 0.0 0 1 545.90 948.50   L 424.42 948.50   A 0.44 0.44 0.0 0 1 423.99 947.97   L 459.49 783.85   A 0.44 0.44 0.0 0 1 459.92 783.50   L 513.25 783.50   A 0.44 0.44 0.0 0 1 513.68 784.03   L 483.30 927.47   A 0.44 0.44 0.0 0 0 483.73 928.00   L 544.60 927.99   A 0.44 0.44 0.0 0 1 545.04 928.40   Z"></path>
    <path d="   M 761.93 855.75   L 808.72 855.75   A 0.38 0.38 0.0 0 1 809.06 856.29   L 799.87 875.78   A 0.82 0.82 0.0 0 1 799.13 876.25   L 757.74 876.25   A 0.88 0.87 -83.8 0 0 756.89 876.94   L 746.23 927.02   A 0.81 0.81 0.0 0 0 747.02 928.00   L 807.27 927.98   A 0.45 0.45 0.0 0 1 807.71 928.52   L 803.66 947.97   A 0.67 0.66 -84.1 0 1 803.01 948.50   L 686.94 948.50   A 0.46 0.46 0.0 0 1 686.49 947.94   L 701.63 876.92   A 0.56 0.55 -84.1 0 0 701.09 876.25   L 697.05 876.25   A 0.45 0.44 -77.3 0 1 696.65 875.61   C 700.21 868.08 705.33 859.66 707.06 851.56   Q 711.38 831.27 715.75 811.00   C 719.11 795.45 730.48 783.60 747.06 783.55   C 777.32 783.45 807.60 783.37 837.85 783.54   A 0.47 0.46 6.2 0 1 838.30 784.09   L 834.21 803.70   A 0.68 0.68 0.0 0 1 833.54 804.25   L 772.73 804.25   A 0.57 0.56 -83.6 0 0 772.18 804.70   L 761.46 855.17   A 0.48 0.48 0.0 0 0 761.93 855.75   Z"></path>
    <path d="   M 924.43 876.31   Q 896.41 876.16 868.40 876.30   Q 857.31 876.35 852.77 874.87   C 837.26 869.82 840.11 855.82 843.00 841.97   Q 845.75 828.78 848.57 815.58   C 851.76 800.62 856.79 789.45 871.88 785.04   Q 877.24 783.48 890.75 783.48   C 917.98 783.49 945.20 783.42 972.43 783.73   Q 984.76 783.87 997.82 783.34   A 1.35 1.34 -85.3 0 1 999.19 784.96   L 995.32 803.69   A 1.02 1.01 5.7 0 1 994.34 804.49   L 969.53 804.53   Q 967.79 804.53 969.46 805.03   L 993.04 812.06   A 0.65 0.65 0.0 0 1 993.49 812.81   L 989.83 830.66   A 1.20 1.20 0.0 0 1 988.62 831.62   Q 962.07 831.01 935.52 831.41   A 0.74 0.74 0.0 0 1 934.79 830.52   L 940.24 804.80   A 0.46 0.45 -84.2 0 0 939.80 804.25   L 906.52 804.25   A 0.59 0.59 0.0 0 0 905.94 804.72   L 895.21 855.16   A 0.45 0.45 0.0 0 0 895.65 855.70   Q 925.14 855.78 954.47 855.76   C 966.66 855.75 977.66 858.06 979.43 871.73   Q 980.01 876.17 978.15 885.14   Q 974.53 902.62 970.82 920.07   C 968.04 933.17 961.42 942.85 948.80 946.92   Q 944.00 948.47 931.89 948.48   Q 876.43 948.52 820.71 948.49   A 0.35 0.35 0.0 0 1 820.37 948.07   L 830.37 901.01   A 0.58 0.58 0.0 0 1 830.92 900.56   L 884.50 900.28   A 0.86 0.86 0.0 0 1 885.34 901.32   L 879.96 927.04   A 0.85 0.85 0.0 0 0 880.80 928.07   L 913.53 927.75   A 0.75 0.75 0.0 0 0 914.25 927.15   L 924.92 876.92   A 0.50 0.50 0.0 0 0 924.43 876.31   Z"></path>
  </g>
  <g fill="#000000">
    <path d="   M 758.78 282.98   Q 802.39 298.74 827.04 337.95   Q 830.64 343.66 842.40 363.08   C 855.53 384.75 873.36 393.95 896.34 402.47   Q 979.34 433.23 1062.96 462.34   A 0.40 0.40 0.0 0 1 1063.23 462.76   C 1057.37 512.83 1033.10 563.22 985.82 586.37   A 1.79 1.75 -86.3 0 0 985.10 587.02   C 958.71 628.71 915.57 653.70 869.14 666.78   A 0.93 0.93 0.0 0 0 868.48 667.48   L 848.76 761.21   A 0.46 0.45 5.7 0 0 849.21 761.75   L 1025.76 761.75   A 0.41 0.41 0.0 0 1 1026.16 762.24   L 1007.55 852.81   A 0.57 0.56 -83.6 0 1 1007.00 853.25   L 996.52 853.25   A 0.35 0.35 0.0 0 0 996.21 853.77   C 1002.70 865.86 1002.27 875.52 999.42 889.97   Q 993.79 918.55 990.92 930.18   C 986.33 948.75 970.75 964.31 951.81 968.82   Q 945.87 970.24 933.95 970.24   Q 770.35 970.26 606.60 970.25   A 0.48 0.48 0.0 0 0 606.14 970.88   C 614.29 997.32 625.48 1021.33 638.53 1045.75   Q 638.77 1046.19 638.31 1046.01   Q 629.55 1042.58 623.25 1039.52   Q 566.58 1011.95 518.29 971.48   Q 517.70 970.99 517.07 970.53   A 1.45 1.39 62.2 0 0 516.23 970.25   L 33.97 970.25   A 0.36 0.36 0.0 0 1 33.61 969.91   L 14.93 674.92   A 0.40 0.40 0.0 0 1 15.50 674.53   L 177.17 753.59   A 0.33 0.33 0.0 0 0 177.65 753.28   Q 175.12 696.79 172.22 640.53   Q 172.14 638.91 172.34 637.36   A 0.37 0.36 16.3 0 1 172.86 637.08   L 192.41 646.67   Q 193.05 646.99 192.87 646.30   Q 179.54 593.47 176.51 539.06   A 0.22 0.22 0.0 0 0 176.09 538.98   C 160.19 572.64 148.09 611.67 149.14 649.21   Q 149.16 649.71 148.94 649.26   C 131.80 613.97 125.05 570.99 126.82 532.46   C 130.83 445.18 183.44 374.20 252.47 325.46   A 0.30 0.30 0.0 0 0 252.29 324.92   Q 229.71 325.19 208.04 331.48   A 0.27 0.27 0.0 0 1 207.79 331.02   C 228.08 313.02 252.24 299.43 276.63 287.94   C 320.95 267.06 366.65 252.13 413.78 239.07   C 504.03 214.06 585.66 167.92 651.33 100.83   C 669.97 81.79 686.48 61.76 699.22 38.47   Q 699.46 38.03 699.62 38.50   Q 713.43 79.14 718.34 121.74   C 721.96 153.15 720.72 186.52 708.28 216.02   Q 708.09 216.48 708.53 216.26   C 735.93 203.08 767.86 186.05 790.88 164.44   Q 791.25 164.09 791.30 164.60   C 795.18 202.71 791.07 256.77 758.70 282.51   Q 758.31 282.81 758.78 282.98   Z   M 441.50 297.54   Q 441.21 297.69 440.92 297.65   Q 440.39 297.57 440.84 297.28   C 469.26 279.05 499.80 255.19 520.71 226.19   A 0.31 0.31 0.0 0 0 520.31 225.73   C 495.60 239.23 474.61 248.49 443.52 260.28   Q 415.96 270.72 384.37 290.40   C 330.87 323.74 286.02 375.01 277.99 439.76   Q 273.75 473.95 286.70 505.03   Q 286.89 505.49 286.50 505.19   C 258.36 483.33 234.64 453.60 223.94 419.20   L 223.66 417.30   A 0.08 0.08 0.0 0 0 223.56 417.23   L 223.25 417.32   A 0.57 0.55 -87.4 0 0 222.90 417.65   C 192.94 495.05 210.23 587.39 242.68 660.91   A 0.80 0.79 78.1 0 0 243.41 661.39   L 355.39 661.27   A 0.67 0.67 0.0 0 0 356.04 660.77   C 366.73 617.89 380.72 575.67 402.04 536.80   Q 420.46 503.23 449.97 471.61   Q 450.36 471.19 449.79 471.09   Q 449.24 470.99 448.87 471.43   Q 432.18 471.13 413.51 475.28   Q 389.02 480.72 371.85 486.13   Q 371.37 486.28 371.68 485.89   C 399.51 451.35 433.23 417.41 474.50 400.04   C 513.88 384.82 557.39 387.36 598.48 392.04   Q 598.97 392.09 598.49 392.22   C 548.51 405.16 500.53 437.17 484.16 488.55   A 0.37 0.36 -11.0 0 0 484.74 488.94   C 580.42 410.45 703.72 434.45 799.92 495.60   C 826.44 512.47 850.59 529.33 880.59 542.11   C 912.18 555.56 950.74 561.43 977.78 534.80   C 987.96 524.78 1003.00 501.40 999.63 485.85   C 994.56 462.48 948.42 444.15 927.97 440.64   C 902.10 436.20 875.25 440.54 851.28 451.08   Q 845.42 453.66 839.45 456.21   Q 839.00 456.40 839.29 456.01   Q 849.46 441.95 862.96 431.02   Q 863.57 430.53 862.79 430.63   C 820.19 436.38 776.39 437.34 733.73 431.51   A 0.19 0.18 -50.0 0 1 733.70 431.15   Q 768.49 419.44 801.01 402.44   Q 801.69 402.09 800.93 402.15   L 796.81 402.47   Q 780.77 401.67 764.87 400.53   C 740.16 398.76 716.47 389.61 698.59 372.16   C 685.87 359.74 675.21 349.61 658.58 343.76   Q 655.75 342.76 652.27 342.76   C 624.26 342.79 593.82 338.46 568.98 324.67   A 0.18 0.17 62.4 0 1 569.08 324.34   C 602.73 328.14 636.81 327.99 670.34 323.31   C 713.59 317.27 758.22 306.26 791.66 344.16   A 0.30 0.30 0.0 0 0 792.15 343.83   C 782.31 322.98 768.07 312.00 747.86 302.75   C 729.42 294.32 711.19 292.08 690.06 293.22   Q 651.23 295.32 613.59 305.46   A 0.29 0.29 0.0 0 1 613.32 304.97   Q 627.86 291.85 639.46 276.00   C 674.89 231.99 690.61 172.98 690.08 117.21   A 0.25 0.25 0.0 0 0 689.64 117.06   C 622.91 196.49 535.98 255.90 441.50 297.54   Z   M 715.75 266.11   Q 730.80 266.54 744.96 271.55   A 0.91 0.91 0.0 0 0 745.89 271.34   C 760.44 257.27 770.29 237.86 772.51 217.74   A 0.25 0.25 0.0 0 0 772.08 217.54   Q 745.87 243.96 715.59 265.58   A 0.29 0.29 0.0 0 0 715.75 266.11   Z   M 679.14 340.72   Q 694.97 345.44 706.80 356.96   C 711.76 361.79 719.55 369.59 725.66 373.33   C 740.02 382.12 756.23 380.19 771.52 374.01   A 0.76 0.75 71.2 0 0 771.96 373.10   C 763.09 342.07 739.65 338.32 711.24 337.77   C 701.24 337.58 689.44 338.80 678.59 339.67   A 0.35 0.35 0.0 0 0 678.36 340.25   Q 678.66 340.58 679.14 340.72   Z   M 544.60 502.48   L 544.73 501.87   Q 544.85 501.26 544.28 501.52   C 480.02 531.36 430.87 588.70 423.29 660.74   A 0.48 0.47 -87.2 0 0 423.76 661.27   L 487.27 661.53   Q 488.37 661.24 490.75 661.26   Q 529.31 661.61 567.67 661.41   L 589.25 661.29   L 637.50 661.46   L 656.00 661.27   A 0.61 0.61 0.0 0 0 656.60 660.78   C 660.74 640.94 667.26 621.91 677.86 604.69   Q 678.15 604.22 677.60 604.25   L 676.50 604.29   C 664.59 603.62 650.23 609.14 639.72 614.66   A 0.31 0.31 0.0 0 1 639.31 614.21   C 667.79 571.65 728.70 556.27 776.52 558.34   C 823.58 560.38 860.37 582.88 881.27 625.40   C 882.71 628.34 884.30 632.54 886.06 636.01   A 0.56 0.56 0.0 0 0 886.76 636.28   C 912.75 626.38 942.95 612.42 955.20 585.65   A 0.40 0.39 -74.4 0 0 954.89 585.09   C 917.01 580.99 882.45 566.38 849.10 549.60   Q 837.03 543.53 830.99 541.16   C 782.58 522.12 727.36 527.26 680.73 549.19   A 0.39 0.39 0.0 0 1 680.18 548.91   C 675.68 523.39 675.37 491.04 691.36 468.74   A 0.34 0.34 0.0 0 0 691.17 468.21   C 669.91 462.62 645.42 461.59 624.33 468.23   C 582.23 481.48 563.90 519.88 549.13 557.26   Q 548.95 557.72 548.81 557.24   C 543.89 539.36 542.13 520.84 544.60 502.48   Z   M 721.43 479.32   C 704.95 489.57 696.40 511.40 695.84 529.97   A 0.28 0.28 0.0 0 0 696.25 530.23   Q 708.30 524.30 721.13 520.36   A 0.61 0.60 77.9 0 0 721.55 519.71   Q 719.34 499.69 722.05 479.72   A 0.41 0.41 0.0 0 0 721.43 479.32   Z   M 766.18 494.18   Q 752.54 487.32 738.31 481.75   A 0.58 0.57 24.8 0 0 737.59 482.01   Q 728.85 498.63 730.49 517.45   A 0.36 0.36 0.0 0 0 730.95 517.76   Q 751.96 511.27 766.27 494.62   A 0.28 0.28 0.0 0 0 766.18 494.18   Z   M 760.19 514.20   C 773.42 514.37 786.70 515.02 799.56 515.36   Q 801.46 515.41 799.93 514.26   Q 791.04 507.63 781.32 502.24   A 0.83 0.81 44.4 0 0 780.51 502.24   L 760.11 513.92   Q 759.63 514.20 760.19 514.20   Z   M 713.99 661.27   C 763.14 661.02 812.27 661.68 861.44 661.12   A 0.59 0.59 0.0 0 0 862.01 660.61   C 866.18 628.92 847.11 608.65 817.76 601.76   C 770.46 590.65 723.54 609.23 713.59 660.79   A 0.40 0.40 0.0 0 0 713.99 661.27   Z   M 220.75 731.42   A 0.30 0.30 0.0 0 1 220.18 731.30   L 217.48 683.38   A 0.30 0.30 0.0 0 0 217.31 683.12   L 196.19 672.80   A 0.30 0.30 0.0 0 0 195.75 673.09   L 199.43 748.85   A 0.30 0.30 0.0 0 0 199.59 749.10   L 216.45 758.38   A 0.30 0.30 0.0 0 0 216.87 758.25   L 252.83 683.71   A 0.30 0.30 0.0 0 0 252.57 683.28   L 244.25 683.20   A 0.30 0.30 0.0 0 0 243.98 683.37   L 220.75 731.42   Z   M 344.95 708.97   L 351.05 748.56   A 0.52 0.52 0.0 0 0 351.56 749.00   L 372.51 749.00   A 0.73 0.72 5.9 0 0 373.22 748.43   L 386.88 683.68   A 0.37 0.36 6.3 0 0 386.52 683.24   L 365.50 683.24   A 0.55 0.54 5.8 0 0 364.96 683.67   L 356.59 723.31   A 0.25 0.24 -43.5 0 1 356.11 723.30   L 350.06 683.74   A 0.57 0.56 -4.1 0 0 349.50 683.26   L 328.41 683.23   A 0.44 0.44 0.0 0 0 327.98 683.57   L 314.25 748.45   A 0.46 0.45 6.1 0 0 314.70 749.00   L 335.52 749.00   A 0.74 0.74 0.0 0 0 336.24 748.42   L 344.58 708.96   Q 344.79 707.94 344.95 708.97   Z   M 431.14 708.82   L 437.21 748.64   A 0.43 0.42 -4.8 0 0 437.63 748.99   L 458.71 749.00   A 0.69 0.69 0.0 0 0 459.38 748.46   L 473.01 684.04   A 0.68 0.68 0.0 0 0 472.35 683.22   L 451.74 683.26   A 0.66 0.65 -84.0 0 0 451.10 683.78   L 442.70 723.45   A 0.21 0.20 47.2 0 1 442.30 723.43   L 436.25 683.79   A 0.66 0.65 -4.0 0 0 435.60 683.23   L 414.70 683.26   A 0.58 0.57 -83.7 0 0 414.14 683.72   L 400.46 748.35   A 0.53 0.52 -83.8 0 0 400.97 748.99   L 421.72 749.01   A 0.70 0.70 0.0 0 0 422.40 748.46   L 430.81 708.81   A 0.17 0.17 0.0 0 1 431.14 708.82   Z   M 527.10 716.35   L 521.14 683.73   A 0.59 0.59 0.0 0 0 520.56 683.25   L 499.98 683.25   A 0.76 0.76 0.0 0 0 499.23 684.14   Q 503.07 705.29 506.80 725.24   C 507.96 731.49 504.50 742.23 503.03 748.59   A 0.55 0.55 0.0 0 0 503.33 749.20   L 522.04 758.24   A 0.64 0.64 0.0 0 0 522.95 757.80   Q 525.81 744.69 528.52 731.60   Q 529.13 728.65 530.69 726.08   Q 543.43 704.98 556.27 683.76   A 0.34 0.34 0.0 0 0 555.98 683.25   L 548.17 683.25   A 0.89 0.89 0.0 0 0 547.41 683.68   L 527.62 716.45   A 0.28 0.28 0.0 0 1 527.10 716.35   Z   M 757.96 683.59   A 0.30 0.30 0.0 0 0 757.67 683.23   L 736.31 683.24   A 0.30 0.30 0.0 0 0 736.02 683.48   L 722.24 748.64   A 0.30 0.30 0.0 0 0 722.53 749.00   L 743.91 749.00   A 0.30 0.30 0.0 0 0 744.20 748.76   L 757.96 683.59   Z   M 279.17 683.25   A 0.39 0.39 0.0 0 0 278.78 683.56   L 265.05 748.53   A 0.39 0.39 0.0 0 0 265.43 749.00   L 286.59 749.00   A 0.39 0.39 0.0 0 0 286.98 748.69   L 300.71 683.72   A 0.39 0.39 0.0 0 0 300.33 683.25   L 279.17 683.25   Z   M 589.15 691.50   A 0.39 0.39 0.0 0 1 589.53 691.97   L 577.57 748.53   A 0.39 0.39 0.0 0 0 577.95 749.00   L 598.91 749.00   A 0.39 0.39 0.0 0 0 599.30 748.69   L 611.53 691.81   A 0.39 0.39 0.0 0 1 611.92 691.50   L 627.69 691.50   A 0.39 0.39 0.0 0 0 628.07 691.19   L 629.63 683.72   A 0.39 0.39 0.0 0 0 629.25 683.25   L 575.20 683.25   A 0.39 0.39 0.0 0 0 574.83 683.50   L 571.92 690.97   A 0.39 0.39 0.0 0 0 572.28 691.50   L 589.15 691.50   Z   M 678.99 720.86   L 674.92 740.11   A 0.81 0.80 5.7 0 1 674.13 740.75   L 661.68 740.75   A 0.48 0.48 0.0 0 1 661.21 740.17   L 663.20 730.69   A 0.78 0.78 0.0 0 0 662.44 729.75   L 642.11 729.75   A 0.82 0.82 0.0 0 0 641.31 730.38   L 637.08 748.53   A 0.38 0.37 6.6 0 0 637.45 748.99   Q 659.47 749.02 681.47 748.99   C 689.58 748.97 694.93 747.14 697.09 739.08   Q 698.08 735.38 700.28 724.05   C 701.55 717.55 700.47 712.04 692.74 712.02   Q 680.17 711.99 667.65 712.00   A 0.38 0.37 -83.7 0 1 667.29 711.54   L 671.47 691.96   A 0.58 0.57 -83.7 0 1 672.03 691.50   L 684.45 691.50   A 0.60 0.59 5.5 0 1 685.04 692.21   L 683.16 701.64   A 0.51 0.51 0.0 0 0 683.66 702.25   L 704.48 702.25   A 0.59 0.58 -83.9 0 0 705.05 701.78   L 708.74 683.82   A 0.45 0.45 0.0 0 0 708.30 683.28   Q 686.56 683.23 664.81 683.25   C 655.93 683.25 651.04 685.53 649.00 694.51   Q 646.15 707.06 645.59 710.56   C 644.21 719.21 650.37 720.27 657.40 720.25   Q 667.96 720.21 678.54 720.31   A 0.46 0.46 0.0 0 1 678.99 720.86   Z   M 811.25 729.05   L 807.20 748.28   A 0.60 0.60 0.0 0 0 807.79 749.00   L 828.34 749.00   A 0.78 0.78 0.0 0 0 829.10 748.38   L 842.69 683.79   A 0.41 0.40 -84.1 0 0 842.30 683.30   Q 821.38 683.22 800.45 683.24   C 791.16 683.25 784.94 684.63 782.89 694.25   Q 777.16 721.23 771.54 748.37   A 0.52 0.52 0.0 0 0 772.05 749.00   L 792.74 749.00   A 0.72 0.71 6.0 0 0 793.44 748.44   L 797.56 729.04   A 0.69 0.69 0.0 0 1 798.23 728.50   L 810.80 728.50   A 0.46 0.45 6.1 0 1 811.25 729.05   Z   M 195.82 906.51   L 188.58 784.13   A 0.96 0.96 0.0 0 0 188.05 783.32   L 134.04 756.72   A 0.40 0.39 11.7 0 0 133.47 757.09   Q 135.25 799.34 137.15 841.57   Q 137.25 843.75 136.30 845.72   Q 121.69 876.01 106.92 906.26   Q 106.70 906.71 106.65 906.21   Q 106.26 902.28 105.76 892.98   Q 101.60 816.21 97.44 739.31   A 0.93 0.92 11.6 0 0 96.92 738.53   L 39.66 710.62   A 0.39 0.39 0.0 0 0 39.10 710.99   L 41.22 743.91   A 0.90 0.89 11.5 0 0 41.72 744.66   L 82.83 764.26   Q 84.05 764.84 82.71 764.69   L 43.44 760.22   A 1.03 1.03 0.0 0 0 42.29 761.31   L 54.12 948.11   A 0.42 0.42 0.0 0 0 54.54 948.50   L 108.59 948.50   A 0.80 0.80 0.0 0 0 109.31 948.05   L 139.31 886.03   A 0.19 0.19 0.0 0 1 139.67 886.11   L 143.22 948.00   A 0.53 0.53 0.0 0 0 143.75 948.50   L 197.71 948.50   A 0.84 0.83 -76.9 0 0 198.46 948.03   L 277.14 784.92   A 0.98 0.98 0.0 0 0 276.25 783.51   L 256.09 783.61   A 0.93 0.92 12.5 0 0 255.25 784.14   L 196.12 906.57   A 0.16 0.16 0.0 0 1 195.82 906.51   Z   M 622.24 905.95   L 615.37 784.15   A 0.98 0.97 -78.7 0 0 614.82 783.32   L 559.82 756.42   A 0.34 0.34 0.0 0 0 559.33 756.75   L 560.85 784.31   A 0.83 0.83 0.0 0 0 561.32 785.01   L 596.06 801.53   Q 597.31 802.12 595.94 801.97   L 562.14 798.15   A 0.44 0.44 0.0 0 0 561.65 798.61   L 570.12 947.92   A 0.62 0.62 0.0 0 0 570.74 948.50   L 624.38 948.50   A 0.83 0.82 -76.6 0 0 625.12 948.04   L 704.26 783.97   A 0.33 0.32 -76.9 0 0 703.97 783.50   L 682.50 783.50   A 0.82 0.80 12.8 0 0 681.77 783.95   L 622.71 906.04   Q 622.29 906.91 622.24 905.95   Z   M 319.57 783.75   C 304.92 783.82 291.88 793.75 288.78 808.07   Q 281.45 841.87 259.35 947.96   A 0.41 0.41 0.0 0 0 259.75 948.45   Q 314.95 948.52 370.18 948.51   Q 381.59 948.51 386.70 947.03   C 401.88 942.63 407.00 931.51 410.19 916.53   Q 424.33 850.18 438.39 783.89   A 0.32 0.31 -83.9 0 0 438.09 783.51   Q 378.78 783.46 319.57 783.75   Z   M 545.04 928.40   A 0.44 0.44 0.0 0 0 544.60 927.99   L 483.73 928.00   A 0.44 0.44 0.0 0 1 483.30 927.47   L 513.68 784.03   A 0.44 0.44 0.0 0 0 513.25 783.50   L 459.92 783.50   A 0.44 0.44 0.0 0 0 459.49 783.85   L 423.99 947.97   A 0.44 0.44 0.0 0 0 424.42 948.50   L 545.90 948.50   A 0.44 0.44 0.0 0 0 546.34 948.03   L 545.04 928.40   Z   M 761.46 855.17   L 772.18 804.70   A 0.57 0.56 -83.6 0 1 772.73 804.25   L 833.54 804.25   A 0.68 0.68 0.0 0 0 834.21 803.70   L 838.30 784.09   A 0.47 0.46 6.2 0 0 837.85 783.54   C 807.60 783.37 777.32 783.45 747.06 783.55   C 730.48 783.60 719.11 795.45 715.75 811.00   Q 711.38 831.27 707.06 851.56   C 705.33 859.66 700.21 868.08 696.65 875.61   A 0.45 0.44 -77.3 0 0 697.05 876.25   L 701.09 876.25   A 0.56 0.55 -84.1 0 1 701.63 876.92   L 686.49 947.94   A 0.46 0.46 0.0 0 0 686.94 948.50   L 803.01 948.50   A 0.67 0.66 -84.1 0 0 803.66 947.97   L 807.71 928.52   A 0.45 0.45 0.0 0 0 807.27 927.98   L 747.02 928.00   A 0.81 0.81 0.0 0 1 746.23 927.02   L 756.89 876.94   A 0.88 0.87 -83.8 0 1 757.74 876.25   L 799.13 876.25   A 0.82 0.82 0.0 0 0 799.87 875.78   L 809.06 856.29   A 0.38 0.38 0.0 0 0 808.72 855.75   L 761.93 855.75   A 0.48 0.48 0.0 0 1 761.46 855.17   Z   M 924.92 876.92   L 914.25 927.15   A 0.75 0.75 0.0 0 1 913.53 927.75   L 880.80 928.07   A 0.85 0.85 0.0 0 1 879.96 927.04   L 885.34 901.32   A 0.86 0.86 0.0 0 0 884.50 900.28   L 830.92 900.56   A 0.58 0.58 0.0 0 0 830.37 901.01   L 820.37 948.07   A 0.35 0.35 0.0 0 0 820.71 948.49   Q 876.43 948.52 931.89 948.48   Q 944.00 948.47 948.80 946.92   C 961.42 942.85 968.04 933.17 970.82 920.07   Q 974.53 902.62 978.15 885.14   Q 980.01 876.17 979.43 871.73   C 977.66 858.06 966.66 855.75 954.47 855.76   Q 925.14 855.78 895.65 855.70   A 0.45 0.45 0.0 0 1 895.21 855.16   L 905.94 804.72   A 0.59 0.59 0.0 0 1 906.52 804.25   L 939.80 804.25   A 0.46 0.45 -84.2 0 1 940.24 804.80   L 934.79 830.52   A 0.74 0.74 0.0 0 0 935.52 831.41   Q 962.07 831.01 988.62 831.62   A 1.20 1.20 0.0 0 0 989.83 830.66   L 993.49 812.81   A 0.65 0.65 0.0 0 0 993.04 812.06   L 969.46 805.03   Q 967.79 804.53 969.53 804.53   L 994.34 804.49   A 1.02 1.01 5.7 0 0 995.32 803.69   L 999.19 784.96   A 1.35 1.34 -85.3 0 0 997.82 783.34   Q 984.76 783.87 972.43 783.73   C 945.20 783.42 917.98 783.49 890.75 783.48   Q 877.24 783.48 871.88 785.04   C 856.79 789.45 851.76 800.62 848.57 815.58   Q 845.75 828.78 843.00 841.97   C 840.11 855.82 837.26 869.82 852.77 874.87   Q 857.31 876.35 868.40 876.30   Q 896.41 876.16 924.43 876.31   A 0.50 0.50 0.0 0 1 924.92 876.92   Z"></path>
    <path d="   M 805.87 691.50   L 818.58 691.50   A 0.46 0.46 0.0 0 1 819.03 692.06   L 813.16 719.89   A 0.46 0.46 0.0 0 1 812.71 720.25   L 799.99 720.25   A 0.46 0.46 0.0 0 1 799.54 719.69   L 805.42 691.86   A 0.46 0.46 0.0 0 1 805.87 691.50   Z"></path>
    <path d="   M 318.48 927.51   L 344.58 804.58   A 0.42 0.42 0.0 0 1 344.99 804.25   L 378.43 804.25   A 0.42 0.42 0.0 0 1 378.84 804.76   L 352.81 927.42   A 0.42 0.42 0.0 0 1 352.40 927.75   L 318.89 928.02   A 0.42 0.42 0.0 0 1 318.48 927.51   Z"></path>
  </g>
  <g fill="#919191">
    <path d="   M 715.75 266.11   A 0.29 0.29 0.0 0 1 715.59 265.58   Q 745.87 243.96 772.08 217.54   A 0.25 0.25 0.0 0 1 772.51 217.74   C 770.29 237.86 760.44 257.27 745.89 271.34   A 0.91 0.91 0.0 0 1 744.96 271.55   Q 730.80 266.54 715.75 266.11   Z"></path>
    <path d="   M 441.50 297.54   C 442.20 299.47 550.60 272.68 562.56 269.58   Q 592.71 261.77 620.33 251.51   Q 620.80 251.34 620.52 251.75   C 610.92 266.49 594.95 280.08 580.77 290.08   A 0.29 0.28 -66.6 0 0 580.97 290.60   C 601.35 287.45 619.97 282.06 639.46 276.00   Q 627.86 291.85 613.32 304.97   A 0.29 0.29 0.0 0 0 613.59 305.46   Q 651.23 295.32 690.06 293.22   C 711.19 292.08 729.42 294.32 747.86 302.75   C 768.07 312.00 782.31 322.98 792.15 343.83   A 0.30 0.30 0.0 0 1 791.66 344.16   C 758.22 306.26 713.59 317.27 670.34 323.31   C 636.81 327.99 602.73 328.14 569.08 324.34   A 0.18 0.17 62.4 0 0 568.98 324.67   C 593.82 338.46 624.26 342.79 652.27 342.76   Q 655.75 342.76 658.58 343.76   C 675.21 349.61 685.87 359.74 698.59 372.16   C 716.47 389.61 740.16 398.76 764.87 400.53   Q 780.77 401.67 796.81 402.47   Q 785.45 405.98 770.50 407.72   C 736.85 411.63 703.81 408.21 673.37 394.04   C 664.89 390.10 654.32 383.63 644.72 378.57   C 594.16 351.92 541.08 353.04 493.19 385.19   Q 482.12 392.62 474.50 400.04   C 433.23 417.41 399.51 451.35 371.68 485.89   Q 371.37 486.28 371.85 486.13   Q 389.02 480.72 413.51 475.28   Q 432.18 471.13 448.87 471.43   C 377.78 511.59 330.97 580.29 298.61 653.27   A 0.39 0.39 0.0 0 1 297.95 653.36   C 245.77 590.37 222.23 501.39 223.42 420.88   C 223.43 420.20 223.69 419.84 223.94 419.20   C 234.64 453.60 258.36 483.33 286.50 505.19   Q 286.89 505.49 286.70 505.03   Q 273.75 473.95 277.99 439.76   C 286.02 375.01 330.87 323.74 384.37 290.40   Q 415.96 270.72 443.52 260.28   C 474.61 248.49 495.60 239.23 520.31 225.73   A 0.31 0.31 0.0 0 1 520.71 226.19   C 499.80 255.19 469.26 279.05 440.84 297.28   Q 440.39 297.57 440.92 297.65   Q 441.21 297.69 441.50 297.54   Z"></path>
    <path d="   M 676.50 604.29   L 676.61 604.93   A 1.04 1.00 63.2 0 1 676.34 605.80   Q 652.46 630.50 637.50 661.46   L 589.25 661.29   L 586.37 638.52   A 0.36 0.36 0.0 0 0 585.75 638.32   Q 575.68 649.14 567.67 661.41   Q 529.31 661.61 490.75 661.26   Q 488.37 661.24 487.27 661.53   Q 487.84 609.03 507.11 560.76   C 514.97 541.08 525.75 523.35 539.53 507.05   Q 541.94 504.20 544.60 502.48   C 542.13 520.84 543.89 539.36 548.81 557.24   Q 548.95 557.72 549.13 557.26   C 563.90 519.88 582.23 481.48 624.33 468.23   C 645.42 461.59 669.91 462.62 691.17 468.21   A 0.34 0.34 0.0 0 1 691.36 468.74   C 675.37 491.04 675.68 523.39 680.18 548.91   A 0.39 0.39 0.0 0 0 680.73 549.19   C 727.36 527.26 782.58 522.12 830.99 541.16   Q 837.03 543.53 849.10 549.60   C 882.45 566.38 917.01 580.99 954.89 585.09   A 0.40 0.39 -74.4 0 1 955.20 585.65   C 942.95 612.42 912.75 626.38 886.76 636.28   A 0.56 0.56 0.0 0 1 886.06 636.01   C 884.30 632.54 882.71 628.34 881.27 625.40   C 860.37 582.88 823.58 560.38 776.52 558.34   C 728.70 556.27 667.79 571.65 639.31 614.21   A 0.31 0.31 0.0 0 0 639.72 614.66   C 650.23 609.14 664.59 603.62 676.50 604.29   Z"></path>
  </g>
  <g fill="#d50000">
    <path d="   M 679.14 340.72   Q 678.66 340.58 678.36 340.25   A 0.35 0.35 0.0 0 1 678.59 339.67   C 689.44 338.80 701.24 337.58 711.24 337.77   C 739.65 338.32 763.09 342.07 771.96 373.10   A 0.76 0.75 71.2 0 1 771.52 374.01   C 756.23 380.19 740.02 382.12 725.66 373.33   C 719.55 369.59 711.76 361.79 706.80 356.96   Q 694.97 345.44 679.14 340.72   Z"></path>
    <path d="   M 220.75 731.42   L 243.98 683.37   A 0.30 0.30 0.0 0 1 244.25 683.20   L 252.57 683.28   A 0.30 0.30 0.0 0 1 252.83 683.71   L 216.87 758.25   A 0.30 0.30 0.0 0 1 216.45 758.38   L 199.59 749.10   A 0.30 0.30 0.0 0 1 199.43 748.85   L 195.75 673.09   A 0.30 0.30 0.0 0 1 196.19 672.80   L 217.31 683.12   A 0.30 0.30 0.0 0 1 217.48 683.38   L 220.18 731.30   A 0.30 0.30 0.0 0 0 220.75 731.42   Z"></path>
    <path d="   M 344.58 708.96   L 336.24 748.42   A 0.74 0.74 0.0 0 1 335.52 749.00   L 314.70 749.00   A 0.46 0.45 6.1 0 1 314.25 748.45   L 327.98 683.57   A 0.44 0.44 0.0 0 1 328.41 683.23   L 349.50 683.26   A 0.57 0.56 -4.1 0 1 350.06 683.74   L 356.11 723.30   A 0.25 0.24 -43.5 0 0 356.59 723.31   L 364.96 683.67   A 0.55 0.54 5.8 0 1 365.50 683.24   L 386.52 683.24   A 0.37 0.36 6.3 0 1 386.88 683.68   L 373.22 748.43   A 0.73 0.72 5.9 0 1 372.51 749.00   L 351.56 749.00   A 0.52 0.52 0.0 0 1 351.05 748.56   L 344.95 708.97   Q 344.79 707.94 344.58 708.96   Z"></path>
    <path d="   M 431.14 708.82   A 0.17 0.17 0.0 0 0 430.81 708.81   L 422.40 748.46   A 0.70 0.70 0.0 0 1 421.72 749.01   L 400.97 748.99   A 0.53 0.52 -83.8 0 1 400.46 748.35   L 414.14 683.72   A 0.58 0.57 -83.7 0 1 414.70 683.26   L 435.60 683.23   A 0.66 0.65 -4.0 0 1 436.25 683.79   L 442.30 723.43   A 0.21 0.20 47.2 0 0 442.70 723.45   L 451.10 683.78   A 0.66 0.65 -84.0 0 1 451.74 683.26   L 472.35 683.22   A 0.68 0.68 0.0 0 1 473.01 684.04   L 459.38 748.46   A 0.69 0.69 0.0 0 1 458.71 749.00   L 437.63 748.99   A 0.43 0.42 -4.8 0 1 437.21 748.64   L 431.14 708.82   Z"></path>
    <path d="   M 527.10 716.35   A 0.28 0.28 0.0 0 0 527.62 716.45   L 547.41 683.68   A 0.89 0.89 0.0 0 1 548.17 683.25   L 555.98 683.25   A 0.34 0.34 0.0 0 1 556.27 683.76   Q 543.43 704.98 530.69 726.08   Q 529.13 728.65 528.52 731.60   Q 525.81 744.69 522.95 757.80   A 0.64 0.64 0.0 0 1 522.04 758.24   L 503.33 749.20   A 0.55 0.55 0.0 0 1 503.03 748.59   C 504.50 742.23 507.96 731.49 506.80 725.24   Q 503.07 705.29 499.23 684.14   A 0.76 0.76 0.0 0 1 499.98 683.25   L 520.56 683.25   A 0.59 0.59 0.0 0 1 521.14 683.73   L 527.10 716.35   Z"></path>
    <path d="   M 757.96 683.59   L 744.20 748.76   A 0.30 0.30 0.0 0 1 743.91 749.00   L 722.53 749.00   A 0.30 0.30 0.0 0 1 722.24 748.64   L 736.02 683.48   A 0.30 0.30 0.0 0 1 736.31 683.24   L 757.67 683.23   A 0.30 0.30 0.0 0 1 757.96 683.59   Z"></path>
    <path d="   M 279.17 683.25   L 300.33 683.25   A 0.39 0.39 0.0 0 1 300.71 683.72   L 286.98 748.69   A 0.39 0.39 0.0 0 1 286.59 749.00   L 265.43 749.00   A 0.39 0.39 0.0 0 1 265.05 748.53   L 278.78 683.56   A 0.39 0.39 0.0 0 1 279.17 683.25   Z"></path>
    <path d="   M 589.15 691.50   L 572.28 691.50   A 0.39 0.39 0.0 0 1 571.92 690.97   L 574.83 683.50   A 0.39 0.39 0.0 0 1 575.20 683.25   L 629.25 683.25   A 0.39 0.39 0.0 0 1 629.63 683.72   L 628.07 691.19   A 0.39 0.39 0.0 0 1 627.69 691.50   L 611.92 691.50   A 0.39 0.39 0.0 0 0 611.53 691.81   L 599.30 748.69   A 0.39 0.39 0.0 0 1 598.91 749.00   L 577.95 749.00   A 0.39 0.39 0.0 0 1 577.57 748.53   L 589.53 691.97   A 0.39 0.39 0.0 0 0 589.15 691.50   Z"></path>
    <path d="   M 678.54 720.31   Q 667.96 720.21 657.40 720.25   C 650.37 720.27 644.21 719.21 645.59 710.56   Q 646.15 707.06 649.00 694.51   C 651.04 685.53 655.93 683.25 664.81 683.25   Q 686.56 683.23 708.30 683.28   A 0.45 0.45 0.0 0 1 708.74 683.82   L 705.05 701.78   A 0.59 0.58 -83.9 0 1 704.48 702.25   L 683.66 702.25   A 0.51 0.51 0.0 0 1 683.16 701.64   L 685.04 692.21   A 0.60 0.59 5.5 0 0 684.45 691.50   L 672.03 691.50   A 0.58 0.57 -83.7 0 0 671.47 691.96   L 667.29 711.54   A 0.38 0.37 -83.7 0 0 667.65 712.00   Q 680.17 711.99 692.74 712.02   C 700.47 712.04 701.55 717.55 700.28 724.05   Q 698.08 735.38 697.09 739.08   C 694.93 747.14 689.58 748.97 681.47 748.99   Q 659.47 749.02 637.45 748.99   A 0.38 0.37 6.6 0 1 637.08 748.53   L 641.31 730.38   A 0.82 0.82 0.0 0 1 642.11 729.75   L 662.44 729.75   A 0.78 0.78 0.0 0 1 663.20 730.69   L 661.21 740.17   A 0.48 0.48 0.0 0 0 661.68 740.75   L 674.13 740.75   A 0.81 0.80 5.7 0 0 674.92 740.11   L 678.99 720.86   A 0.46 0.46 0.0 0 0 678.54 720.31   Z"></path>
    <path d="   M 810.80 728.50   L 798.23 728.50   A 0.69 0.69 0.0 0 0 797.56 729.04   L 793.44 748.44   A 0.72 0.71 6.0 0 1 792.74 749.00   L 772.05 749.00   A 0.52 0.52 0.0 0 1 771.54 748.37   Q 777.16 721.23 782.89 694.25   C 784.94 684.63 791.16 683.25 800.45 683.24   Q 821.38 683.22 842.30 683.30   A 0.41 0.40 -84.1 0 1 842.69 683.79   L 829.10 748.38   A 0.78 0.78 0.0 0 1 828.34 749.00   L 807.79 749.00   A 0.60 0.60 0.0 0 1 807.20 748.28   L 811.25 729.05   A 0.46 0.45 6.1 0 0 810.80 728.50   Z   M 805.87 691.50   A 0.46 0.46 0.0 0 0 805.42 691.86   L 799.54 719.69   A 0.46 0.46 0.0 0 0 799.99 720.25   L 812.71 720.25   A 0.46 0.46 0.0 0 0 813.16 719.89   L 819.03 692.06   A 0.46 0.46 0.0 0 0 818.58 691.50   L 805.87 691.50   Z"></path>
  </g>
</svg>
