<svg xmlns="http://www.w3.org/2000/svg" width="200" height="200"><path fill="#1B89B7" d="M112.655 118.136c-10.112 3.74-28.932.814-37.921-5.093-22.14-14.548-25.138-44.734-24.388-68.903.2-6.435 2.906-6.298 8.142-9.08 7.124-3.352 15.174-5.442 22.868-6.894.395 4.36.163 9.476.273 13.92.521 20.944 2.5 43.602 14.14 61.646 1.216 1.888 2.547 4.255 4.37 5.58 3.306 3.291 6.156 5.527 10.493 7.489.496.224 1.978.808 2.023 1.335z"/><path fill="#28556C" d="M100.139 109.312c2.166-2.668 4.578-5.548 6.3-8.587 11.923-21.028 12.819-47.09 13.007-70.723.004-.577.016-1.055.446-1.411 2.604.888 5.168.996 7.766 1.764 6.729 1.988 16.037 5.082 21.691 9.266 4.132 27.785-3.568 70.887-36.101 78.464a3.44 3.44 0 01-.593.051c-.045-.527-1.527-1.111-2.023-1.335-4.337-1.962-7.187-4.198-10.493-7.489z"/><path fill="#FDE503" d="M38.576 47.21c1.44.594 1.46 4.604 1.487 6.066.345 17.807 4.584 36.987 15.319 51.519 1.168 1.582 4.082 4.52 4.708 6.174l-.277.5c-2.283.872-10.788-4.407-12.701-5.993-9.879-5.724-25.37-21.969-29.22-32.592 1.7-6.173 14.957-21.471 20.684-25.674z"/><path fill="#28556C" d="M161.264 48.142c.079.02.158.042.237.064 6.821 5.024 17.288 18.654 20.744 25.273-5.225 12.18-17.373 23.884-28.142 31.252-3.333 2.223-10.896 6.133-14.704 7.694.595-.66 1.421-1.362 2.047-2.032 14.712-15.747 19.92-41.579 19.818-62.252zm-45.987 84.956c5.83-.388 14.27 1.57 15.333 8.126 1.479 9.12 1.054 20.459.865 29.682-2.05-.219-5.685-.202-7.89-.281-.439-3.42-.333-9.801-.066-13.297-1.507.041-3.384-.041-4.919-.065l-8.558.013c.434 3.102.105 10.198-.184 13.448-2.5.071-5.015-.003-7.517-.052-.199-1.575-.386-3.497-.356-5.088.228-7.477-.505-15.264.733-22.656 1.315-7.859 5.532-9.137 12.559-9.83zm-5.574 18.596l8.857-.005c1.515-.014 3.714-.1 5.174-.008-.067-4.196.179-7.017-1.673-10.807-2.098-1.222-3.831-1.737-6.321-1.551-1.794.281-2.909.341-4.113 1.92-1.728 2.263-1.855 7.564-1.924 10.451zm-69.35-18.411c2.672.159 5.201.043 7.877-.028.332 2.29.061 4.541.08 6.764.047 5.803-.835 16.937.907 22.169 3.99 4.092 11.727 2.977 12.184-3.749.566-8.323.196-16.759.189-25.128 2.785.053 5.245.092 8.022-.043.086 1.575.033 3.506.03 5.11-.278 13.872 4.582 33.851-16.146 32.377-10.906-.191-13.42-6.97-13.132-16.842.19-6.525-.27-13.861-.011-20.63zm105.89.342c3.65-.323 10.296.063 14.391-.022.218 1.859.101 4.313.326 6.469-4.997-.139-11.629-.124-16.482.441.265 3.756.153 7.496.002 11.254 2.004-.078 10.375-.296 12.435.296.711.204.564 4.278.564 5.475-2.161-.073-4.433-.074-6.604-.105-2.253.001-4.227.03-6.475-.219.359 4.431.19 9.154.1 13.618-2.316-.155-5.575-.088-7.962-.108l-.022-.565c-.335-9.505-.031-20.262.282-29.855.179-5.501 4.772-6.526 9.445-6.679zm-71.043-.384c1.814.478 6.058.294 7.957.039-.106 3.171.08 7.47.068 10.807-.02 5.835-.55 13.824.284 19.41 4.959.339 10.194.466 15.14.008.136 1.779.118 5.224-.069 6.932-.522.43-1.959.425-2.591.358-7.399-.787-20.349 2.922-20.769-8.349-.249-6.686-.24-13.404-.083-20.105.065-2.765-.243-6.468.064-9.1z"/></svg>