<svg xmlns="http://www.w3.org/2000/svg" viewBox="0 0 36 36"><g opacity=".5"><path fill="#F9CA55" d="M28 18c0 7.73-6.27 14-14 14-7.732 0-14-6.27-14-14C0 10.269 6.268 4 14 4c7.73 0 14 6.269 14 14"/><ellipse fill="#65471B" cx="7" cy="16" rx="2" ry="3"/><ellipse fill="#65471B" cx="17" cy="16" rx="2" ry="3"/><circle fill="#65471B" cx="12" cy="25" r="3"/></g><g opacity=".8"><path fill="#F9CA55" d="M36 18c0 7.73-6.27 14-14 14-7.732 0-14-6.27-14-14 0-7.731 6.268-14 14-14 7.73 0 14 6.269 14 14"/><ellipse fill="#65471B" cx="19" cy="16" rx="2" ry="3"/><ellipse fill="#65471B" cx="29" cy="16" rx="2" ry="3"/><circle fill="#65471B" cx="24" cy="25" r="3"/></g><path d="M4.806 35.536a.742.742 0 01-.375-.101 15.013 15.013 0 01-3.97-3.332.75.75 0 111.149-.965 13.546 13.546 0 003.573 2.998.751.751 0 01-.377 1.4zm1.551-2.19a.742.742 0 01-.375-.101 13.465 13.465 0 01-3.539-2.97.75.75 0 111.149-.965 11.841 11.841 0 003.142 2.637.751.751 0 01-.377 1.399zm24.837 2.19a.751.751 0 01-.376-1.4 13.485 13.485 0 003.573-2.997.751.751 0 011.149.965 15.054 15.054 0 01-3.97 3.331.758.758 0 01-.376.101zm-1.551-2.19a.751.751 0 01-.376-1.4 11.887 11.887 0 003.142-2.637.75.75 0 011.149.965 13.372 13.372 0 01-3.539 2.97.737.737 0 01-.376.102zM1.035 5.129a.749.749 0 01-.574-1.233A14.997 14.997 0 014.431.565a.75.75 0 01.751 1.299 13.485 13.485 0 00-3.573 2.997.745.745 0 01-.574.268zm1.982 1.828a.749.749 0 01-.574-1.232 13.371 13.371 0 013.538-2.971.751.751 0 01.752 1.299 11.887 11.887 0 00-3.142 2.636.747.747 0 01-.574.268zm31.948-1.828a.749.749 0 01-.575-.268 13.546 13.546 0 00-3.573-2.998.751.751 0 01.751-1.299 15.013 15.013 0 013.97 3.332.75.75 0 01-.573 1.233zm-1.982 1.828a.747.747 0 01-.575-.268 11.841 11.841 0 00-3.142-2.637.751.751 0 01.751-1.299 13.465 13.465 0 013.539 2.97.75.75 0 01-.573 1.234z" fill="#55ACEE"/></svg>