<svg xmlns="http://www.w3.org/2000/svg" viewBox="0 0 1641 330.55"><path d="M1479.49 268.95c-89.86 54.88-179.5 49.23-205.08-6.19-3.57-7.72-5.83-16.1-6.82-24.98h142.69c26.24 0 71.71-11.56 89.5-32.26 24.48-28.45 4.93-41.75-3.27-44.03-1.98-.55-5.75-1.45-6.19-2.75-.8-2.64 10.39-2.51 10.39-2.51 9.27-1.73 42.85-10.24 54.56-37.82 11.24-26.51-19.11-34.32-38.23-33.94h-168.58c9.65-7.76 20.05-15.15 31.22-22 89.86-54.86 180.1-50.59 205.63 4.84 25.58 55.39-16 146.74-105.84 201.6m-197.94-101.88h140.28c12.35 0 11.91 19.61 3.84 28.66-11.14 12.46-31.82 18.68-52.92 18.68h-105.15c1.66-15.21 6.4-31.25 13.95-47.36m45.77-63.58h127.62c11.35 0 15.35 13.59 9.11 23.61-6.55 10.51-21.59 20.66-43.07 20.66h-128.97c9.35-15.18 21.16-30.16 35.32-44.28m301.57-64.33c-38.53-58.95-157.24-50.23-265.17 19.45-107.95 69.69-164.26 173.99-125.73 232.93 38.5 58.94 157.22 50.23 265.17-19.45 107.95-69.7 164.23-173.99 125.73-232.93M442.07 87.32l-91.73 143.26h57.49l91.75-143.3-57.51.04zm-96.71 34.09L303.85 187c-6.35 9.92-15.35 22.99-28.54 22.99-5.8 0-9.15-2.67-7.04-8.41 1.13-3.09 3.38-6.79 7.93-13.76l42.36-66.4-58.17.05-42 65.78c-5.33 8.14-7.84 14.08-8.89 16.96-9.26 25.34 14.3 29.2 26.84 29.2 28.22-.02 42.72-8.78 46.09-11.11l-3.96 8.31 54.48-.05 70.24-109.19-57.82.02h-.01zm-168.97 6.43c-4.07 6.57-13.15 15.12-20.6 17.83-5.59 1.85-10.94 1.84-19.11 1.75l-26.13-.25 23.38-37.02 29.97.32c5.37.02 10.97.08 14.16 3.74 3.03 3.46 1.41 8.99-1.66 13.65m-31.1 62.46c-11.5 17.82-31.91 17.64-37.77 17.58l-35.96-.34 25.58-39.86 34.43.34c6.88.05 25.44 3.82 13.73 22.28M194.29 156c19.62-1.92 20.28-4.05 31.91-13.37 5.48-4.4 14.58-16.25 15.57-25.13 2.81-25.66-26.81-30.01-58.74-30.01l-39.86.02-50.55-.02L0 230.73l122.5-.06c28.88 0 58.19-10.98 68.62-22.8 7.89-8.91 12.71-15.73 15.82-23.93 4.95-12.95-3.74-23.19-12.67-27.94m381.16-68.72l-57.48.03-91.74 143.24 57.51-.01 91.71-143.26zm516 49.46c3.5 0 8.66.49 10.7 2.34.88.74 1.11 1.9.61 3.58-.64 2.31-9.68 16.21-12.78 20.9l-30.26.02c8.96-14.74 17.47-26.85 31.71-26.85m31.78 65.53c1.57-2.14 3.03-4.23 4.43-6.22l1.96-2.8-58.86.9c-8.42 14.69-14.85 21.07-27.15 21.07-3.46 0-8.61-.49-10.69-2.37-.85-.74-1.11-1.9-.61-3.58.61-2.23 11.54-20.84 14.16-25.14l85.79-.85c5.86-9 9.87-14.91 14.76-22.72 2.97-4.65 5.69-9.41 7.02-14.08 3.77-13.48-6.29-20.6-18.49-24.21-12.35-3.63-28.13-4.2-38.8-4.2-49.06 0-67.36 13.76-76.14 22.75-8 8.11-36.3 47.78-40.42 62.37-3.5 12.48 2.62 18.81 9.73 22.63 14.03 7.65 39.25 8.41 48.16 8.41 31.55-.02 51.02-5.47 64.14-13.07 6.69-3.69 11.64-7.95 15.65-12.33 2.01-2.17 3.75-4.37 5.37-6.55m84.65-115.25l-91.74 143.27 57.51-.01 91.73-143.27-57.5.01zm-451.87 113.6c-3.08 1.35-7.18 3.33-11.64 5.01-4.63 1.75-9.47 3.11-13.83 3.11-3.93 0-4.84-1.43-5.18-2.67-.22-.79-.24-1.73-.11-2.75s.36-2.03.52-2.8c.32-1.35 5.83-12.13 14.66-15.63 6.02-2.33 20-5.48 31.77-7.56l-16.19 23.27zm43.13 26.53c-.41-.32-.64-.6-.8-.9-.3-.47-.58-1.38.02-3.56.17-.61.49-1.29.9-2.07.43-.79.88-1.57 1.26-2.34l40.54-62.16c2.8-4.07 5.33-8.3 6.55-12.63 5.91-21.73-28.5-25.85-57.61-25.85-18.75.02-36.39 1.85-50 5.75-18.24 5.23-23.63 11-35.32 28.6l-1.85 2.75 55.43-.8c5.37-8.06 14.03-17.05 25.64-17.05 3.5 0 8.64.47 10.7 2.34.88.74 1.09 1.9.61 3.58-.11.36-2.52 3.94-5.39 8.04-2.11 2.94-4.2 5.85-5.12 7.1-64.44 10.79-81.61 13.67-95 21.54-13.53 7.93-24.57 25.96-26.49 33-3.08 11.26 4.84 16.78 12.79 19.31 4.01 1.26 8.3 1.9 11.75 2.22 3.47.3 6.21.3 7.15.3 23.49 0 43.76-10.6 49.7-14.01l-4.84 11.16 65.29-.02-4.4-3.2c-.53-.36-1.05-.71-1.51-1.11m-158.26-84.82c-.24 1.37-1.18 3.2-2.45 5.06l-33.77 52.39c-2.53 4.13-6.46 10.13-19.61 10.13-9.92 0-11.45-3.03-11.16-4.78.02-.24 4.99-8.17 10.69-17.06 5.47-8.53 10.98-17.05 11.44-17.77l12.24-18.96c.74-1.18 1.71-2.64 2.92-4.24 1.21-1.56 2.69-3.2 4.46-4.65 3.52-2.94 8.31-5.33 15.02-5.33s10.62 2.62 10.21 5.23m49.45 8.9c10.79-29.59-19.99-32.51-28.63-32.51-15.68 0-30.12 3.39-40.82 8.97l4.16-6.46-56.5.02-100.44 156.23 57.82-.02 35.62-55.5 1.71-2.75c.32.44.66.91 1.02 1.35l1.09 1.3c.49.58 1.09 1.21 1.81 1.92 1.43 1.41 3.39 3.03 6.03 4.54 5.25 3.05 13.07 5.67 24.61 5.65 36.94 0 54.98-23.38 68.76-42.77 3.74-4.71 18.28-25.04 23.74-39.99m254.33-6.6c-.22.49-5.67 9.27-11.39 18.38l-11.75 18.68-10.56 16.7c-.74 1.13-1.57 2.41-2.61 3.71-1 1.24-2.2 2.47-3.69 3.54-2.97 2.15-7.27 3.84-14.14 3.84-3.08 0-6.19-.34-8.36-1.18-2.17-.85-2.73-1.84-2.56-2.94.22-1.3 1.84-4.18 3.18-6.14l33.06-52.26c2.53-4.12 6.42-10.12 19.58-10.12 8.75 0 9.98 6.08 9.24 7.76m39.24-57.51l-29.07 44.51c-4.79-13.23-25.28-14-34.93-14-36.94.02-54.98 23.4-68.76 42.79-3.74 4.73-18.28 25.06-23.74 39.99-10.84 29.59 19.94 32.53 28.63 32.51 20.37 0 35.26-7.1 42.85-11.8l-4.5 9.27 54.79-.02 92.57-143.3-57.82.05h-.01z" fill="#fff"/></svg>