<svg id="Livello_1" xmlns="http://www.w3.org/2000/svg" viewBox="0 0 1641 1080"><defs><style>.cls-2{fill:#fff}</style></defs><path class="cls-2" d="M1097.09 152.86c-51.79 25.55-103.58 51.09-155.38 76.63h-.02c31.58 12.17 63.14 24.4 94.69 36.65 19.53 7.59 42.71 17.12 51.24 40.38 8.76 23.89-4.13 45.19-15.53 63.18-17.23 27.2-34.47 54.4-51.71 81.6-61.34 96.79-122.71 193.57-184.27 290.21-.11-29.84-.18-59.68-.23-89.53l-.02-.06c23.55-74.62 46.53-149.4 68.69-224.45 6.29-21.31 12.51-42.64 18.66-63.99 3.7-12.86 1.31-20.58-10.98-26.69-31.37-15.62-62.75-31.2-94.14-46.76-31.39 15.56-62.77 31.15-94.14 46.76-12.29 6.12-14.68 13.83-10.98 26.69 6.15 21.35 12.37 42.68 18.66 63.99 22.15 75.05 45.14 149.83 68.69 224.45l-.02.06c-.05 29.84-.12 59.68-.23 89.53-61.56-96.65-122.93-193.43-184.27-290.21-17.24-27.2-34.47-54.4-51.71-81.6-11.39-17.98-24.29-39.29-15.53-63.18 8.53-23.27 31.71-32.8 51.24-40.38 31.55-12.26 63.11-24.48 94.69-36.66h-.02c-51.8-25.53-103.59-51.08-155.38-76.62l-.07-.07c16.16 27.26 32.3 54.53 48.44 81.81-26.71 10.33-53.41 20.67-80.1 31.03C451.29 177.13 395.16 88.64 339.28 0 498.72 56.98 657.99 114.41 818.1 169.48 978.21 114.41 1137.48 56.98 1296.92 0c-55.88 88.64-112.01 177.13-168.09 265.64-26.69-10.37-53.39-20.71-80.1-31.03 16.14-27.28 32.28-54.55 48.44-81.81"/><path d="M1057.59 958.07v36.62h195.48c4.14 0 7.5-3.13 7.5-7v-22.63c0-3.86-3.36-7-7.5-7h-195.48zm-49.28 121.83l-.16-155.99h253.43c23.55 0 42.63 14.52 42.63 36.49v32.28c0 22.53-14.91 37.8-29.96 37.8l33.73 49.53h-55.19l-29.08-47.56h-166.12v47.56l-49.29-.1z" fill="#fff" fill-rule="evenodd"/><path class="cls-2" d="M296.07 1080H42.63C19.08 1080 0 1062.19 0 1040.23v-76.55c0-21.96 19.09-39.77 42.63-39.77h253.43v42.72H51.15c-4.14 0-7.5 3.13-7.5 7v56.67c0 3.86 3.36 7 7.5 7h244.92v42.72zM632.3 923.9v116.33c0 21.97-19.09 39.77-42.63 39.77H378.51c-23.55 0-42.64-17.81-42.64-39.77V923.9h50.94v106.38c0 3.87 3.36 7 7.5 7h179.56c4.14 0 7.5-3.13 7.5-7V923.9h50.93zm960.8 70.69v-36.52h-193.49c-4.14 0-7.5 3.13-7.5 7v29.51c0-.52 131.93-.17 200.99.02zM1641 1080h-47.9v-47.56h-200.57V1080h-47.9l-.42-116.33c0-21.96 19.09-39.77 42.64-39.77h253.43c.45.31.7.16.73 0V1080zm-921.36-85.31h197.75c4.14 0 7.5-3.13 7.5-7v-22.63c0-3.86-3.36-7-7.5-7H719.64v36.62zM925.9 923.9c31.32 0 42.63 14.52 42.63 36.49v32.28c0 21.97-9.59 39.77-42.63 39.77H719.64V1080h-47.9V923.9H925.9z"/></svg>