<svg data-name="Livello 1" xmlns="http://www.w3.org/2000/svg" viewBox="0 0 269 150"><path d="M8.26 90.86H24.4l-1.22 5.55h-9.87l-2.27 10.81h7.7l-1.16 5.55H9.87l-3.6 16.91H0l8.26-38.82zm19.08 0h6.21l-8.27 38.82h-6.2l8.26-38.82zm15.8 17.47c2.22 0 3.49-1.11 4.05-3.88l.94-4.55c.11-.55.17-1 .17-1.39 0-1.61-.89-2.11-2.22-2.11h-2.94l-2.49 11.92h2.49zM38.1 90.86h8.93c4.88 0 7.54 2.49 7.54 6.88 0 .89-.11 1.83-.33 2.83l-.83 3.94c-1.33 6.21-4.49 9.37-10.87 9.37h-3.1l-3.33 15.81h-6.27l8.26-38.82zm33.93 5.55h-6.38l1.22-5.55h18.97l-1.22 5.55h-6.38l-7.04 33.27h-6.21l7.04-33.27zm22.02 24.84l4.49-21.24c.11-.5.17-1 .17-1.39 0-1.88-1.11-2.77-3.05-2.77-1.61 0-2.77.89-3.33 3.49l-4.49 21.24c-.11.5-.17.94-.17 1.33 0 1.94 1.16 2.77 3.11 2.77 1.55 0 2.72-.83 3.27-3.44m-12.59 1.18c0-.89.11-1.83.33-2.83l4.38-20.52c1.22-5.71 4.66-8.76 9.76-8.76 5.38 0 8.99 2.66 8.99 7.82 0 .89-.11 1.89-.34 2.88l-4.38 20.52c-1.22 5.71-4.6 8.71-9.76 8.71s-8.98-2.66-8.98-7.82m22.4.16c0-.94.11-1.94.33-2.99l6.16-28.73h6.21l-6.38 29.84c-.11.5-.17.94-.17 1.33 0 2 1.17 2.66 3.05 2.66 1.66 0 2.77-.89 3.27-3.38l6.49-30.45h5.99l-6.54 30.67c-1.16 5.6-4.43 8.71-9.59 8.71s-8.82-2.55-8.82-7.65m33.66-15.09c2.28 0 3.99-.94 4.77-4.33l.66-2.99c.17-.72.22-1.28.22-1.78 0-1.44-.72-2-2.33-2h-2.77l-2.39 11.09h1.83zm-4.49-16.64h8.93c4.71 0 7.48 2.22 7.48 6.65 0 .94-.11 1.89-.33 3l-.39 1.88c-.94 4.55-2.55 7.04-5.77 7.88v.06c1.94.66 2.83 2.38 2.83 4.82 0 1-.11 2.05-.39 3.22l-1.44 6.82c-.28 1.39-.55 2.55-.55 3.49 0 .33.05.66.11 1h-6.05c-.05-.5-.11-.94-.11-1.44 0-.72.11-1.72.5-3.55l1.5-7.1c.22-.94.33-1.72.33-2.33 0-1.72-.89-2.22-2.94-2.22h-2.22l-3.55 16.64h-6.21l8.26-38.82zm35.63-9.5h1.68l-11.38 53.46h-1.68l11.38-53.46zm5.8 48.4l1.11-5.33c.61-2.89 1.61-5.33 2.94-7.39 1.33-2.05 3.39-4.11 6.11-6.16 2.83-2.17 4.78-4 5.94-5.44 1.17-1.5 2-3.11 2.39-4.89.17-.61.22-1.28.22-1.94 0-1.83-1-2.72-2.94-2.72-1.78 0-2.94 1.17-3.44 3.44l-.94 4.55h-5.89l1-4.78c1.28-5.83 4.5-8.78 9.72-8.78 5.78 0 8.78 2.72 8.78 7.55 0 .78-.11 1.83-.39 3.11-1.06 4.83-4 9-10.61 14.11-4.39 3.33-5.78 5.17-6.39 7.83l-.28 1.28h11.66l-1.17 5.55h-17.83zm22.6-7.28c0-.89.11-1.83.33-2.83l4.39-20.55c1.17-5.72 4.67-8.78 9.77-8.78 5.55 0 9 2.78 9 7.83 0 .94-.11 1.89-.33 2.89l-4.39 20.55c-1.28 5.83-4.5 8.72-9.78 8.72-5.55 0-9-2.78-9-7.83zm12.61-1.16l4.5-21.27c.11-.5.17-.94.17-1.39 0-1.83-1-2.78-3.05-2.78-1.72 0-2.83 1.17-3.33 3.5l-4.5 21.27c-.11.5-.17.94-.17 1.33 0 1.83 1.06 2.78 3.11 2.78 1.72 0 2.78-1.17 3.28-3.44zm7.05 8.44l1.11-5.33c.61-2.89 1.61-5.33 2.94-7.39 1.33-2.05 3.39-4.11 6.11-6.16 2.83-2.17 4.78-4 5.94-5.44 1.17-1.5 2-3.11 2.39-4.89.17-.61.22-1.28.22-1.94 0-1.83-1-2.72-2.94-2.72-1.78 0-2.94 1.17-3.44 3.44l-.94 4.55h-5.89l1-4.78c1.28-5.83 4.5-8.78 9.72-8.78 5.78 0 8.78 2.72 8.78 7.55 0 .78-.11 1.83-.39 3.11-1.06 4.83-4 9-10.61 14.11-4.39 3.33-5.78 5.17-6.39 7.83l-.28 1.28h11.66l-1.17 5.55h-17.83zm31.49 0l1.5-7.05h-11.66l1.11-5.55 16.66-26.27h6.94l-5.61 26.27h2.89l-1.17 5.55h-2.89l-1.5 7.05h-6.28zm-3.39-12.61h6.05l3.33-15.44-9.39 15.44zM10.19 75.48l12.66-59.46h13.68c7.47 0 11.55 3.82 11.55 10.53 0 1.36-.17 2.8-.51 4.33l-1.27 6.03c-2.04 9.77-7.05 14.35-16.65 14.35h-4.76l-5.1 24.21h-9.6zm16.57-32.7h3.82c3.31 0 5.44-1.95 6.2-5.95l1.44-6.97c.17-.85.25-1.53.25-2.12 0-2.12-1.1-3.23-3.4-3.23h-4.5l-3.82 18.26zm15.96 32.7l12.66-59.46h13.68c7.39 0 11.47 3.48 11.47 10.19 0 1.36-.17 2.89-.51 4.59l-.59 2.89c-1.44 7.13-3.99 10.79-8.83 12.06v.08c2.89.93 4.33 3.4 4.33 7.39 0 1.61-.17 3.31-.59 4.93L72.13 68.6c-.59 2.8-.85 4.59-.85 5.35 0 .34.08.85.17 1.53h-9.26c-.08-1.02-.17-1.78-.17-2.21 0-1.27.25-3.06.76-5.44l2.29-10.87c.34-1.44.51-2.63.51-3.57 0-2.63-1.19-3.4-4.5-3.4h-3.4l-5.44 25.48h-9.51zm16.74-33.97h2.8c3.82 0 6.29-2.21 7.3-6.63l1.02-4.59c.25-.93.34-1.87.34-2.72 0-2.04-1.19-3.06-3.57-3.06H63.1L59.45 41.5zm19.02 22.84c0-1.36.17-2.8.51-4.33l6.71-31.43c1.78-8.75 7.13-13.42 14.95-13.42 8.49 0 13.76 4.25 13.76 11.98 0 1.44-.17 2.89-.51 4.42L107.19 63c-1.95 8.92-6.88 13.34-14.95 13.34-8.49 0-13.76-4.25-13.76-11.98zm19.29-1.78l6.88-32.53c.17-.76.25-1.44.25-2.12 0-2.8-1.53-4.25-4.67-4.25-2.63 0-4.33 1.78-5.1 5.35l-6.88 32.53a9.42 9.42 0 00-.25 2.04c0 2.8 1.61 4.25 4.76 4.25 2.63 0 4.25-1.78 5.01-5.27zm12.48 12.91l12.66-59.46h13.08l-2.97 43.15 15.37-43.15h13.42l-12.66 59.46h-9l9.6-45.02-16.56 45.02h-7.64l2.63-45.02-9.6 45.02h-8.32zm45.27 0l12.66-59.46h9.51l-12.66 59.46h-9.51zm16.91-10.19c0-1.7.17-3.48.59-5.27l.42-2.04h8.92l-.68 3.65c-.17.85-.25 1.61-.25 2.29 0 2.63 1.44 3.91 4.42 3.91 3.82 0 5.78-2.8 5.78-8.32 0-3.48-1.7-7.3-5.18-11.3-4.67-5.27-7.05-10.62-7.05-15.97 0-5.01 1.36-9.09 4.16-12.23 2.8-3.23 6.63-4.84 11.38-4.84 8.49 0 12.74 3.65 12.74 10.96 0 1.44-.25 3.23-.68 5.35l-.25 1.1h-8.92l.51-2.55c.17-.93.25-1.78.25-2.55 0-2.55-1.44-3.82-4.25-3.82-3.82 0-5.52 3.4-5.52 7.73 0 3.31 1.7 7.05 5.18 11.04 4.67 5.52 7.05 10.96 7.05 16.31s-1.44 9.43-4.25 12.74c-2.8 3.23-6.63 4.84-11.55 4.84-8.58 0-12.83-3.65-12.83-11.04zm30.23 10.19l12.66-59.46h25.48l-1.87 8.49h-15.88l-3.31 15.71h12.57l-1.78 8.49h-12.57l-3.91 18.26h15.88l-1.78 8.49h-25.48zm31.09-10.19c0-1.7.17-3.48.59-5.27l.42-2.04h8.92l-.68 3.65c-.17.85-.25 1.61-.25 2.29 0 2.63 1.44 3.91 4.42 3.91 3.82 0 5.78-2.8 5.78-8.32 0-3.48-1.7-7.3-5.18-11.3-4.67-5.27-7.05-10.62-7.05-15.97 0-5.01 1.36-9.09 4.16-12.23 2.8-3.23 6.63-4.84 11.38-4.84 8.49 0 12.74 3.65 12.74 10.96 0 1.44-.25 3.23-.68 5.35l-.25 1.1h-8.92l.51-2.55c.17-.93.25-1.78.25-2.55 0-2.55-1.44-3.82-4.25-3.82-3.82 0-5.52 3.4-5.52 7.73 0 3.31 1.7 7.05 5.18 11.04 4.67 5.52 7.05 10.96 7.05 16.31s-1.44 9.43-4.25 12.74c-2.8 3.23-6.63 4.84-11.55 4.84-8.58 0-12.83-3.65-12.83-11.04z" fill="#ff5001" stroke-width="0"/></svg>