<svg data-name="Livello 2" xmlns="http://www.w3.org/2000/svg" viewBox="0 0 269 150"><path d="M8.46 104.75h16.52l-1.25 5.68H13.62L11.3 121.5h7.89L18 127.18h-7.9l-3.69 17.31H0l8.46-39.74zm19.53 0h6.36l-8.46 39.74h-6.36l8.46-39.74zm16.18 17.88c2.27 0 3.58-1.13 4.15-3.97l.97-4.66c.11-.57.17-1.02.17-1.42 0-1.65-.91-2.16-2.27-2.16h-3.01l-2.55 12.21h2.55zM39 104.75h9.14c5 0 7.72 2.55 7.72 7.04 0 .91-.11 1.87-.34 2.89l-.85 4.03c-1.36 6.36-4.6 9.59-11.13 9.59h-3.18l-3.41 16.18h-6.41L39 104.74zm34.74 5.68h-6.53l1.25-5.68h19.42l-1.25 5.68H80.1l-7.21 34.06h-6.36l7.21-34.06zm22.54 25.43l4.6-21.74c.11-.51.17-1.02.17-1.42 0-1.93-1.14-2.84-3.12-2.84-1.65 0-2.84.91-3.41 3.57l-4.6 21.74c-.12.51-.17.97-.17 1.36 0 1.99 1.19 2.84 3.18 2.84 1.59 0 2.78-.85 3.35-3.52m-12.89 1.2c0-.91.11-1.87.34-2.89l4.49-21.01c1.25-5.85 4.77-8.97 9.99-8.97 5.51 0 9.2 2.73 9.2 8.01 0 .91-.12 1.93-.34 2.95l-4.49 21.01c-1.25 5.85-4.71 8.91-9.99 8.91s-9.2-2.72-9.2-8.01m22.94.17c0-.97.11-1.99.34-3.06l6.3-29.41h6.36l-6.53 30.55c-.11.51-.17.96-.17 1.36 0 2.04 1.19 2.72 3.12 2.72 1.7 0 2.84-.91 3.35-3.46l6.64-31.17h6.13l-6.7 31.4c-1.19 5.73-4.54 8.91-9.82 8.91s-9.03-2.61-9.03-7.84m34.47-15.44c2.33 0 4.09-.97 4.88-4.43l.68-3.06c.17-.74.23-1.31.23-1.82 0-1.48-.74-2.04-2.38-2.04h-2.84l-2.44 11.36h1.87zm-4.6-17.03h9.14c4.83 0 7.66 2.27 7.66 6.81 0 .97-.11 1.93-.34 3.07l-.4 1.93c-.96 4.66-2.61 7.21-5.9 8.06v.06c1.99.68 2.9 2.44 2.9 4.94 0 1.02-.12 2.1-.4 3.29l-1.48 6.98c-.29 1.42-.57 2.61-.57 3.58 0 .34.05.68.11 1.02h-6.19c-.05-.51-.11-.97-.11-1.48 0-.74.11-1.76.51-3.64l1.53-7.27c.23-.96.34-1.76.34-2.38 0-1.76-.91-2.27-3.01-2.27h-2.27l-3.64 17.03h-6.36l8.46-39.74zm36.47-9.72h1.72l-11.65 54.73h-1.72l11.65-54.73zm-18.11-84.09c-3.67 1.79-7.34 3.58-11 5.36 2.24.85 4.47 1.71 6.71 2.57 1.38.53 3.02 1.2 3.63 2.83.62 1.67-.29 3.16-1.1 4.42-1.22 1.9-2.44 3.81-3.66 5.71-4.34 6.77-8.69 13.55-13.05 20.31 0-2.09-.01-4.18-.02-6.27 1.67-5.23 3.3-10.46 4.86-15.71.45-1.49.89-2.98 1.32-4.48.26-.9.09-1.44-.78-1.87-2.22-1.09-4.44-2.18-6.67-3.27-2.22 1.09-4.45 2.18-6.67 3.27-.87.43-1.04.97-.78 1.87l1.32 4.48c1.57 5.25 3.2 10.49 4.86 15.71 0 2.09 0 4.18-.02 6.27-4.36-6.76-8.71-13.54-13.05-20.31-1.22-1.9-2.44-3.81-3.66-5.71-.81-1.26-1.72-2.75-1.1-4.42.6-1.63 2.25-2.3 3.63-2.83 2.23-.86 4.47-1.71 6.71-2.57-3.67-1.79-7.34-3.57-11-5.36 1.14 1.9 2.29 3.81 3.43 5.72-1.89.72-3.78 1.45-5.67 2.17-3.97-6.19-7.95-12.39-11.9-18.59 11.29 3.99 22.57 8.01 33.91 11.86 11.34-3.85 22.62-7.87 33.91-11.86-3.96 6.2-7.93 12.4-11.9 18.59-1.89-.73-3.78-1.45-5.67-2.17 1.14-1.91 2.29-3.82 3.43-5.73m10.72 76.12l-.03-28.36h41.54c3.86 0 6.99 2.64 6.99 6.63v5.87c0 4.1-2.44 6.87-4.91 6.87l5.53 9h-9.05l-4.77-8.65h-27.23v8.65l-8.08-.02zm8.08-22.15v6.66h32.04c.68 0 1.23-.57 1.23-1.27v-4.11c0-.7-.55-1.27-1.23-1.27h-32.04zm-21.59-6.21c5.13 0 6.99 2.64 6.99 6.63v5.87c0 3.99-1.57 7.23-6.99 7.23h-33.81v8.65h-7.85V58.69h41.66zm-33.81 12.87h32.42c.68 0 1.23-.57 1.23-1.27v-4.11c0-.7-.55-1.27-1.23-1.27h-32.42v6.66zM269 87.07h-7.85v-8.65h-32.88v8.65h-7.85l-.07-21.15c0-3.99 3.13-7.23 6.99-7.23h41.54c.07.06.12.03.12 0v28.38zm-7.85-15.53V64.9h-31.72c-.68 0-1.23.57-1.23 1.27v5.36c0-.09 21.63-.03 32.95 0m-157.5-12.84v21.15c0 3.99-3.13 7.23-6.99 7.23H62.05c-3.86 0-6.99-3.24-6.99-7.23V58.69h8.35v19.34c0 .7.55 1.27 1.23 1.27h29.43c.68 0 1.23-.57 1.23-1.27V58.69h8.35zM48.53 87.07H6.99C3.13 87.07 0 83.83 0 79.84V65.92c0-3.99 3.13-7.23 6.99-7.23h41.54v7.77H8.38c-.68 0-1.23.57-1.23 1.27v10.3c0 .7.55 1.27 1.23 1.27h40.15v7.77zm130.07 57.5l1.14-5.46c.63-2.96 1.65-5.46 3.01-7.56 1.36-2.1 3.47-4.21 6.25-6.31 2.9-2.22 4.89-4.09 6.08-5.57 1.19-1.54 2.05-3.18 2.44-5 .17-.63.23-1.31.23-1.99 0-1.88-1.02-2.79-3.01-2.79-1.82 0-3.01 1.19-3.53 3.53l-.97 4.66h-6.03l1.02-4.89c1.31-5.97 4.61-8.98 9.95-8.98 5.91 0 8.98 2.79 8.98 7.73 0 .8-.11 1.88-.4 3.18-1.08 4.95-4.09 9.21-10.86 14.44-4.49 3.41-5.91 5.29-6.54 8.02l-.28 1.31h11.94l-1.19 5.69h-18.25zm23.14-7.45c0-.91.11-1.88.34-2.9l4.49-21.04c1.19-5.86 4.78-8.98 10.01-8.98 5.69 0 9.21 2.84 9.21 8.02 0 .97-.11 1.93-.34 2.96l-4.49 21.04c-1.31 5.97-4.61 8.93-10.01 8.93-5.69 0-9.21-2.84-9.21-8.02zm12.9-1.19l4.61-21.78c.11-.51.17-.97.17-1.42 0-1.88-1.02-2.84-3.13-2.84-1.76 0-2.9 1.19-3.41 3.58l-4.61 21.78c-.11.51-.17.97-.17 1.36 0 1.88 1.08 2.84 3.18 2.84 1.76 0 2.84-1.19 3.35-3.53zm7.23 8.64l1.14-5.46c.63-2.96 1.65-5.46 3.01-7.56 1.36-2.1 3.47-4.21 6.25-6.31 2.9-2.22 4.89-4.09 6.08-5.57 1.19-1.54 2.05-3.18 2.44-5 .17-.63.23-1.31.23-1.99 0-1.88-1.02-2.79-3.01-2.79-1.82 0-3.01 1.19-3.53 3.53l-.97 4.66h-6.03l1.02-4.89c1.31-5.97 4.61-8.98 9.95-8.98 5.91 0 8.98 2.79 8.98 7.73 0 .8-.11 1.88-.4 3.18-1.08 4.95-4.09 9.21-10.86 14.44-4.49 3.41-5.91 5.29-6.54 8.02l-.28 1.31h11.94l-1.19 5.69h-18.25zm32.23 0l1.54-7.22H243.7l1.14-5.69 17.06-26.89h7.11l-5.74 26.89h2.96l-1.19 5.69h-2.96l-1.54 7.22h-6.42zm-3.47-12.9h6.2l3.41-15.81-9.61 15.81z" fill="#fff" stroke-width="0"/></svg>