<svg xmlns="http://www.w3.org/2000/svg" id="Livello_2" data-name="Livello 2" viewBox="0 0 459.74 181.56"><defs><style>.cls-1{fill:#002c5c}</style></defs><g id="Livello_1-2" data-name="Livello 1"><path class="cls-1" d="M112.31 90.78c0-44.27-17.18-81.09-42.8-89.11C72.9.61 76.4 0 79.98 0c30.64 0 49.82 40.64 49.82 90.78s-19.19 90.78-49.82 90.78c-3.58 0-7.08-.61-10.47-1.67 25.62-8.02 42.8-44.84 42.8-89.11"/><path class="cls-1" d="M87.57 71.12c0 3.41 1.43 6.17 3.19 6.17s3.19-2.76 3.19-6.17-1.43-6.17-3.19-6.17-3.19 2.76-3.19 6.17m0 19.66c0 3.41 1.43 6.17 3.19 6.17s3.19-2.76 3.19-6.17-1.43-6.17-3.19-6.17-3.19 2.76-3.19 6.17m0 19.66c0 3.41 1.43 6.17 3.19 6.17s3.19-2.76 3.19-6.17-1.43-6.17-3.19-6.17-3.19 2.76-3.19 6.17M76.59 51.45c0 3.41 1.43 6.17 3.19 6.17s3.19-2.76 3.19-6.17-1.43-6.17-3.19-6.17-3.19 2.76-3.19 6.17m0 19.67c0 3.41 1.43 6.17 3.19 6.17s3.19-2.76 3.19-6.17-1.43-6.17-3.19-6.17-3.19 2.76-3.19 6.17m0 19.66c0 3.41 1.43 6.17 3.19 6.17s3.19-2.76 3.19-6.17-1.43-6.17-3.19-6.17-3.19 2.76-3.19 6.17m0 19.66c0 3.41 1.43 6.17 3.19 6.17s3.19-2.76 3.19-6.17-1.43-6.17-3.19-6.17-3.19 2.76-3.19 6.17m0 19.66c0 3.41 1.43 6.17 3.19 6.17s3.19-2.76 3.19-6.17-1.43-6.17-3.19-6.17-3.19 2.76-3.19 6.17M65.62 31.79c0 3.41 1.43 6.17 3.19 6.17S72 35.2 72 31.79s-1.43-6.17-3.19-6.17-3.19 2.76-3.19 6.17m0 19.66c0 3.41 1.43 6.17 3.19 6.17S72 54.86 72 51.45s-1.43-6.17-3.19-6.17-3.19 2.76-3.19 6.17m0 19.67c0 3.41 1.43 6.17 3.19 6.17S72 74.53 72 71.12s-1.43-6.17-3.19-6.17-3.19 2.76-3.19 6.17m0 19.66c0 3.41 1.43 6.17 3.19 6.17S72 94.19 72 90.78s-1.43-6.17-3.19-6.17-3.19 2.76-3.19 6.17m0 19.66c0 3.41 1.43 6.17 3.19 6.17s3.19-2.76 3.19-6.17-1.43-6.17-3.19-6.17-3.19 2.76-3.19 6.17m0 19.66c0 3.41 1.43 6.17 3.19 6.17S72 133.51 72 130.1s-1.43-6.17-3.19-6.17-3.19 2.76-3.19 6.17m0 19.67c0 3.41 1.43 6.17 3.19 6.17s3.19-2.76 3.19-6.17-1.43-6.17-3.19-6.17-3.19 2.76-3.19 6.17M54.64 31.79c0 3.41 1.43 6.17 3.19 6.17s3.19-2.76 3.19-6.17-1.43-6.17-3.19-6.17-3.19 2.76-3.19 6.17m0 19.66c0 3.41 1.43 6.17 3.19 6.17s3.19-2.76 3.19-6.17-1.43-6.17-3.19-6.17-3.19 2.76-3.19 6.17m0 19.67c0 3.41 1.43 6.17 3.19 6.17s3.19-2.76 3.19-6.17-1.43-6.17-3.19-6.17-3.19 2.76-3.19 6.17m0 19.66c0 3.41 1.43 6.17 3.19 6.17s3.19-2.76 3.19-6.17-1.43-6.17-3.19-6.17-3.19 2.76-3.19 6.17m0 19.66c0 3.41 1.43 6.17 3.19 6.17s3.19-2.76 3.19-6.17-1.43-6.17-3.19-6.17-3.19 2.76-3.19 6.17m0 19.66c0 3.41 1.43 6.17 3.19 6.17s3.19-2.76 3.19-6.17-1.43-6.17-3.19-6.17-3.19 2.76-3.19 6.17m0 19.67c0 3.41 1.43 6.17 3.19 6.17s3.19-2.76 3.19-6.17-1.43-6.17-3.19-6.17-3.19 2.76-3.19 6.17M43.67 31.79c0 3.41 1.43 6.17 3.19 6.17s3.19-2.76 3.19-6.17-1.43-6.17-3.19-6.17-3.19 2.76-3.19 6.17m0 19.66c0 3.41 1.43 6.17 3.19 6.17s3.19-2.76 3.19-6.17-1.43-6.17-3.19-6.17-3.19 2.76-3.19 6.17m0 19.67c0 3.41 1.43 6.17 3.19 6.17s3.19-2.76 3.19-6.17-1.43-6.17-3.19-6.17-3.19 2.76-3.19 6.17m0 19.66c0 3.41 1.43 6.17 3.19 6.17s3.19-2.76 3.19-6.17-1.43-6.17-3.19-6.17-3.19 2.76-3.19 6.17m0 19.66c0 3.41 1.43 6.17 3.19 6.17s3.19-2.76 3.19-6.17-1.43-6.17-3.19-6.17-3.19 2.76-3.19 6.17m0 19.66c0 3.41 1.43 6.17 3.19 6.17s3.19-2.76 3.19-6.17-1.43-6.17-3.19-6.17-3.19 2.76-3.19 6.17m0 19.67c0 3.41 1.43 6.17 3.19 6.17s3.19-2.76 3.19-6.17-1.43-6.17-3.19-6.17-3.19 2.76-3.19 6.17M32.69 51.45c0 3.41 1.43 6.17 3.19 6.17s3.19-2.76 3.19-6.17-1.43-6.17-3.19-6.17-3.19 2.76-3.19 6.17m0 19.67c0 3.41 1.43 6.17 3.19 6.17s3.19-2.76 3.19-6.17-1.43-6.17-3.19-6.17-3.19 2.76-3.19 6.17m0 19.66c0 3.41 1.43 6.17 3.19 6.17s3.19-2.76 3.19-6.17-1.43-6.17-3.19-6.17-3.19 2.76-3.19 6.17m0 19.66c0 3.41 1.43 6.17 3.19 6.17s3.19-2.76 3.19-6.17-1.43-6.17-3.19-6.17-3.19 2.76-3.19 6.17m0 19.66c0 3.41 1.43 6.17 3.19 6.17s3.19-2.76 3.19-6.17-1.43-6.17-3.19-6.17-3.19 2.76-3.19 6.17M21.71 71.12c0 3.41 1.43 6.17 3.19 6.17s3.19-2.76 3.19-6.17-1.43-6.17-3.19-6.17-3.19 2.76-3.19 6.17m0 19.66c0 3.41 1.43 6.17 3.19 6.17s3.19-2.76 3.19-6.17-1.43-6.17-3.19-6.17-3.19 2.76-3.19 6.17m0 19.66c0 3.41 1.43 6.17 3.19 6.17s3.19-2.76 3.19-6.17-1.43-6.17-3.19-6.17-3.19 2.76-3.19 6.17M.41 91.81l7.26 11.96c.94 1.01 2.63.34 2.63-1.03V78.83c0-1.38-1.69-2.04-2.63-1.03L.41 89.74c-.54.58-.54 1.48 0 2.07m157.07-78.3h7.16v45.54h-7.16zm18.74 12.56v32.99h-6.44V13.51h8.98l7.35 27.27V13.51h6.38v45.55h-7.36l-8.91-32.99zm19.33-12.56h22.12v6.51h-7.48v39.03h-7.16V20.02h-7.48v-6.51zm32.4 19.19h9.83v6.51h-9.83v13.34h12.37v6.51H220.8V13.51h19.52v6.51h-12.37V32.7zm31.78 26.35c-.39-1.17-.65-1.89-.65-5.6V46.3c0-4.23-1.43-5.79-4.68-5.79h-2.48v18.54h-7.15V13.51h10.8c7.41 0 10.6 3.45 10.6 10.48v3.58c0 4.68-1.49 7.74-4.68 9.23 3.57 1.5 4.74 4.95 4.74 9.7v7.02c0 2.22.07 3.84.78 5.53h-7.29zm-7.81-39.03v13.99h2.8c2.67 0 4.29-1.17 4.29-4.81v-4.49c0-3.25-1.1-4.68-3.64-4.68h-3.45zm25.39 6.05v32.99h-6.45V13.51h8.98l7.35 27.27V13.51h6.37v45.55h-7.35l-8.9-32.99zm44.57 32.99h-7.22l-1.23-8.26h-8.79l-1.23 8.26h-6.57l7.29-45.54h10.47l7.29 45.54zm-16.33-14.44h6.9l-3.46-23.03-3.44 23.03zm17.58-31.11h22.11v6.51h-7.48v39.03h-7.15V20.02h-7.48v-6.51zm25.26 0h7.15v45.54h-7.15zm11.77 10.94c0-7.29 3.84-11.45 10.86-11.45s10.87 4.16 10.87 11.45v23.68c0 7.29-3.84 11.45-10.87 11.45s-10.86-4.16-10.86-11.45V24.45zm7.16 24.13c0 3.25 1.43 4.49 3.7 4.49s3.71-1.23 3.71-4.49V23.99c0-3.26-1.43-4.49-3.71-4.49s-3.7 1.23-3.7 4.49v24.59zm25.58-22.51v32.99h-6.45V13.51h8.98l7.35 27.27V13.51h6.38v45.55h-7.35l-8.91-32.99zm44.58 32.99h-7.22l-1.23-8.26h-8.79l-1.23 8.26h-6.57l7.29-45.54h10.47l7.29 45.54zm-16.33-14.44h6.9l-3.46-23.03-3.44 23.03zm19.65-31.11h7.16v39.04h11.78v6.5H440.8V13.51zM178.69 79.49v5.92c0 7.29-3.51 11.25-10.67 11.25h-3.38v17.11h-7.16V68.23h10.54c7.16 0 10.67 3.97 10.67 11.26m-14.05-4.75v15.42h3.38c2.28 0 3.52-1.04 3.52-4.3v-6.83c0-3.25-1.23-4.29-3.52-4.29h-3.38zm40.02 39.03h-7.22l-1.24-8.26h-8.78l-1.23 8.26h-6.57l7.29-45.54h10.48l7.29 45.54zm-16.33-14.44h6.89l-3.45-23.03-3.45 23.03zm19.65-31.1h11.32c7.16 0 10.68 3.97 10.68 11.26v23.03c0 7.29-3.52 11.26-10.68 11.26h-11.32V68.24zm7.16 6.51v32.53h4.03c2.28 0 3.65-1.17 3.65-4.43V79.16c0-3.26-1.37-4.43-3.65-4.43h-4.03zm26.56 12.68h9.83v6.51h-9.83v13.34h12.36v6.5h-19.51V68.23h19.51v6.51H241.7v12.68zm16.81-19.19h7.14v39.04h11.79v6.5h-18.93V68.23zm-93.87 74.95h9.23v6.51h-9.23v18.8h-7.16v-45.54h18.93v6.51h-11.77v13.72zm22.39-1.04h9.82v6.51h-9.82v13.34h12.36v6.5h-19.52v-45.54h19.52v6.51h-12.36v12.68zm16.79-19.19h11.32c7.16 0 10.67 3.97 10.67 11.26v23.03c0 7.29-3.51 11.26-10.67 11.26h-11.32v-45.54zm7.16 6.51v32.53h4.03c2.28 0 3.64-1.17 3.64-4.43v-23.68c0-3.26-1.36-4.43-3.64-4.43h-4.03zm26.55 12.68h9.83v6.51h-9.83v13.34h12.36v6.5h-19.52v-45.54h19.52v6.51h-12.36v12.68zm31.76 26.35c-.4-1.17-.65-1.89-.65-5.6v-7.15c0-4.23-1.43-5.79-4.68-5.79h-2.48v18.54h-7.16v-45.54h10.81c7.42 0 10.6 3.45 10.6 10.48v3.58c0 4.68-1.49 7.74-4.68 9.23 3.57 1.5 4.74 4.95 4.74 9.7v7.02c0 2.22.07 3.84.78 5.53h-7.29zm-7.81-39.03v13.99h2.8c2.67 0 4.29-1.17 4.29-4.81v-4.49c0-3.25-1.1-4.68-3.64-4.68h-3.45zm42.18 39.03h-7.22l-1.23-8.26h-8.79l-1.23 8.26h-6.57l7.29-45.54h10.47l7.29 45.54zm-16.33-14.44h6.9l-3.46-23.03-3.44 23.03zm17.58-31.1h22.11v6.51h-7.48v39.03h-7.15v-39.03h-7.48v-6.51zm25.26 0h7.15v45.54h-7.15zm11.77 10.93c0-7.29 3.84-11.45 10.86-11.45s10.87 4.16 10.87 11.45v23.68c0 7.29-3.84 11.45-10.87 11.45s-10.86-4.16-10.86-11.45v-23.68zm7.16 24.13c0 3.25 1.43 4.49 3.7 4.49s3.71-1.23 3.71-4.49v-24.59c0-3.26-1.43-4.49-3.71-4.49s-3.7 1.23-3.7 4.49v24.59zm25.58-22.5v32.98h-6.45v-45.54h8.98l7.35 27.26v-27.26h6.38v45.54h-7.35l-8.91-32.98z"/></g></svg>