<svg id="Livello_1" xmlns="http://www.w3.org/2000/svg" viewBox="0 0 1182 424.26"><defs><style>.cls-1{fill:#fff}</style></defs><path class="cls-1" d="M0 197.78c0-34.99 28.35-63.34 63.34-63.34 15.85 0 30.3 5.86 41.42 15.48 11.11-9.62 25.56-15.48 41.42-15.48 34.99 0 63.34 28.35 63.34 63.34v147.75h-43.85V197.78c0-10.76-8.73-19.49-19.49-19.49s-19.49 8.73-19.49 19.49v147.75H82.84V197.78c0-10.76-8.73-19.49-19.49-19.49s-19.49 8.73-19.49 19.49v147.75H0V197.78zm514.04-63.34c-34.99 0-63.34 28.35-63.34 63.34v84.41c0 34.99 28.35 63.34 63.34 63.34s63.34-28.35 63.34-63.34v-84.41c0-34.99-28.35-63.34-63.34-63.34zm19.49 147.75c0 10.76-8.73 19.49-19.49 19.49s-19.49-8.73-19.49-19.49v-84.41c0-10.76 8.73-19.49 19.49-19.49s19.49 8.73 19.49 19.49v84.41zM383.3 134.44h43.85v230.55c0 31.46-25.5 56.97-56.97 56.97h-26.56v-43.85h26.56c7.24 0 13.11-5.87 13.11-13.11V134.45h.01zm261.48 211.09h-43.85V191.4c0-31.46 25.5-56.97 56.97-56.97h46.75v43.85H657.9c-7.24 0-13.11 5.87-13.11 13.11v154.13h-.01zm-285.04-86.67v-61.08c0-34.99-28.35-63.34-63.34-63.34s-63.34 28.35-63.34 63.34v90.78c0 31.46 25.5 56.97 56.97 56.97h53.47v-43.85h-53.47c-7.24 0-13.11-5.87-13.11-13.11v-29.71h82.83-.01zm-82.83-61.08c0-10.76 8.73-19.49 19.49-19.49s19.49 8.73 19.49 19.49V215H276.9v-17.22zm902.38-51.65V87.24h-60.3V1.97h-54.92v127.64c-8.07-38.59-42.28-67.58-83.26-67.58-38.28 0-70.64 25.28-81.32 60.06-10.68-34.77-43.01-60.06-81.28-60.06-46.99 0-85.07 38.09-85.07 85.07s38.09 85.07 85.07 85.07c16.65 0 30.14 13.5 30.14 30.14s-13.5 30.14-30.14 30.14-30.14-13.5-30.14-30.14H733.2c.99 46.13 38.67 83.21 85.02 83.21 38.25 0 70.59-25.24 81.3-59.98 10.71 34.74 43.06 59.98 81.3 59.98 42.83 0 78.22-31.66 84.14-72.86 5.92 41.2 41.35 72.86 84.18 72.86h30.14v-53.07h-30.14c-16.65 0-30.14-13.5-30.14-30.14V146.13h60.3zm-283.54.97v78.38c-13.34-29.52-43.03-50.09-77.53-50.09-16.65 0-30.14-13.5-30.14-30.14s13.5-30.14 30.14-30.14 30.14 13.5 30.14 30.14h47.44c-.01.62-.05 1.23-.05 1.85zm54.91-1.86c0-16.65 13.5-30.14 30.14-30.14s30.14 13.5 30.14 30.14v28.03h-60.3v-28.03zm60.3 117.08c0 16.65-13.5 30.14-30.14 30.14s-30.14-13.5-30.14-30.14v-30.14h113.41v28.29c0 .62.03 1.23.05 1.85h-53.17zM446.68 83.68c5.2-3 7.94-7.04 11.11-11.71 4.91-7.24 10.74-15.75 27.25-22.29-.92-17.23-10.09-32.24-23.69-41.13-13.87 11-24.13 11.84-32.84 12.47 5.72 9.14 9.05 19.91 9.05 31.47 0 13.29-4.4 25.54-11.79 35.46 7.01.82 14.33-.48 20.91-4.28zm-23.14-69.44c1.45-.15 2.89-.26 4.31-.36 7.48-.54 15.64-1.17 26.6-9.09C447.82 1.76 440.47.02 432.7.02c-7.14 0-13.94 1.44-20.14 4.02 4.08 2.93 7.76 6.36 10.99 10.2z"/><path class="cls-1" d="M463.73 76c-3.36 4.95-6.83 10.07-13.46 13.9a40.945 40.945 0 01-20.51 5.51c-3.17 0-6.31-.42-9.38-1.14a61.544 61.544 0 01-7.81 6.69c6.2 2.58 13 4.02 20.14 4.02 27.29 0 49.71-20.84 52.23-47.49-12.35 5.53-16.98 12.29-21.2 18.5zm-46.97-25.44c.61 5.95 1.24 12.1-1.38 19.3-3.76 10.33-11.32 18.58-21.29 23.23-5.53 2.58-11.44 3.88-17.37 3.88-4.75 0-9.51-.83-14.1-2.5-21.33-7.76-32.37-31.44-24.61-52.78 2.62-7.2 7.06-11.5 11.35-15.67 5.38-5.22 11.23-10.96 14.53-24.06-22.18 6.13-38.49 26.4-38.49 50.54 0 28.98 23.49 52.48 52.48 52.48s52.48-23.49 52.48-52.48c0-11.05-3.43-21.28-9.26-29.74-5.9 12.17-5.11 20.33-4.34 27.8h.01z"/><path class="cls-1" d="M354.35 31.17c-4.05 3.93-7.55 7.33-9.6 12.97-6.41 17.61 2.7 37.16 20.32 43.57 8.53 3.1 17.76 2.7 25.99-1.14 8.23-3.84 14.47-10.65 17.57-19.18 2.06-5.65 1.56-10.5.98-16.11-.89-8.7-1.89-18.97 6.56-34.61C406.6 6.44 393.02 0 377.9 0c-2.14 0-4.23.17-6.31.41-3.57 17.42-10.94 24.65-17.22 30.74v.02zm124.67 347.85c2.2 1.19 3.91 2.87 5.12 5.05s1.82 4.68 1.82 7.5-.63 5.22-1.88 7.33c-1.25 2.11-3.02 3.75-5.28 4.92-2.27 1.17-4.88 1.75-7.82 1.75h-9.38c-.22 0-.33.11-.33.33v16.84c0 .22-.08.41-.23.56-.16.16-.34.23-.56.23h-7.73a.77.77 0 01-.56-.23.732.732 0 01-.23-.56v-44.72c0-.22.08-.41.23-.56a.77.77 0 01.56-.23h18.62c2.91 0 5.46.59 7.66 1.78zm-4.16 17.34c1.23-1.17 1.85-2.7 1.85-4.59s-.62-3.5-1.85-4.69-2.86-1.78-4.89-1.78h-8.39c-.22 0-.33.11-.33.33v12.15c0 .22.11.33.33.33h8.39c2.02 0 3.65-.58 4.89-1.75zm41.28 26.58l-8.25-18.29c-.09-.18-.22-.26-.4-.26h-6.14c-.22 0-.33.11-.33.33v18.03c0 .22-.08.41-.23.56-.15.16-.34.23-.56.23h-7.73a.77.77 0 01-.56-.23.77.77 0 01-.23-.56V378.1c0-.22.08-.41.23-.56a.77.77 0 01.56-.23h18.89c2.82 0 5.29.57 7.43 1.72 2.13 1.15 3.79 2.77 4.95 4.89 1.17 2.11 1.75 4.56 1.75 7.33 0 2.99-.75 5.56-2.25 7.69-1.5 2.14-3.59 3.64-6.27 4.52-.22.09-.29.24-.2.46l8.98 18.69c.09.18.13.31.13.4 0 .35-.24.53-.73.53h-8.12c-.44 0-.75-.2-.92-.6zm-15.12-37.31v11.29c0 .22.11.33.33.33H510c1.85 0 3.36-.55 4.52-1.65 1.17-1.1 1.75-2.53 1.75-4.29s-.58-3.2-1.75-4.33c-1.17-1.12-2.67-1.68-4.52-1.68h-8.65c-.22 0-.33.11-.33.33zm63.1-.56a.77.77 0 01-.56.23H541.9c-.22 0-.33.11-.33.33v10.24c0 .22.11.33.33.33h14.2c.22 0 .41.08.56.23.15.15.23.34.23.56v6.41c0 .22-.08.41-.23.56a.77.77 0 01-.56.23h-14.2c-.22 0-.33.11-.33.33v10.7c0 .22.11.33.33.33h21.66a.787.787 0 01.79.79v6.4c0 .22-.08.41-.23.56-.15.16-.34.23-.56.23h-30.51a.77.77 0 01-.56-.23.77.77 0 01-.23-.56v-44.65c0-.22.08-.41.23-.56a.77.77 0 01.56-.23h30.51a.787.787 0 01.79.79v6.41c0 .22-.08.41-.23.56zm37.35-7.76h7.73a.787.787 0 01.79.79v44.65c0 .22-.08.41-.23.56s-.34.23-.56.23h-7.73a.77.77 0 01-.56-.23.77.77 0 01-.23-.56v-29.12c0-.18-.05-.27-.13-.27s-.18.07-.27.2l-7 10.96c-.22.35-.53.53-.92.53h-3.9c-.4 0-.7-.17-.92-.53l-7-10.96c-.09-.13-.18-.19-.26-.17-.09.02-.13.12-.13.3v29.05c0 .22-.08.41-.23.56-.15.16-.34.23-.56.23h-7.73a.77.77 0 01-.56-.23.77.77 0 01-.23-.56v-44.65c0-.22.08-.41.23-.56a.77.77 0 01.56-.23h7.73c.4 0 .7.18.92.53l9.91 15.39c.13.27.26.27.4 0l9.97-15.39c.22-.35.53-.53.92-.53zm16.8 45.99a.77.77 0 01-.23-.56v-44.65c0-.22.08-.41.23-.56a.77.77 0 01.56-.23h7.73a.787.787 0 01.79.79v44.65c0 .22-.08.41-.23.56s-.34.23-.56.23h-7.73a.77.77 0 01-.56-.23zm24.97-1.22c-2.58-1.32-4.58-3.18-6.01-5.58s-2.15-5.16-2.15-8.29V378.1c0-.22.08-.41.23-.56a.77.77 0 01.56-.23h7.73a.787.787 0 01.79.79v30.18c0 2.33.72 4.22 2.15 5.65 1.43 1.43 3.31 2.15 5.65 2.15s4.21-.72 5.65-2.15c1.43-1.43 2.15-3.31 2.15-5.65V378.1c0-.22.08-.41.23-.56a.77.77 0 01.56-.23h7.73a.787.787 0 01.79.79v30.11c0 3.13-.72 5.89-2.15 8.29-1.43 2.4-3.43 4.26-6.01 5.58s-5.56 1.98-8.95 1.98-6.37-.66-8.95-1.98zm64.36-44.77h7.73a.787.787 0 01.79.79v44.65c0 .22-.08.41-.23.56s-.34.23-.56.23h-7.73a.77.77 0 01-.56-.23.77.77 0 01-.23-.56v-29.12c0-.18-.05-.27-.13-.27s-.18.07-.27.2l-7 10.96c-.22.35-.53.53-.92.53h-3.9c-.4 0-.7-.17-.92-.53l-7-10.96c-.09-.13-.18-.19-.27-.17s-.13.12-.13.3v29.05c0 .22-.08.41-.23.56s-.34.23-.56.23h-7.73a.77.77 0 01-.56-.23.77.77 0 01-.23-.56v-44.65c0-.22.08-.41.23-.56a.77.77 0 01.56-.23h7.73c.4 0 .7.18.92.53l9.91 15.39c.13.27.26.27.4 0l9.97-15.39c.22-.35.53-.53.92-.53zm56.54 1.71c2.2 1.19 3.91 2.87 5.12 5.05 1.21 2.18 1.82 4.68 1.82 7.5s-.63 5.22-1.88 7.33c-1.25 2.11-3.02 3.75-5.28 4.92-2.27 1.17-4.88 1.75-7.82 1.75h-9.38c-.22 0-.33.11-.33.33v16.84c0 .22-.08.41-.23.56-.15.16-.34.23-.56.23h-7.73a.77.77 0 01-.56-.23.732.732 0 01-.23-.56v-44.72c0-.22.08-.41.23-.56a.77.77 0 01.56-.23h18.62c2.9 0 5.46.59 7.66 1.78zm-4.16 17.34c1.23-1.17 1.85-2.7 1.85-4.59s-.62-3.5-1.85-4.69-2.86-1.78-4.89-1.78h-8.39c-.22 0-.33.11-.33.33v12.15c0 .22.11.33.33.33h8.39c2.03 0 3.65-.58 4.89-1.75zm41.67 26.51l-1.98-6.47c-.09-.18-.2-.26-.33-.26H783.1c-.13 0-.24.09-.33.26l-1.92 6.47c-.13.44-.42.66-.86.66h-8.39c-.26 0-.46-.08-.59-.23-.13-.15-.16-.38-.07-.69l14.26-44.65c.13-.44.42-.66.86-.66h10.37c.44 0 .73.22.86.66l14.26 44.65c.04.09.07.2.07.33 0 .4-.24.6-.73.6h-8.39c-.44 0-.73-.22-.86-.66h.01zm-16.25-13.93h11.62c.26 0 .35-.13.26-.4l-5.94-19.61c-.04-.18-.11-.25-.2-.23s-.16.1-.2.23l-5.81 19.61c-.05.27.04.4.26.4h.01zm32.26 14.36a.77.77 0 01-.23-.56v-44.65c0-.22.08-.41.23-.56a.77.77 0 01.56-.23h16.51c3.3 0 6.2.58 8.68 1.75 2.48 1.17 4.41 2.81 5.78 4.92 1.36 2.11 2.05 4.56 2.05 7.33v18.23c0 2.77-.68 5.22-2.05 7.33-1.36 2.11-3.29 3.75-5.78 4.92s-5.38 1.75-8.68 1.75h-16.51a.77.77 0 01-.56-.23zm9.42-7.76h7.99c2.03 0 3.67-.68 4.92-2.05 1.25-1.36 1.9-3.19 1.95-5.48v-15.19c0-2.29-.63-4.12-1.88-5.48-1.25-1.36-2.94-2.05-5.05-2.05h-7.92c-.22 0-.33.11-.33.33v29.58c0 .22.11.33.33.33h-.01zm63.04-30.47c-.16.15-.34.23-.56.23H867.9c-.22 0-.33.11-.33.33v10.24c0 .22.11.33.33.33h14.2c.22 0 .41.08.56.23.15.15.23.34.23.56v6.41a.787.787 0 01-.79.79h-14.2c-.22 0-.33.11-.33.33v10.7c0 .22.11.33.33.33h21.66a.787.787 0 01.79.79v6.4c0 .22-.08.41-.23.56-.16.16-.34.23-.56.23h-30.51a.77.77 0 01-.56-.23.77.77 0 01-.23-.56v-44.65c0-.22.08-.41.23-.56a.77.77 0 01.56-.23h30.51a.787.787 0 01.79.79v6.41c0 .22-.08.41-.23.56zm6.93 38.23a.77.77 0 01-.23-.56v-44.65c0-.22.08-.41.23-.56a.77.77 0 01.56-.23h7.73a.787.787 0 01.79.79v37.12c0 .22.11.33.33.33h21.59a.787.787 0 01.79.79v6.4c0 .22-.08.41-.23.56s-.34.23-.56.23h-30.44a.77.77 0 01-.56-.23zm57.96-1.25c-2.6-1.34-4.6-3.22-6.01-5.65-1.41-2.42-2.11-5.22-2.11-8.39v-15.25c0-3.17.7-5.97 2.11-8.39 1.41-2.42 3.41-4.29 6.01-5.61 2.6-1.32 5.61-1.98 9.05-1.98s6.37.63 8.95 1.88c2.58 1.26 4.58 3.04 6.01 5.35 1.43 2.31 2.15 4.99 2.15 8.02 0 .4-.27.64-.79.73l-7.73.46h-.13c-.44 0-.66-.24-.66-.73 0-2.33-.72-4.2-2.15-5.61-1.43-1.41-3.31-2.11-5.65-2.11s-4.28.7-5.71 2.11c-1.43 1.41-2.15 3.28-2.15 5.61v15.91c0 2.29.71 4.14 2.15 5.55 1.43 1.41 3.33 2.11 5.71 2.11s4.22-.7 5.65-2.11c1.43-1.41 2.15-3.26 2.15-5.55 0-.48.26-.73.79-.73l7.73.33c.22 0 .41.07.56.2s.23.29.23.46c0 3.04-.72 5.72-2.15 8.06-1.43 2.33-3.43 4.14-6.01 5.42s-5.56 1.91-8.95 1.91-6.45-.67-9.05-2.01zm40.31.1c-2.62-1.41-4.65-3.38-6.11-5.91-1.45-2.53-2.18-5.45-2.18-8.75v-14.13c0-3.26.73-6.14 2.18-8.65 1.45-2.51 3.49-4.46 6.11-5.84 2.62-1.39 5.65-2.08 9.08-2.08s6.53.69 9.15 2.08c2.62 1.39 4.65 3.33 6.11 5.84 1.45 2.51 2.18 5.39 2.18 8.65v14.13c0 3.3-.73 6.23-2.18 8.78-1.45 2.55-3.49 4.52-6.11 5.91s-5.67 2.08-9.15 2.08-6.46-.7-9.08-2.11zm14.96-8.19c1.5-1.54 2.25-3.59 2.25-6.14v-14.53c0-2.55-.74-4.61-2.21-6.17-1.48-1.56-3.45-2.35-5.91-2.35s-4.37.78-5.84 2.35c-1.48 1.56-2.21 3.62-2.21 6.17v14.53c0 2.55.74 4.6 2.21 6.14s3.42 2.31 5.84 2.31 4.38-.77 5.88-2.31h-.01zm26.52 8.12c-2.58-1.32-4.58-3.18-6.01-5.58-1.43-2.4-2.15-5.16-2.15-8.29V378.1c0-.22.08-.41.23-.56s.34-.23.56-.23h7.73a.787.787 0 01.79.79v30.18c0 2.33.72 4.22 2.15 5.65 1.43 1.43 3.31 2.15 5.65 2.15s4.21-.72 5.65-2.15c1.43-1.43 2.15-3.31 2.15-5.65V378.1c0-.22.08-.41.23-.56s.34-.23.56-.23h7.73a.787.787 0 01.79.79v30.11c0 3.13-.72 5.89-2.15 8.29-1.43 2.4-3.43 4.26-6.01 5.58-2.58 1.32-5.56 1.98-8.95 1.98s-6.37-.66-8.95-1.98zm58.15.86l-8.25-18.29c-.09-.18-.22-.26-.4-.26h-6.14c-.22 0-.33.11-.33.33v18.03c0 .22-.08.41-.23.56s-.34.23-.56.23h-7.73a.77.77 0 01-.56-.23.77.77 0 01-.23-.56V378.1c0-.22.08-.41.23-.56s.34-.23.56-.23h18.89c2.82 0 5.29.57 7.43 1.72 2.13 1.15 3.79 2.77 4.95 4.89 1.17 2.11 1.75 4.56 1.75 7.33 0 2.99-.75 5.56-2.25 7.69-1.5 2.13-3.59 3.64-6.27 4.52-.22.09-.29.24-.2.46l8.98 18.69c.09.18.13.31.13.4 0 .35-.24.53-.73.53h-8.12c-.44 0-.75-.2-.92-.6zm-15.13-37.31v11.29c0 .22.11.33.33.33h8.65c1.85 0 3.36-.55 4.52-1.65 1.17-1.1 1.75-2.53 1.75-4.29s-.58-3.2-1.75-4.33c-1.17-1.12-2.67-1.68-4.52-1.68h-8.65c-.22 0-.33.11-.33.33zm63.64-8.09c.15.16.23.34.23.56v6.47c0 .22-.08.41-.23.56-.15.16-.34.23-.56.23h-11.82c-.22 0-.33.11-.33.33v37.06c0 .22-.08.41-.23.56-.15.16-.34.23-.56.23h-7.73a.77.77 0 01-.56-.23.732.732 0 01-.23-.56v-37.06c0-.22-.11-.33-.33-.33h-11.49a.77.77 0 01-.56-.23.77.77 0 01-.23-.56v-6.47c0-.22.08-.41.23-.56s.34-.23.56-.23h33.29c.22 0 .41.08.56.23zm12.39 44.84c-2.64-1.12-4.68-2.73-6.11-4.82-1.43-2.09-2.15-4.52-2.15-7.3v-1.45c0-.22.08-.41.23-.56s.34-.23.56-.23h7.53c.22 0 .41.08.56.23.15.15.23.34.23.56v.99c0 1.76.81 3.25 2.44 4.46s3.83 1.82 6.6 1.82c2.33 0 4.07-.5 5.22-1.49 1.14-.99 1.72-2.21 1.72-3.67 0-1.06-.35-1.95-1.06-2.67-.7-.73-1.66-1.36-2.87-1.92-1.21-.55-3.14-1.31-5.78-2.28-2.95-1.01-5.45-2.05-7.5-3.1a15.07 15.07 0 01-5.15-4.33c-1.39-1.83-2.08-4.08-2.08-6.77s.68-4.95 2.05-6.93c1.36-1.98 3.26-3.5 5.68-4.56 2.42-1.06 5.22-1.59 8.39-1.59 3.35 0 6.33.6 8.95 1.78 2.62 1.18 4.67 2.85 6.14 4.99 1.47 2.14 2.21 4.61 2.21 7.43v.99c0 .22-.08.41-.23.56-.15.16-.34.23-.56.23h-7.59a.77.77 0 01-.56-.23.732.732 0 01-.23-.56v-.53c0-1.85-.76-3.42-2.28-4.72s-3.6-1.95-6.24-1.95c-2.07 0-3.69.44-4.85 1.32-1.17.88-1.75 2.09-1.75 3.63 0 1.1.34 2.03 1.02 2.77.68.75 1.69 1.42 3.04 2.01 1.34.59 3.42 1.4 6.24 2.41 3.12 1.15 5.58 2.16 7.36 3.04 1.78.88 3.39 2.19 4.82 3.93 1.43 1.74 2.15 4 2.15 6.77 0 4.14-1.52 7.41-4.56 9.81-3.04 2.4-7.15 3.6-12.35 3.6-3.52 0-6.6-.56-9.25-1.68h.01z"/></svg>