<svg xmlns="http://www.w3.org/2000/svg" viewBox="0 0 1641 241.03"><path d="M272.11 241.01V1.79h130.3l29.86 130.51L462.22 1.79H592.5v239.23h-72.45V73.24l-47.89 167.77h-79.72L344.55 73.24v167.77h-72.47.01zm483.41 0h-43.44l-12.41-.94-12.06-2.58-11.7-4.34-10.88-5.98-9.85-7.49-8.77-8.8-7.49-9.83-5.85-10.88-4.32-11.72-2.69-12.08-.82-12.4V88.7l.82-12.31 2.69-12.17 4.32-11.6 5.85-10.89 7.49-9.96 8.77-8.78 9.85-7.38 10.88-5.96 11.7-4.34 12.06-2.71 12.41-.82h43.44l12.28.82 12.18 2.71 11.59 4.34 10.88 5.96 9.96 7.38 8.78 8.78 7.37 9.96 5.98 10.89 4.34 11.6 2.59 12.17.92 12.31v65.27l-.92 12.4-2.59 12.08-4.34 11.72-5.98 10.88-7.37 9.83-8.78 8.8-9.96 7.49-10.88 5.98-11.59 4.34-12.18 2.58-12.28.94zm-.83-176.07l-2.11-5.17-3.5-4.56-4.45-3.4-5.27-2.22-5.61-.71-5.62.71-5.26 2.22-4.46 3.4-3.39 4.56-2.22 5.17-.69 5.74v101.47l.69 5.62 2.22 5.27 3.39 4.45 4.46 3.49 5.26 2.13 5.62.81 5.61-.81 5.27-2.13 4.45-3.49 3.5-4.45 2.11-5.27.82-5.62V70.67l-.82-5.74zm367.03 176.07H995.53L947.52 73.24v167.77h-72.45V1.79h126.3l47.89 167.77V1.79h72.47v239.23zm242.71-87.04l-.93 12.4-2.58 12.07-4.31 11.73-5.98 10.88-7.37 9.83-8.8 8.8-9.95 7.48-10.88 5.98-11.6 4.34-12.17 2.58-12.31.94h-123.13V1.77h123.13l12.31.82 12.17 2.71 11.6 4.32 10.88 5.96 9.95 7.38 8.8 8.78 7.37 9.96 5.98 10.89 4.31 11.59 2.58 12.18.93 12.3v65.3zm-130.3-105.08v145.02h21.65l5.64-.81 5.26-2.11 4.45-3.5 3.51-4.46 2.1-5.26.81-5.62V70.67l-.81-5.74-2.1-5.16-3.51-4.58-4.45-3.39-5.26-2.22-5.64-.69h-21.65zm293.31 192.12h-43.42l-12.42-.94-12.03-2.58-11.72-4.34-10.88-5.98-9.86-7.49-8.77-8.8-7.48-9.83-5.87-10.88-4.34-11.73-2.71-12.06-.81-12.41V88.7l.81-12.3 2.71-12.18 4.34-11.59 5.87-10.89 7.48-9.96 8.77-8.78 9.86-7.4 10.88-5.96 11.72-4.32 12.03-2.71 12.42-.82h43.42l12.3.82 12.17 2.71 11.57 4.32 10.88 5.96 9.97 7.4 8.77 8.78 7.37 9.96 5.98 10.89 4.32 11.59 2.59 12.18.94 12.3v65.27l-.94 12.41-2.59 12.06-4.32 11.73-5.98 10.88-7.37 9.83-8.77 8.8-9.97 7.49-10.88 5.98-11.57 4.34-12.17 2.58-12.3.94zM1484 172.13l.71 5.62 2.22 5.27 3.37 4.46 4.45 3.5 5.27 2.13 5.62.81 5.62-.81 5.26-2.13 4.45-3.5 3.51-4.46 2.13-5.27.81-5.62V70.66l-.81-5.74-2.13-5.16-3.51-4.58-4.45-3.39-5.26-2.22-5.62-.69-5.62.69-5.27 2.22-4.45 3.39-3.37 4.58-2.22 5.16-.71 5.74v101.47zM18.26 1.79l7.25 26.01 5.4 26.37L34.54 81l1.87 26.83v27.06l-1.87 26.93-3.63 26.72-5.4 26.48-7.25 26.01-7.25-26.01-5.51-26.48-3.63-26.72L0 134.89v-27.06L1.87 81 5.5 54.17l5.51-26.37 7.25-26.01zm47.76 0l7.25 26.01 5.38 26.37L82.39 81l1.76 26.83v27.06l-1.76 26.93-3.74 26.72-5.38 26.48-7.25 26.01-7.25-26.01-5.5-26.48-3.63-26.72-1.87-26.93v-27.06L49.64 81l3.63-26.83 5.5-26.37 7.25-26.01zm47.77 0l7.25 26.01 5.51 26.37L130.16 81l1.76 26.83v27.06l-1.76 26.93-3.61 26.72-5.51 26.48-7.25 26.01-7.27-26.01-5.38-26.48-3.74-26.72-1.76-26.93v-27.06L97.4 81l3.74-26.83 5.38-26.37 7.27-26.01zm47.76 0l7.24 26.01 5.51 26.37L177.93 81l1.87 26.83v27.06l-1.87 26.93-3.63 26.72-5.51 26.48-7.24 26.01-7.27-26.01-5.38-26.48-3.74-26.72-1.76-26.93v-27.06L145.16 81l3.74-26.83 5.38-26.37 7.27-26.01zm47.76 0l7.27 26.01 5.5 26.37L225.71 81l1.87 26.83v27.06l-1.87 26.93-3.63 26.72-5.5 26.48-7.27 26.01-7.14-26.01-5.5-26.48-3.63-26.72-1.87-26.93v-27.06L193.04 81l3.63-26.83 5.5-26.37 7.14-26.01zM1627.68 0c2.24 0 4.42.57 6.56 1.71 2.13 1.15 3.78 2.79 4.97 4.93 1.19 2.14 1.79 4.36 1.79 6.69s-.58 4.51-1.76 6.62c-1.18 2.13-2.82 3.77-4.93 4.94s-4.32 1.76-6.63 1.76-4.52-.58-6.63-1.76c-2.11-1.18-3.75-2.82-4.94-4.94-1.18-2.13-1.77-4.32-1.77-6.62s.6-4.55 1.8-6.69c1.19-2.14 2.86-3.78 4.99-4.93 2.14-1.15 4.32-1.71 6.56-1.71zm0 2.21c-1.87 0-3.7.48-5.47 1.43-1.77.96-3.16 2.34-4.15 4.12-1.01 1.79-1.5 3.64-1.5 5.57s.5 3.75 1.47 5.53c.98 1.76 2.37 3.13 4.12 4.11 1.77.98 3.61 1.47 5.53 1.47s3.75-.5 5.53-1.47c1.77-.98 3.15-2.35 4.12-4.11.98-1.76 1.46-3.6 1.46-5.53s-.5-3.78-1.49-5.57c-.99-1.79-2.38-3.16-4.17-4.12-1.77-.96-3.6-1.43-5.45-1.43zm-5.85 18.49V6.36h4.93c1.69 0 2.9.13 3.66.4.75.27 1.35.72 1.8 1.39.45.67.68 1.36.68 2.11 0 1.05-.38 1.96-1.12 2.73-.75.78-1.74 1.2-2.98 1.3.51.21.91.47 1.22.77.58.57 1.28 1.5 2.13 2.85l1.76 2.81h-2.82l-1.28-2.27c-1.01-1.79-1.81-2.89-2.42-3.34-.43-.33-1.03-.5-1.86-.5h-1.36v6.09h-2.34zm2.31-8.08h2.81c1.35 0 2.25-.2 2.75-.6s.74-.94.74-1.59c0-.43-.11-.81-.35-1.13-.24-.34-.55-.58-.98-.75-.43-.17-1.19-.26-2.32-.26h-2.64v4.34z" fill="#fff"/></svg>