<svg xmlns="http://www.w3.org/2000/svg" viewBox="0 0 1000 154.44"><path d="M802.06 105.95c-3.8 0-6.87-.87-9.22-2.61-2.35-1.74-3.53-3.98-3.53-6.71 0-2.48.91-4.6 2.75-6.34 1.83-1.74 4.45-2.61 7.85-2.61 3.66 0 6.44 1.34 8.34 4.01 1.72 2.43 3.15 6.35 4.28 11.71-3.31 1.69-6.79 2.55-10.46 2.55m55.74-32.82c0-9.15-2.27-17.41-6.75-24.54-4.48-7.12-10.93-12.77-19.18-16.77-8.18-3.97-17.91-5.98-28.92-5.98-14.52 0-27.71 3.39-39.2 10.09-11.53 6.72-20.82 17.22-27.62 31.21-6.75 13.89-10.17 31.56-10.17 52.52 0 10.37.66 21.33 1.95 32.57h29.36c-1.72-14.83-2.58-26.89-2.58-36.18 0-15.23 2.25-27.7 6.75-37.4s10.29-16.71 17.39-21.04c7.09-4.33 14.73-6.49 22.92-6.49 9 0 15.89 2.49 20.68 7.48 4.79 4.99 7.18 11.81 7.18 20.47 0 1.56-.43 3.07-1.26 4.53-1.59-3.67-3.9-6.87-6.96-9.54-5.6-4.87-12.6-7.31-21.02-7.31-6.46 0-12.26 1.37-17.39 4.11-5.13 2.74-9.2 6.49-12.2 11.26s-4.5 10-4.5 15.7 1.44 10.55 4.33 14.87c2.88 4.33 6.86 7.7 11.94 10.11 5.07 2.41 10.67 3.62 16.78 3.62 4.27 0 8.13-.6 11.59-1.81 1.14-.4 2.32-.89 3.53-1.42l4.58 29.05h29.47l-6.38-42.99c3.85-4.01 7.07-8.25 9.6-12.62 4.05-7 6.1-14.9 6.1-23.48m-641.49 9.38c.4-.98.81-1.87 1.22-2.69 3-5.94 7.24-10.69 12.59-14.14 5.34-3.44 11.54-5.18 18.42-5.18s12.9 1.84 17.1 5.46c4.17 3.6 6.29 8.42 6.29 14.33 0 .85-.04 1.6-.12 2.22h-55.5zm74.29 42.99l1.06-2.12-25.62-9.49-.89 1.58c-2.19 3.88-5.47 7.07-9.75 9.48-4.68 2.63-10.25 3.96-16.54 3.96-8.45 0-14.94-2.57-19.28-7.64-3.7-4.31-5.86-10.13-6.43-17.3h84.09l.51-1.39c2.19-5.95 3.29-12.39 3.29-19.14 0-14.54-4.54-26.31-13.5-34.97-8.95-8.65-21.32-13.04-36.75-13.04-12.83 0-24.51 3.14-34.71 9.34-10.19 6.19-18.24 14.58-23.9 24.92-5.66 10.34-8.53 21.56-8.53 33.33 0 10.13 2.07 19.18 6.16 26.91 4.1 7.75 10.15 13.84 17.97 18.08 7.8 4.24 17.27 6.39 28.15 6.39 12.67 0 24.08-2.68 33.89-7.97 9.34-5.03 16.33-12.08 20.78-20.96m58.72-42.96c.4-.98.81-1.87 1.22-2.69 3-5.94 7.24-10.69 12.59-14.14 5.34-3.44 11.54-5.18 18.42-5.18s12.9 1.84 17.1 5.46c4.17 3.6 6.29 8.42 6.29 14.33 0 .86-.04 1.6-.12 2.22h-55.5zm48.84 32.95c-2.19 3.88-5.47 7.07-9.75 9.48-4.68 2.63-10.24 3.96-16.54 3.96-8.45 0-14.94-2.57-19.28-7.64-3.69-4.31-5.85-10.13-6.43-17.3h84.09l.51-1.39c2.19-5.95 3.3-12.39 3.3-19.14 0-14.54-4.54-26.31-13.5-34.97-8.96-8.65-21.32-13.04-36.75-13.04-12.83 0-24.51 3.14-34.71 9.34-10.19 6.19-18.23 14.58-23.9 24.92-5.66 10.34-8.53 21.56-8.53 33.33 0 10.13 2.07 19.18 6.16 26.9 4.1 7.75 10.15 13.84 17.96 18.08 7.81 4.24 17.28 6.39 28.15 6.39 12.67 0 24.08-2.68 33.89-7.97 9.34-5.03 16.33-12.08 20.78-20.96l1.06-2.12-25.62-9.49-.89 1.57zm228.76 5.01c-4.29-4.72-6.46-11.26-6.46-19.45 0-6.76 1.56-13.16 4.65-19.04 3.09-5.87 7.36-10.64 12.71-14.15 5.33-3.51 11.46-5.29 18.19-5.29 8.01 0 14.28 2.39 18.62 7.09 4.36 4.73 6.57 11.27 6.57 19.45 0 6.76-1.56 13.17-4.65 19.04-3.08 5.87-7.39 10.63-12.82 14.15-5.41 3.51-11.57 5.29-18.31 5.29-8.01 0-14.24-2.39-18.51-7.09m51.65 24.39c10.34-6.34 18.46-14.81 24.12-25.15 5.66-10.34 8.53-21.55 8.53-33.33 0-9.98-2.11-18.92-6.28-26.57-4.18-7.67-10.34-13.71-18.3-17.96-7.95-4.24-17.5-6.39-28.37-6.39-12.98 0-24.77 3.18-35.05 9.45-10.27 6.27-18.38 14.73-24.12 25.15-5.74 10.41-8.64 21.66-8.64 33.45 0 9.99 2.11 18.93 6.28 26.57 4.18 7.67 10.33 13.72 18.3 17.97 7.95 4.24 17.42 6.39 28.14 6.39 13.13 0 25.04-3.22 35.39-9.56m281.35-55.8c0 6.76-1.49 13.17-4.43 19.05-2.93 5.86-7.17 10.62-12.59 14.14-5.41 3.51-11.57 5.29-18.31 5.29-7.71 0-13.79-2.38-18.06-7.09-4.29-4.72-6.46-11.19-6.46-19.23 0-6.76 1.53-13.21 4.54-19.16 3-5.94 7.28-10.73 12.7-14.25 5.41-3.51 11.57-5.29 18.31-5.29 7.86 0 13.93 2.38 18.05 7.08 4.14 4.73 6.24 11.27 6.24 19.46m11.04-51.16l-2.84 12.37c-2.88-3.99-6.26-7.13-10.06-9.35-6.24-3.65-13.63-5.5-21.97-5.5-12.54 0-23.96 3.22-33.93 9.57-9.97 6.35-17.86 14.84-23.44 25.26-5.59 10.41-8.42 21.66-8.42 33.44 0 9.83 1.92 18.69 5.7 26.33 3.8 7.67 9.38 13.72 16.6 17.98 7.21 4.25 15.71 6.4 25.24 6.4 13.69 0 25.29-4.54 34.52-13.5l-2.03 11.25h29.59L1000 37.95h-29.03zM546.01 88.65c0 6.76-1.56 13.2-4.65 19.16-3.08 5.94-7.4 10.78-12.82 14.37-5.41 3.58-11.56 5.4-18.3 5.4-7.86 0-13.97-2.38-18.16-7.08-4.21-4.72-6.35-11.26-6.35-19.46 0-6.61 1.53-12.95 4.54-18.82 3-5.86 7.28-10.66 12.71-14.26 5.41-3.58 11.57-5.4 18.3-5.4 7.71 0 13.82 2.39 18.17 7.09 4.36 4.72 6.57 11.12 6.57 19m24.08-28.58c-3.8-7.67-9.31-13.75-16.37-18.08-7.06-4.33-15.41-6.52-24.8-6.52-8.34 0-15.99 1.89-22.75 5.61-4.35 2.4-8.49 5.68-12.32 9.76L502.47 0H472.4l-26.52 152.19h28.36l2.78-13.73c2.95 4.54 6.45 8.06 10.43 10.47 6.01 3.65 13.37 5.51 21.87 5.51 12.83 0 24.44-3.22 34.5-9.57 10.04-6.34 17.96-14.84 23.55-25.26 5.58-10.42 8.42-21.59 8.42-33.21 0-9.82-1.92-18.67-5.7-26.33M90.5 100.82a55.416 55.416 0 01-9.6 14.36c-1-1.55-1.91-3.2-2.69-4.98-2.49-5.7-3.74-12.04-3.74-19.01 0-4.32.5-8.22 1.49-11.7 1.15-4.03 2.97-7.1 5.46-9.21 1.29-1.1 2.91-1.8 4.59-2.03 3.53-.49 6.12.44 7.8 2.78 1.38 1.94 2.08 4.68 2.08 8.22 0 6.64-1.8 13.84-5.4 21.58m66.5-61.77l-5.98-15.44-27.72 10.62 4.32 10.46c3.54 8.52 6.23 16.3 8.05 23.32 1.83 7.03 2.74 13.81 2.74 20.34 0 8.08-1.27 15.16-3.82 21.25s-6.23 10.79-11.04 14.11c-4.81 3.32-10.49 4.98-17.01 4.98-1.49 0-2.92-.1-4.31-.26 4.16-4.59 7.83-9.58 10.95-15.02 6.75-11.73 10.13-23.13 10.13-34.2s-2.85-19.98-8.55-26.4c-5.7-6.42-13.64-9.63-23.82-9.63-8.52 0-16.08 2.05-22.66 6.14-6.59 4.1-11.7 9.85-15.35 17.27-3.65 7.42-5.48 15.94-5.48 25.57s2.32 19.75 6.97 29.38c1.13 2.34 2.39 4.56 3.77 6.69-1.87.29-3.79.45-5.77.45-5.09 0-9.49-1.19-13.2-3.57-3.71-2.38-6.31-5.89-7.8-10.54-1.49-4.65-1.58-10.29-.25-16.93l14.28-69.89H15.39L1.77 94.67c-2.77 13.61-2.3 24.9 1.41 33.87 3.71 8.97 9.55 15.52 17.51 19.67 7.97 4.15 17.04 6.23 27.22 6.23 10.69 0 20.74-2.42 30.16-7.23 8.31 4.81 17.9 7.23 28.77 7.23 12.72 0 23.66-2.93 32.78-8.8 9.13-5.86 16.05-14 20.75-24.4 4.7-10.4 7.05-22.36 7.05-35.86 0-7.08-.89-14.33-2.65-21.75-1.77-7.41-4.37-15.61-7.8-24.57" fill="#fff"/></svg>