<svg xmlns="http://www.w3.org/2000/svg" xmlns:xlink="http://www.w3.org/1999/xlink" width="512" zoomAndPan="magnify" viewBox="0 0 384 383.999986" height="512" preserveAspectRatio="xMidYMid meet" version="1.0"><defs><clipPath id="b980c1d3ad"><path d="M 70 316 L 192 316 L 192 356.609375 L 70 356.609375 Z M 70 316 " clip-rule="nonzero"/></clipPath><clipPath id="d2c1fd9663"><path d="M 209 27.359375 L 384 27.359375 L 384 356.609375 L 209 356.609375 Z M 209 27.359375 " clip-rule="nonzero"/></clipPath></defs><path fill="#000000" d="M 23.816406 102.761719 C 15.367188 102.761719 8.488281 109.636719 8.488281 118.089844 L 8.488281 270.589844 C 8.488281 279.042969 15.363281 285.917969 23.816406 285.917969 L 238.683594 285.917969 C 247.136719 285.917969 254.011719 279.042969 254.011719 270.589844 L 254.011719 118.089844 C 254.011719 109.636719 247.136719 102.761719 238.683594 102.761719 Z M 238.683594 294.300781 L 23.816406 294.300781 C 10.742188 294.300781 0.105469 283.664062 0.105469 270.589844 L 0.105469 118.089844 C 0.105469 105.015625 10.742188 94.378906 23.816406 94.378906 L 238.683594 94.378906 C 251.761719 94.378906 262.398438 105.015625 262.398438 118.089844 L 262.398438 270.589844 C 262.398438 283.664062 251.761719 294.300781 238.683594 294.300781 Z M 238.683594 294.300781 " fill-opacity="1" fill-rule="evenodd"/><path fill="#000000" d="M 38.242188 256.171875 L 224.257812 256.171875 L 224.257812 132.515625 L 38.242188 132.515625 Z M 228.449219 264.554688 L 34.050781 264.554688 C 31.734375 264.554688 29.859375 262.675781 29.859375 260.363281 L 29.859375 128.324219 C 29.859375 126.011719 31.734375 124.132812 34.050781 124.132812 L 228.449219 124.132812 C 230.765625 124.132812 232.640625 126.011719 232.640625 128.324219 L 232.640625 260.363281 C 232.640625 262.675781 230.765625 264.554688 228.449219 264.554688 Z M 228.449219 264.554688 " fill-opacity="1" fill-rule="evenodd"/><g clip-path="url(#b980c1d3ad)"><path fill="#000000" d="M 81.378906 325.121094 C 80.210938 325.121094 79.222656 326.109375 79.222656 327.269531 L 79.226562 346.117188 C 79.226562 347.285156 80.210938 348.273438 81.378906 348.273438 L 181.125 348.273438 C 182.292969 348.273438 183.277344 347.285156 183.277344 346.117188 L 183.277344 327.269531 C 183.277344 326.109375 182.292969 325.121094 181.125 325.121094 Z M 181.125 356.65625 L 81.378906 356.65625 C 75.566406 356.65625 70.839844 351.933594 70.839844 346.117188 L 70.839844 327.269531 C 70.839844 321.460938 75.566406 316.738281 81.378906 316.738281 L 181.125 316.738281 C 186.933594 316.738281 191.660156 321.460938 191.660156 327.269531 L 191.660156 346.117188 C 191.660156 351.933594 186.933594 356.65625 181.125 356.65625 Z M 181.125 356.65625 " fill-opacity="1" fill-rule="evenodd"/></g><path fill="#000000" d="M 109.289062 325.121094 C 106.972656 325.121094 105.097656 323.242188 105.097656 320.929688 L 105.097656 290.109375 C 105.097656 287.796875 106.972656 285.917969 109.289062 285.917969 C 111.605469 285.917969 113.480469 287.796875 113.480469 290.109375 L 113.480469 320.929688 C 113.480469 323.242188 111.605469 325.121094 109.289062 325.121094 Z M 153.210938 325.121094 C 150.898438 325.121094 149.019531 323.242188 149.019531 320.929688 L 149.019531 290.109375 C 149.019531 287.796875 150.898438 285.917969 153.210938 285.917969 C 155.527344 285.917969 157.40625 287.796875 157.40625 290.109375 L 157.40625 320.929688 C 157.40625 323.242188 155.527344 325.121094 153.210938 325.121094 Z M 153.210938 325.121094 " fill-opacity="1" fill-rule="evenodd"/><g clip-path="url(#d2c1fd9663)"><path fill="#000000" d="M 365.578125 356.65625 L 227.855469 356.65625 C 217.625 356.65625 209.296875 348.332031 209.296875 338.097656 L 209.296875 290.109375 C 209.296875 287.792969 211.171875 285.914062 213.488281 285.914062 C 215.804688 285.914062 217.679688 287.792969 217.679688 290.109375 L 217.679688 338.097656 C 217.679688 343.703125 222.246094 348.269531 227.855469 348.269531 L 365.578125 348.269531 C 371.183594 348.269531 375.75 343.703125 375.75 338.097656 L 375.75 45.863281 C 375.75 40.25 371.183594 35.691406 365.578125 35.691406 L 227.855469 35.691406 C 222.246094 35.691406 217.679688 40.25 217.679688 45.863281 L 217.679688 98.570312 C 217.679688 100.882812 215.804688 102.761719 213.488281 102.761719 C 211.171875 102.761719 209.296875 100.882812 209.296875 98.570312 L 209.296875 45.863281 C 209.296875 35.628906 217.625 27.308594 227.855469 27.308594 L 365.578125 27.304688 C 375.804688 27.304688 384.136719 35.628906 384.136719 45.863281 L 384.136719 338.09375 C 384.136719 348.332031 375.804688 356.652344 365.578125 356.652344 Z M 365.578125 356.65625 " fill-opacity="1" fill-rule="evenodd"/></g><path fill="#000000" d="M 379.945312 71.324219 L 213.492188 71.324219 C 211.175781 71.324219 209.296875 69.445312 209.296875 67.132812 C 209.296875 64.816406 211.175781 62.941406 213.492188 62.941406 L 379.945312 62.9375 C 382.261719 62.9375 384.136719 64.816406 384.136719 67.132812 C 384.136719 69.445312 382.261719 71.324219 379.945312 71.324219 Z M 379.945312 71.324219 " fill-opacity="1" fill-rule="evenodd"/><path fill="#000000" d="M 379.945312 321.015625 L 213.492188 321.015625 C 211.175781 321.015625 209.296875 319.148438 209.296875 316.824219 C 209.296875 314.507812 211.175781 312.640625 213.492188 312.640625 L 379.945312 312.640625 C 382.261719 312.640625 384.136719 314.511719 384.136719 316.824219 C 384.136719 319.148438 382.261719 321.015625 379.945312 321.015625 Z M 379.945312 321.015625 " fill-opacity="1" fill-rule="evenodd"/><path fill="#000000" d="M 379.945312 122.28125 L 258.207031 122.28125 C 255.890625 122.28125 254.015625 120.40625 254.015625 118.089844 C 254.015625 115.777344 255.890625 113.898438 258.207031 113.898438 L 379.945312 113.898438 C 382.261719 113.898438 384.136719 115.777344 384.136719 118.089844 C 384.136719 120.40625 382.261719 122.28125 379.945312 122.28125 Z M 379.945312 122.28125 " fill-opacity="1" fill-rule="evenodd"/><path fill="#000000" d="M 379.945312 154.636719 L 258.207031 154.636719 C 255.890625 154.636719 254.015625 152.769531 254.015625 150.457031 C 254.015625 148.132812 255.890625 146.265625 258.207031 146.265625 L 379.945312 146.261719 C 382.261719 146.261719 384.136719 148.132812 384.136719 150.457031 C 384.136719 152.769531 382.261719 154.640625 379.945312 154.636719 Z M 379.945312 154.636719 " fill-opacity="1" fill-rule="evenodd"/><path fill="#000000" d="M 379.945312 187.003906 L 258.207031 187.003906 C 255.890625 187.003906 254.015625 185.125 254.015625 182.8125 C 254.015625 180.496094 255.890625 178.621094 258.207031 178.621094 L 379.945312 178.621094 C 382.261719 178.621094 384.136719 180.496094 384.136719 182.8125 C 384.136719 185.125 382.261719 187.003906 379.945312 187.003906 Z M 379.945312 187.003906 " fill-opacity="1" fill-rule="evenodd"/><path fill="#000000" d="M 296.714844 302.675781 C 283.539062 302.675781 272.816406 291.960938 272.816406 278.78125 C 272.816406 272.394531 275.300781 266.386719 279.816406 261.882812 C 281.453125 260.238281 284.105469 260.242188 285.746094 261.882812 C 287.382812 263.515625 287.382812 266.171875 285.742188 267.8125 C 282.8125 270.738281 281.199219 274.632812 281.199219 278.78125 C 281.199219 287.332031 288.160156 294.292969 296.714844 294.292969 C 305.273438 294.292969 312.234375 287.332031 312.234375 278.78125 C 312.234375 274.632812 310.617188 270.738281 307.6875 267.8125 C 306.050781 266.167969 306.050781 263.515625 307.6875 261.882812 C 309.324219 260.238281 311.980469 260.242188 313.617188 261.882812 C 318.132812 266.386719 320.617188 272.398438 320.617188 278.78125 C 320.617188 291.957031 309.894531 302.675781 296.714844 302.675781 Z M 296.714844 302.675781 " fill-opacity="1" fill-rule="evenodd"/><path fill="#000000" d="M 296.714844 277 C 294.402344 277 292.523438 275.125 292.523438 272.808594 L 292.523438 252.371094 C 292.523438 250.058594 294.402344 248.179688 296.714844 248.179688 C 299.03125 248.179688 300.910156 250.058594 300.910156 252.375 L 300.910156 272.808594 C 300.910156 275.125 299.03125 277 296.714844 277 Z M 296.714844 277 " fill-opacity="1" fill-rule="evenodd"/><path fill="#000000" d="M 344.765625 209.40625 L 329.566406 209.40625 C 327.253906 209.40625 325.375 207.527344 325.375 205.214844 C 325.375 202.898438 327.253906 201.019531 329.566406 201.019531 L 344.765625 201.019531 C 347.082031 201.019531 348.957031 202.898438 348.957031 205.214844 C 348.957031 207.527344 347.082031 209.40625 344.765625 209.40625 Z M 344.765625 209.40625 " fill-opacity="1" fill-rule="evenodd"/><path fill="#000000" d="M 344.765625 229.839844 L 329.566406 229.839844 C 327.253906 229.839844 325.375 227.964844 325.375 225.648438 C 325.375 223.335938 327.253906 221.457031 329.566406 221.457031 L 344.765625 221.457031 C 347.082031 221.457031 348.957031 223.335938 348.957031 225.648438 C 348.957031 227.964844 347.082031 229.839844 344.765625 229.839844 Z M 344.765625 229.839844 " fill-opacity="1" fill-rule="evenodd"/><path fill="#000000" d="M 304.3125 209.40625 L 289.117188 209.40625 C 286.800781 209.40625 284.925781 207.527344 284.925781 205.214844 C 284.925781 202.898438 286.800781 201.019531 289.117188 201.019531 L 304.3125 201.019531 C 306.628906 201.019531 308.507812 202.898438 308.507812 205.214844 C 308.507812 207.527344 306.628906 209.40625 304.3125 209.40625 Z M 304.3125 209.40625 " fill-opacity="1" fill-rule="evenodd"/><path fill="#000000" d="M 304.3125 229.839844 L 289.117188 229.839844 C 286.800781 229.839844 284.925781 227.964844 284.925781 225.648438 C 284.925781 223.335938 286.800781 221.457031 289.117188 221.457031 L 304.3125 221.457031 C 306.628906 221.457031 308.507812 223.335938 308.507812 225.648438 C 308.507812 227.964844 306.628906 229.839844 304.3125 229.839844 Z M 304.3125 229.839844 " fill-opacity="1" fill-rule="evenodd"/></svg>